<?xml version="1.0" standalone="no"?>
<!DOCTYPE svg PUBLIC "-//W3C//DTD SVG 1.1//EN" "http://www.w3.org/Graphics/SVG/1.1/DTD/svg11.dtd" >
<svg>
<metadata>
Created by FontForge 20110222 at Tue Oct 22 07:14:54 2013
 By Orthosie Webhosting
Part of the digitally encoded machine readable outline data for producing the Typefaces provided is copyrighted (c) 2004 - 2009 Linotype GmbH, www.linotype.com. All rights reserved. This software is the property of Linotype GmbH, and may not be reproduced, used, displayed, modified, disclosed or transferred without the express written approval of Linotype GmbH.  Copyright (c) 1985, 1987, 1989, 1990 Adobe Systems Incorporated. All Rights Reserved. Helvetica is a trademark of Linotype Corp. registered in the U.S. Patent and Trademark Office and may be registered in certain other jurisdictions in the name of Linotype Corp. or its licensee Linotype GmbH. This typeface is original artwork of Linotype Design Studio. The design may be protected in certain jurisdictions.
</metadata>
<defs>
<font id="HelveticaLTComBold" horiz-adv-x="556" >
  <font-face 
    font-family="HelveticaLTComBold"
    font-weight="700"
    font-stretch="normal"
    units-per-em="1000"
    panose-1="2 11 7 4 2 2 2 3 2 4"
    ascent="800"
    descent="-200"
    x-height="532"
    cap-height="718"
    bbox="-170 -263 1003 962"
    underline-thickness="50"
    underline-position="-50"
    unicode-range="U+000D-FB02"
  />
<missing-glyph horiz-adv-x="512" 
d="M222 117v67h56v-67h-56zM225 234l-2 17q0 56 13 81q7 13 18 27.5t28 31.5q16 15 26 26.5t15 21t7 18t2 17.5q0 36 -22.5 60.5t-53.5 24.5t-53.5 -22t-28.5 -73l-50 8q7 72 44 104.5t91 32.5t89 -35.5t35 -95.5q0 -32 -12.5 -58.5t-50.5 -61.5q-37 -33 -43 -52
q-6 -20 -6 -72h-46zM462 50v617h-412v-617h412zM512 718v-718h-512v718h512z" />
    <glyph glyph-name="IJ" unicode="IJ" horiz-adv-x="823" 
d="M214 0h-150v718h150v-718zM751 208q0 -115 -57 -170.5t-166 -55.5q-60 0 -101 12t-67.5 32.5t-41 48.5t-21 60t-7.5 67t-1 69h140q0 -42 2.5 -73.5t11.5 -52.5t26.5 -31.5t47.5 -10.5q29 0 46 8.5t25.5 23t10.5 33.5t2 40v510h150v-510z" />
    <glyph glyph-name="ij" unicode="ij" 
d="M209 595h-140v130h140v-130zM209 532v-532h-140v532h140zM487 595h-140v130h140v-130zM487 -56q0 -52 -11.5 -83.5t-33.5 -48t-54 -21.5t-72 -5h-35v112h25q5 0 12 1t13.5 5.5t11 14.5t4.5 28v585h140v-588z" />
    <glyph glyph-name="napostrophe" unicode="&#x22;n" horiz-adv-x="611" 
d="M546 0h-140v323q0 15 -1.5 33t-10.5 34t-27.5 27t-51.5 11q-47 0 -78.5 -31t-31.5 -92v-305h-140v532h134v-78h2q7 12 18.5 28t30.5 30t46 24t65 10q39 0 73 -11.5t58.5 -34t39 -55.5t14.5 -77v-368zM96 692q0 -32 -8 -54.5t-22 -38t-32.5 -25t-41.5 -13.5h-1v37
q10 3 19.5 7.5t18 13t14.5 23t7 36.5h-59v102h105v-88z" />
    <glyph glyph-name="fi" unicode="fi" horiz-adv-x="611" 
d="M542 595h-140v130h140v-130zM542 532v-532h-140v532h140zM227 0h-140v432h-77v100h77v43q0 83 42 117.5t114 34.5q31 0 47 -0.5t25 -1.5v-113h-39q-18 0 -28 -3t-14.5 -10t-5.5 -18.5t-1 -27.5v-21h91v-100h-91v-432z" />
    <glyph glyph-name="fl" unicode="fl" horiz-adv-x="611" 
d="M542 0h-140v718h140v-718zM227 0h-140v432h-77v100h77v43q0 83 42 117.5t114 34.5q31 0 47 -0.5t25 -1.5v-113h-39q-18 0 -28 -3t-14.5 -10t-5.5 -18.5t-1 -27.5v-21h91v-100h-91v-432z" />
    <glyph glyph-name=".notdef" horiz-adv-x="512" 
d="M222 117v67h56v-67h-56zM225 234l-2 17q0 56 13 81q7 13 18 27.5t28 31.5q16 15 26 26.5t15 21t7 18t2 17.5q0 36 -22.5 60.5t-53.5 24.5t-53.5 -22t-28.5 -73l-50 8q7 72 44 104.5t91 32.5t89 -35.5t35 -95.5q0 -32 -12.5 -58.5t-50.5 -61.5q-37 -33 -43 -52
q-6 -20 -6 -72h-46zM462 50v617h-412v-617h412zM512 718v-718h-512v718h512z" />
    <glyph glyph-name=".null" horiz-adv-x="500" 
 />
    <glyph glyph-name="nonmarkingreturn" unicode="&#xd;" horiz-adv-x="0" 
 />
    <glyph glyph-name="space" unicode=" " horiz-adv-x="278" 
 />
    <glyph glyph-name="exclam" unicode="!" horiz-adv-x="333" 
d="M204 199h-74l-40 336v183h154v-183zM240 0h-146v141h146v-141z" />
    <glyph glyph-name="quotedbl" unicode="&#x22;" horiz-adv-x="474" 
d="M98 718h98v-271h-98v271zM278 718h98v-271h-98v271z" />
    <glyph glyph-name="numbersign" unicode="#" 
d="M238 409l-17 -120h97l17 120h-97zM497 199h-97l-28 -199h-94l28 199h-97l-28 -199h-94l28 199h-97l12 90h97l17 120h-97l12 90h97l28 199h94l-28 -199h97l28 199h94l-28 -199h97l-12 -90h-97l-17 -120h97z" />
    <glyph glyph-name="dollar" unicode="$" 
d="M301 89q12 1 27.5 5.5t29 15.5t22.5 29.5t9 47.5q0 22 -8 38t-21 27t-28.5 18.5t-30.5 11.5v-193zM255 604q-22 -1 -38 -9t-26 -19t-15 -24.5t-5 -25.5q0 -24 7.5 -41t19.5 -27.5t27 -17t30 -9.5v173zM383 501q-2 34 -9.5 54.5t-19 31.5t-25 14t-28.5 3v-187
q71 -23 109.5 -42t57.5 -37q20 -19 31 -40t16.5 -40t6.5 -35t1 -25q0 -35 -11.5 -71.5t-37.5 -67t-68.5 -52t-104.5 -24.5v-98h-46v98q-61 5 -103.5 21t-69.5 44t-39.5 69.5t-12.5 97.5h131q2 -26 6.5 -47t14 -37t27 -26.5t46.5 -15.5v210q-37 10 -74.5 23.5t-67.5 36
t-49 57t-19 86.5q0 41 13 78.5t39 66t65.5 45.5t92.5 18v65h46v-65q28 -3 62.5 -11t66 -30t54.5 -61.5t28 -106.5h-129z" />
    <glyph glyph-name="percent" unicode="%" horiz-adv-x="889" 
d="M600 170q0 -33 23.5 -56t55.5 -23t55.5 23t23.5 56t-23.5 56t-55.5 23t-55.5 -23t-23.5 -56zM497 170q0 38 14.5 71t39 58t57.5 39t71 14q37 0 70 -14.5t58 -39t39.5 -58t14.5 -70.5q0 -38 -14.5 -71t-39.5 -58t-58 -39t-70 -14q-38 0 -71 14t-57.5 38.5t-39 58
t-14.5 71.5zM280 -19h-74l398 729h74zM28 528q0 38 14.5 71t39 58t57.5 39t71 14q37 0 70 -14.5t58 -39t39.5 -58t14.5 -70.5q0 -38 -14.5 -71t-39.5 -58t-58 -39t-70 -14q-38 0 -71 14t-57.5 38.5t-39 58t-14.5 71.5zM131 528q0 -33 23.5 -56t55.5 -23t55.5 23t23.5 56
t-23.5 56t-55.5 23t-55.5 -23t-23.5 -56z" />
    <glyph glyph-name="ampersand" unicode="&#x26;" horiz-adv-x="722" 
d="M279 314q-22 -16 -38 -29t-26.5 -26t-15.5 -28.5t-5 -36.5q0 -11 4.5 -27t16.5 -31t32.5 -26t52.5 -11q35 0 64 16.5t47 33.5zM701 0h-169l-49 61q-16 -16 -34.5 -30.5t-43 -25.5t-56 -17.5t-71.5 -6.5q-51 0 -92.5 17t-71 45t-45 65t-15.5 77q0 26 5 51.5t19.5 51.5
t41.5 52.5t72 53.5l15 9q-23 26 -44 64.5t-21 85.5q0 37 14 67t39.5 52t60.5 34t77 12q30 0 61 -10t56.5 -30t42 -51.5t16.5 -74.5q0 -38 -14.5 -67t-34 -50t-39.5 -34.5t-31 -19.5l102 -126q14 21 23.5 48.5t13.5 69.5h124q-3 -36 -9.5 -65.5t-16.5 -55t-24 -48.5t-32 -47z
M388 553q0 30 -17 44.5t-43 14.5q-23 0 -40.5 -14.5t-17.5 -43.5q0 -18 13 -40t39 -50q29 18 47.5 39.5t18.5 49.5z" />
    <glyph glyph-name="quotesingle" unicode="'" horiz-adv-x="238" 
d="M70 718h98v-271h-98v271z" />
    <glyph glyph-name="parenleft" unicode="(" horiz-adv-x="333" 
d="M211 -208q-33 45 -65 96.5t-56.5 110t-39.5 124t-15 138.5t14.5 138.5t38.5 124.5t56 111t67 99h103q-29 -49 -53.5 -100t-42.5 -108t-28.5 -122t-10.5 -143t11 -143t29.5 -121.5t43 -106.5t51.5 -98h-103z" />
    <glyph glyph-name="parenright" unicode=")" horiz-adv-x="333" 
d="M122 734q33 -45 65 -96.5t56.5 -110t39.5 -124t15 -138.5t-14.5 -138.5t-38.5 -124.5t-56 -111.5t-67 -98.5h-103q29 49 53.5 100t42.5 108t28.5 122t10.5 143t-11 143t-29.5 121.5t-43 106.5t-51.5 98h103z" />
    <glyph glyph-name="asterisk" unicode="*" horiz-adv-x="389" 
d="M362 560l-105 -32l69 -97l-63 -44l-68 91l-69 -91l-63 44l68 97l-104 32l23 73l102 -34v119h85v-119l101 34z" />
    <glyph glyph-name="plus" unicode="+" horiz-adv-x="584" 
d="M236 506h112v-197h196v-112h-196v-197h-112v197h-196v112h196v197z" />
    <glyph glyph-name="comma" unicode="," horiz-adv-x="278" 
d="M214 20q0 -46 -11.5 -78.5t-31.5 -54t-47 -35t-59 -20.5h-1v53q14 5 28.5 11.5t26 19t19.5 32.5t10 52h-84v146h150v-126z" />
    <glyph glyph-name="hyphen" unicode="-" horiz-adv-x="333" 
d="M306 215h-279v130h279v-130z" />
    <glyph glyph-name="period" unicode="." horiz-adv-x="278" 
d="M214 0h-150v146h150v-146z" />
    <glyph glyph-name="slash" unicode="/" horiz-adv-x="278" 
d="M84 -19h-117l227 756h117z" />
    <glyph glyph-name="zero" unicode="0" 
d="M176 346q0 -69 4.5 -117t16.5 -78t31.5 -44t49.5 -14t49.5 14t31.5 44t16.5 78t4.5 117t-4.5 117t-16.5 78t-31.5 43.5t-49.5 13.5t-49.5 -13.5t-31.5 -43.5t-16.5 -78t-4.5 -117zM32 346q0 187 60.5 275.5t185.5 88.5t185.5 -88.5t60.5 -275.5t-60.5 -276t-185.5 -89
t-185.5 89t-60.5 276z" />
    <glyph glyph-name="one" unicode="1" 
d="M69 587h20q51 0 84 12t52.5 30t28 39.5t9.5 41.5h115v-710h-140v489h-169v98z" />
    <glyph glyph-name="two" unicode="2" 
d="M34 459q0 58 13 99t33.5 69t46 44.5t51.5 25t49 11t39 2.5q51 0 95.5 -15t77.5 -43.5t52 -70t19 -95.5q0 -46 -13.5 -81t-34.5 -62.5t-47.5 -48.5t-52.5 -39q-35 -25 -62 -44t-46.5 -34t-32 -28t-18.5 -25h308v-124h-485q2 31 6.5 63.5t20.5 67t48 72t90 79.5
q48 35 82 60.5t55.5 48.5t31.5 46.5t10 53.5q0 18 -6 36t-18 32.5t-30.5 23.5t-43.5 9q-37 0 -57.5 -13.5t-30 -33.5t-12 -43.5t-2.5 -42.5h-136z" />
    <glyph glyph-name="three" unicode="3" 
d="M213 411h22q16 0 36.5 2t39 11.5t31 28.5t12.5 54q0 10 -3 25.5t-12.5 30t-27 25t-46.5 10.5q-36 0 -55.5 -14.5t-28.5 -34t-10.5 -39t-1.5 -28.5h-130q0 50 14 92t43.5 72t73.5 47t104 17q36 0 74.5 -10t71 -33t53.5 -61t21 -94q0 -27 -7.5 -49t-20 -39t-27.5 -28.5
t-30 -18.5v-2q9 -3 27 -12t36 -28t31 -49.5t13 -75.5q0 -50 -17.5 -92t-49.5 -72.5t-76.5 -47.5t-98.5 -17q-17 0 -41.5 2t-52 10t-55 23.5t-49.5 41.5t-35.5 65t-13.5 95h137l-1 -1q0 -14 3 -35.5t13.5 -41t31.5 -33.5t56 -14q42 0 73.5 29t31.5 88q0 36 -15.5 56.5
t-39.5 30.5t-52 12t-52 2v100z" />
    <glyph glyph-name="four" unicode="4" 
d="M526 157h-79v-157h-140v157h-280v121l261 432h159v-444h79v-109zM307 266q0 130 1.5 209t1.5 96h-2l-178 -305h177z" />
    <glyph glyph-name="five" unicode="5" 
d="M174 426q20 14 47.5 26.5t79.5 12.5q36 0 74 -13t69.5 -40.5t51.5 -71t20 -104.5q0 -36 -11 -80.5t-39.5 -83.5t-79 -65t-128.5 -26q-42 0 -82 12.5t-72.5 38.5t-53 65t-23.5 93h140q5 -44 28.5 -70.5t70.5 -26.5q51 0 78.5 38t27.5 95q0 24 -6 46.5t-18.5 40.5t-32 29
t-47.5 11q-7 0 -19 -1t-25 -6t-26.5 -15t-23.5 -29l-125 6l49 390h390v-118h-289z" />
    <glyph glyph-name="six" unicode="6" 
d="M380 228q0 34 -10 56.5t-25 36.5t-33 20t-34 6q-20 0 -39 -6.5t-34 -21t-24.5 -38t-9.5 -56.5q0 -58 30 -95t81 -37q19 0 37 7.5t31.5 24t21.5 42t8 61.5zM367 530q-3 30 -23 49t-59 19q-34 0 -56 -17.5t-35 -46t-18.5 -63.5t-7.5 -69l2 -2q7 10 17.5 20.5t26.5 19
t37.5 14t51.5 5.5q55 0 96 -19.5t68 -50.5t40 -70t13 -79q0 -58 -17 -106t-47.5 -82t-73.5 -52.5t-94 -18.5q-81 0 -131 31t-78 81t-38 114.5t-10 130.5q0 34 2.5 74.5t11.5 82t26 80t46.5 69t72.5 48.5t105 18q11 0 30 -2.5t40 -7.5t41.5 -14t33.5 -22q15 -14 25 -26.5
t17.5 -27t13 -33.5t10.5 -47h-139z" />
    <glyph glyph-name="seven" unicode="7" 
d="M528 590q-26 -28 -67 -80.5t-81.5 -127.5t-72.5 -171t-38 -211h-144q4 71 20 136.5t39 124t50.5 109t54.5 90.5t50.5 69t38.5 45h-353l3 124h500v-108z" />
    <glyph glyph-name="eight" unicode="8" 
d="M380 205q0 19 -5.5 38.5t-17.5 35.5t-32 26.5t-49 10.5q-19 0 -37 -6.5t-32 -20t-22.5 -34t-8.5 -49.5q0 -51 27.5 -82t75.5 -31q27 0 46.5 10.5t31.5 27t17.5 36.5t5.5 38zM524 211q0 -34 -12 -74t-40.5 -74.5t-76 -58t-117.5 -23.5q-69 0 -116 20t-76 51.5t-41.5 70
t-12.5 74.5q0 13 1.5 36t12 48.5t32 51t62.5 44.5q-42 21 -64 55t-22 84q0 45 17 81t47 61t70 38.5t87 13.5q55 0 97 -15t70.5 -40.5t43 -59t14.5 -70.5q0 -46 -19.5 -83t-62.5 -60q25 -13 45 -28.5t33.5 -35.5t20.5 -46.5t7 -60.5zM279 422q42 0 64.5 25t22.5 63
q0 41 -24 64.5t-58 23.5q-48 0 -72 -24.5t-24 -63.5q0 -16 6 -31.5t17 -28t28 -20.5t40 -8z" />
    <glyph glyph-name="nine" unicode="9" 
d="M183 164v-1q6 -37 28 -53.5t54 -16.5q22 0 42.5 10t37 33t27 61t10.5 94l-2 2q-24 -36 -61.5 -48t-73.5 -12q-51 0 -91 18t-67.5 48.5t-42 70.5t-14.5 85q0 65 18.5 113t50.5 79.5t76.5 47t96.5 15.5q62 0 104 -20t70 -52.5t43.5 -72.5t22.5 -80.5t8.5 -77.5t1.5 -62
q0 -103 -22.5 -173t-58.5 -112.5t-82.5 -60.5t-94.5 -18q-45 0 -83.5 12.5t-67.5 36.5t-47 58t-22 76h139zM170 475q0 -40 9 -65.5t23.5 -39.5t33.5 -19.5t39 -5.5q18 0 36.5 7t33.5 21t24 36.5t9 54.5q0 61 -26.5 96t-80.5 35q-14 0 -31 -4.5t-33 -17.5t-26.5 -36.5
t-10.5 -61.5z" />
    <glyph glyph-name="colon" unicode=":" horiz-adv-x="333" 
d="M242 366h-150v146h150v-146zM242 0h-150v146h150v-146z" />
    <glyph glyph-name="semicolon" unicode=";" horiz-adv-x="333" 
d="M242 366h-150v146h150v-146zM242 20q0 -46 -11.5 -78.5t-31.5 -54t-47 -35t-59 -20.5h-1v53q14 5 28.5 11.5t26 19t19.5 32.5t10 52h-84v146h150v-126z" />
    <glyph glyph-name="less" unicode="&#x3c;" horiz-adv-x="584" 
d="M546 -8l-508 216v90l508 216v-108l-363 -153l363 -153v-108z" />
    <glyph glyph-name="equal" unicode="=" horiz-adv-x="584" 
d="M544 87h-504v112h504v-112zM544 307h-504v112h504v-112z" />
    <glyph glyph-name="greater" unicode="&#x3e;" horiz-adv-x="584" 
d="M401 253l-363 153v108l508 -216v-90l-508 -216v108z" />
    <glyph glyph-name="question" unicode="?" horiz-adv-x="611" 
d="M384 0h-146v141h146v-141zM242 208q0 36 3 63t13.5 50t30.5 44.5t55 45.5q29 20 45.5 44t16.5 55q0 29 -9.5 48t-23.5 30.5t-31 16t-33 4.5q-34 0 -54.5 -11.5t-31.5 -28.5t-15.5 -37t-6.5 -38v-1h-141q0 65 22 110t57 72.5t77.5 39.5t83.5 12q15 0 40 -2t53 -9.5
t57.5 -21.5t52.5 -37.5t38 -58.5t15 -84q0 -30 -8 -55t-23.5 -47t-38 -41.5t-51.5 -40.5q-16 -12 -27.5 -22t-19 -23.5t-11 -31.5t-3.5 -45h-132z" />
    <glyph glyph-name="at" unicode="@" horiz-adv-x="975" 
d="M624 546h88l-58 -255q-2 -9 -4.5 -20.5t-2.5 -21.5q0 -9 3.5 -15t11.5 -6q20 0 40 12t36.5 35t26.5 55.5t10 73.5q0 61 -21 108t-58 79.5t-86.5 49t-107.5 16.5q-65 0 -117.5 -23t-89.5 -63.5t-57.5 -95t-20.5 -118.5q0 -67 22.5 -121.5t62 -93.5t94.5 -60t120 -21
q63 0 116.5 22t93.5 59h89q-53 -78 -132 -119.5t-173 -41.5q-81 0 -152.5 28.5t-124.5 79t-84 119.5t-31 151q0 80 30.5 149t83 120t123 80t149.5 29q68 0 131.5 -22t112.5 -62.5t78.5 -97.5t29.5 -127q0 -81 -30 -136.5t-71.5 -90t-84.5 -49.5t-69 -15q-22 0 -38.5 13
t-18.5 40l-2 1q-20 -22 -48 -38t-57 -16q-33 0 -62 14t-51 38t-35 55.5t-13 66.5q0 47 15.5 91.5t43.5 79t67.5 55.5t87.5 21q38 0 68.5 -15t52.5 -50zM581 376q0 37 -22.5 61t-57.5 24q-26 0 -47.5 -12.5t-37 -32t-24 -43.5t-8.5 -47q0 -39 20.5 -64t57.5 -25
q27 0 48.5 12.5t37.5 32.5t24.5 44.5t8.5 49.5z" />
    <glyph glyph-name="A" unicode="A" horiz-adv-x="722" 
d="M268 272h183l-89 284h-2zM178 0h-158l256 718h173l253 -718h-163l-46 148h-265z" />
    <glyph glyph-name="B" unicode="B" horiz-adv-x="722" 
d="M220 437h176q45 0 75.5 18.5t30.5 61.5q0 45 -29.5 61t-80.5 16h-172v-157zM220 124h184q55 0 85 25t30 80q0 24 -9.5 40.5t-24.5 27t-34.5 15t-39.5 4.5h-191v-192zM76 718h349q66 0 109 -18.5t67.5 -46t34.5 -59.5t10 -60q0 -39 -9.5 -64.5t-23 -42t-29 -25.5
t-26.5 -15q33 -12 54.5 -31t34 -42t17.5 -48.5t5 -52.5q0 -43 -16.5 -81.5t-45.5 -66.5q-15 -15 -32 -27t-42 -20.5t-61.5 -13t-91.5 -4.5h-304v718z" />
    <glyph glyph-name="C" unicode="C" horiz-adv-x="722" 
d="M534 483q-5 16 -12.5 37.5t-25 40.5t-46.5 32.5t-75 13.5q-27 0 -58 -10.5t-58 -38.5t-44.5 -77t-17.5 -125q0 -48 10 -92.5t31.5 -78.5t55 -54t81.5 -20q63 0 104 34.5t55 100.5h150q-11 -59 -36 -107.5t-64 -83.5t-92 -54.5t-120 -19.5q-72 0 -132 24t-103.5 71.5
t-68 118t-24.5 163.5q0 94 25.5 165t70 118.5t105 71.5t129.5 24q81 0 138 -25t94.5 -62.5t56 -82t21.5 -84.5h-150z" />
    <glyph glyph-name="D" unicode="D" horiz-adv-x="722" 
d="M223 124h146q46 0 77 21t50 55t27.5 77.5t8.5 87.5q0 79 -17 125t-41.5 69t-53.5 29t-53 6h-144v-470zM76 718h317q60 0 105.5 -16t78 -42.5t53.5 -61.5t33 -73t17 -76.5t5 -72.5q0 -38 -5.5 -81t-19 -85t-35.5 -80t-55.5 -67t-78.5 -46t-104 -17h-311v718z" />
    <glyph glyph-name="E" unicode="E" horiz-adv-x="667" 
d="M604 591h-381v-151h350v-127h-350v-186h398v-127h-545v718h528v-127z" />
    <glyph glyph-name="F" unicode="F" horiz-adv-x="611" 
d="M226 0h-150v718h511v-127h-361v-162h316v-127h-316v-302z" />
    <glyph glyph-name="G" unicode="G" horiz-adv-x="778" 
d="M413 387h300v-387h-100l-15 90q-14 -17 -32.5 -36t-44.5 -35t-62 -27t-85 -11q-65 0 -124.5 23.5t-105.5 70t-73 117t-27 165.5q0 73 20.5 141.5t63.5 121.5t109 85t156 32h2q82 0 140.5 -24t96.5 -60t56.5 -78.5t21.5 -79.5h-150q0 10 -9.5 30t-29 39.5t-49 34
t-69.5 14.5t-77.5 -14.5t-66 -45.5t-45.5 -80t-17 -118q0 -74 18.5 -121.5t48 -75.5t67 -39t75.5 -11q12 0 36.5 4.5t51 20.5t50.5 47.5t36 85.5h-167v121z" />
    <glyph glyph-name="H" unicode="H" horiz-adv-x="722" 
d="M221 322v-322h-150v718h150v-272h280v272h150v-718h-150v322h-280z" />
    <glyph glyph-name="I" unicode="I" horiz-adv-x="278" 
d="M214 0h-150v718h150v-718z" />
    <glyph glyph-name="J" unicode="J" 
d="M484 208q0 -115 -57 -170.5t-166 -55.5q-60 0 -101 12t-67.5 32.5t-41 48.5t-21 60t-7.5 67t-1 69h140q0 -42 2.5 -73.5t11.5 -52.5t26.5 -31.5t47.5 -10.5q29 0 46 8.5t25.5 23t10.5 33.5t2 40v510h150v-510z" />
    <glyph glyph-name="K" unicode="K" horiz-adv-x="722" 
d="M237 0h-150v718h150v-292l274 292h194l-293 -294l310 -424h-193l-222 315l-70 -72v-243z" />
    <glyph glyph-name="L" unicode="L" horiz-adv-x="611" 
d="M226 130h357v-130h-507v718h150v-588z" />
    <glyph glyph-name="M" unicode="M" horiz-adv-x="833" 
d="M765 0h-140v600h-2l-134 -600h-147l-131 600h-2v-600h-140v718h219l130 -566h2l128 566h217v-718z" />
    <glyph glyph-name="N" unicode="N" horiz-adv-x="722" 
d="M514 718h140v-718h-150l-293 512h-2v-512h-140v718h158l285 -500h2v500z" />
    <glyph glyph-name="O" unicode="O" horiz-adv-x="778" 
d="M194 359q0 -75 19 -124t48 -77t63.5 -39t64.5 -11t64.5 11t63.5 39t48 77t19 124t-19 124t-48 77t-63.5 39t-64.5 11t-64.5 -11t-63.5 -39t-48 -77t-19 -124zM44 359q0 84 19 145t49.5 103t68.5 67.5t76.5 39.5t73 18.5t58.5 4.5t58.5 -4.5t73 -18.5t76.5 -39.5
t68.5 -67.5t49.5 -103t19 -145t-19 -145t-49.5 -103t-68.5 -67.5t-76.5 -39.5t-73 -18.5t-58.5 -4.5t-58.5 4.5t-73 18.5t-76.5 39.5t-68.5 67.5t-49.5 103t-19 145z" />
    <glyph glyph-name="P" unicode="P" horiz-adv-x="667" 
d="M365 383q42 0 64.5 13t33 31t12.5 37t2 31q0 53 -31 76t-101 23h-119v-211h139zM226 0h-150v718h328q52 0 93.5 -16t70 -46t44 -72.5t15.5 -95.5q0 -24 -8.5 -63t-33.5 -76t-70 -63.5t-117 -26.5h-172v-259z" />
    <glyph glyph-name="Q" unicode="Q" horiz-adv-x="778" 
d="M658 -52l-85 81q-26 -15 -52 -24.5t-50 -14.5t-45 -7t-37 -2q-24 0 -58.5 4.5t-73 18.5t-76.5 39.5t-68.5 67.5t-49.5 103t-19 145t19 145t49.5 103t68.5 67.5t76.5 39.5t73 18.5t58.5 4.5t58.5 -4.5t73 -18.5t76.5 -39.5t68.5 -67.5t49.5 -103t19 -145q0 -89 -21 -151.5
t-54 -104.5l78 -74zM475 276l76 -71q15 28 24 65.5t9 88.5q0 75 -19 124t-48 77t-63.5 39t-64.5 11t-64.5 -11t-63.5 -39t-48 -77t-19 -124t19 -124t48 -77t63.5 -39t64.5 -11q19 0 40 4t41 15l-72 68z" />
    <glyph glyph-name="R" unicode="R" horiz-adv-x="722" 
d="M399 402q59 0 87.5 22t28.5 76q0 14 -4 30.5t-15.5 30.5t-32 23.5t-53.5 9.5h-187v-192h176zM76 718h363q72 0 116 -23t68.5 -55.5t33 -67t8.5 -57.5q0 -60 -28.5 -106.5t-82.5 -64.5q22 -10 39 -20.5t28.5 -30t17.5 -50.5t6 -81q0 -39 0.5 -65t3.5 -41.5t9.5 -24
t18.5 -12.5v-19h-166q-8 26 -12 57.5t-4 87.5q0 37 -2.5 62.5t-14 42t-35 24t-65.5 7.5h-155v-281h-147v718z" />
    <glyph glyph-name="S" unicode="S" horiz-adv-x="667" 
d="M183 221q0 -15 5.5 -35t21.5 -38t46 -30.5t79 -12.5q27 0 53.5 4t48 14t35 28t13.5 47q0 21 -9.5 35t-27 23.5t-41.5 16.5t-52 14l-77 18q-44 10 -85 22t-72.5 34.5t-51 59t-19.5 95.5q0 20 4.5 44t15.5 48.5t30.5 48t50.5 41t74 28.5t101 11q82 0 136 -24t86 -59
t45 -75.5t13 -73.5h-144q-2 12 -6.5 30.5t-19.5 35.5t-43.5 29.5t-77.5 12.5q-21 0 -43.5 -4.5t-40.5 -14.5t-29.5 -26.5t-11.5 -40.5q0 -21 7.5 -34.5t19 -21.5t25 -12t24.5 -7l175 -43q37 -9 71 -22t60 -35t41.5 -55t15.5 -81q0 -54 -16.5 -92.5t-43 -64.5t-58.5 -41.5
t-63.5 -23.5t-58.5 -10.5t-43 -2.5q-98 0 -158.5 25t-93.5 61.5t-44 78.5t-11 75h144z" />
    <glyph glyph-name="T" unicode="T" horiz-adv-x="611" 
d="M381 0h-150v591h-217v127h584v-127h-217v-591z" />
    <glyph glyph-name="U" unicode="U" horiz-adv-x="722" 
d="M651 251q0 -71 -20.5 -122t-59 -84t-93 -48.5t-122.5 -15.5q-25 0 -54.5 3.5t-60 13.5t-60 26.5t-53.5 43.5q-29 33 -41.5 76.5t-14.5 97.5v476h153v-466q0 -38 10 -65t27.5 -44.5t41 -26t49.5 -8.5q78 0 111.5 35.5t33.5 101.5v473h153v-467z" />
    <glyph glyph-name="V" unicode="V" horiz-adv-x="667" 
d="M492 718h156l-244 -718h-143l-242 718h161l154 -544h2z" />
    <glyph glyph-name="W" unicode="W" horiz-adv-x="944" 
d="M16 718h160q23 -98 39.5 -169.5t28 -123t19 -86.5t12.5 -60.5t8.5 -45.5t6.5 -40h2q5 28 10.5 60.5t16 88.5t27.5 145.5t46 230.5h159q21 -99 36 -169.5t25.5 -121t17.5 -85t12 -60t8.5 -46t7.5 -43.5h2q3 17 6.5 35t8.5 43.5t13 61.5t20 88.5t29 125t40 171.5h152
l-202 -718h-144q-19 88 -32.5 154t-24 117t-18 89.5t-13.5 71.5t-11.5 63t-11.5 65h-2q-5 -35 -10.5 -64t-11 -60.5t-13 -68.5t-18 -88t-25 -119t-33.5 -160h-140z" />
    <glyph glyph-name="X" unicode="X" horiz-adv-x="667" 
d="M653 0h-183l-136 245l-145 -245h-175l232 367l-219 351h179l128 -232l131 232h173l-219 -345z" />
    <glyph glyph-name="Y" unicode="Y" horiz-adv-x="667" 
d="M413 0h-150v271l-248 447h177l149 -312l142 312h170l-240 -449v-269z" />
    <glyph glyph-name="Z" unicode="Z" horiz-adv-x="611" 
d="M586 0h-561v127l371 464h-361v127h549v-118l-376 -473h378v-127z" />
    <glyph glyph-name="bracketleft" unicode="[" horiz-adv-x="333" 
d="M185 -100h124v-96h-246v918h246v-96h-124v-726z" />
    <glyph glyph-name="backslash" unicode="\" horiz-adv-x="278" 
d="M-33 737h117l227 -756h-117z" />
    <glyph glyph-name="bracketright" unicode="]" horiz-adv-x="333" 
d="M148 626h-124v96h246v-918h-246v96h124v726z" />
    <glyph glyph-name="asciicircum" unicode="^" horiz-adv-x="584" 
d="M62 323l180 375h100l180 -375h-110l-120 263l-121 -263h-109z" />
    <glyph glyph-name="underscore" unicode="_" 
d="M556 -75v-50h-556v50h556z" />
    <glyph glyph-name="grave" unicode="`" horiz-adv-x="333" 
d="M-23 750h154l94 -146h-101z" />
    <glyph glyph-name="a" unicode="a" 
d="M359 259q-11 -8 -31 -15t-64 -14q-20 -3 -37 -8t-30 -13.5t-20.5 -22.5t-7.5 -36q0 -18 6.5 -30.5t16 -20t21 -10.5t21.5 -3q23 0 45.5 7.5t40 21t28.5 33t11 43.5v68zM496 104q0 -47 9 -63t22 -20v-21h-151q-3 9 -5 16t-3.5 13.5t-2.5 14.5t-2 19q-12 -12 -27 -26
t-35.5 -25t-47 -18.5t-62.5 -7.5q-30 0 -59 8.5t-52 27.5t-37 48.5t-14 70.5q0 39 11.5 68.5t32.5 50.5t49.5 33.5t61.5 17.5l126 19q16 2 32.5 10.5t16.5 31.5q0 22 -9.5 34.5t-23 18.5t-30 7.5t-29.5 1.5q-26 0 -42.5 -7t-25.5 -18t-13 -24t-5 -25h-135q6 61 28.5 98
t55.5 56.5t73 25.5t81 6q28 0 64.5 -5.5t69.5 -22t55.5 -47t22.5 -79.5v-288z" />
    <glyph glyph-name="b" unicode="b" horiz-adv-x="611" 
d="M201 463h2q8 13 20.5 27.5t31 27t43.5 20.5t59 8q44 0 84 -17t70.5 -51t48.5 -85.5t18 -120.5q0 -55 -13 -106.5t-40 -91.5t-69.5 -64t-101.5 -24q-44 0 -86 18t-68 63h-2v-67h-137v718h140v-255zM434 262q0 31 -6 60.5t-20 52.5t-37 36.5t-56 13.5q-36 0 -59.5 -15
t-37 -39t-18.5 -54.5t-5 -62.5q0 -30 7 -57.5t22 -48.5t38.5 -34t56.5 -13q34 0 56 16.5t35 40.5t18.5 52t5.5 52z" />
    <glyph glyph-name="c" unicode="c" 
d="M523 194q-1 -14 -6 -34.5t-16 -43.5t-28.5 -46.5t-44 -42t-63 -30t-85.5 -11.5q-75 0 -123 25.5t-75 65t-37.5 86t-10.5 88.5q0 64 14.5 118.5t45.5 93.5t79 61t116 22q31 0 70 -8.5t74 -31t60.5 -62.5t30.5 -102h-142q-2 13 -7.5 28t-15.5 28t-25.5 21.5t-37.5 8.5h-7
q-33 0 -54.5 -15t-34 -37.5t-17.5 -49.5t-5 -52q0 -22 2 -51.5t12.5 -56.5t32 -46t61.5 -19q27 0 45 11t29 26t16 31t5 25h142z" />
    <glyph glyph-name="d" unicode="d" horiz-adv-x="611" 
d="M178 262q0 -24 5.5 -52t18.5 -52t35 -40.5t56 -16.5q33 0 56.5 13t38.5 34t22 48.5t7 57.5q0 32 -5.5 62.5t-19 54.5t-36.5 39t-59 15q-33 0 -56 -13.5t-37 -36.5t-20 -52.5t-6 -60.5zM551 0h-137v67h-2q-26 -45 -68 -63t-86 -18q-59 0 -101.5 24t-69.5 64t-40 91.5
t-13 106.5q0 69 18 120.5t48.5 85.5t70.5 51t84 17q34 0 59 -8t43.5 -20.5t31 -27t20.5 -27.5h2v255h140v-718z" />
    <glyph glyph-name="e" unicode="e" 
d="M384 319q-3 32 -14 53.5t-26 34.5t-33 18.5t-35 5.5q-50 0 -76.5 -29.5t-32.5 -82.5h217zM522 156q-14 -48 -39.5 -80.5t-57.5 -52.5t-67.5 -28.5t-69.5 -8.5q-56 0 -104.5 14.5t-84 48.5t-56 90t-20.5 138q0 16 2.5 42t11.5 56t26 60.5t45.5 55t70 40t99.5 15.5
q39 0 83 -11.5t81 -44t61.5 -89.5t24.5 -148v-25h-365q1 -15 5 -37t16.5 -43t37 -35.5t66.5 -14.5q29 0 55.5 14.5t34.5 43.5h144z" />
    <glyph glyph-name="f" unicode="f" horiz-adv-x="333" 
d="M227 0h-140v432h-77v100h77v43q0 83 42 117.5t114 34.5q31 0 47 -0.5t25 -1.5v-113h-39q-18 0 -28 -3t-14.5 -10t-5.5 -18.5t-1 -27.5v-21h91v-100h-91v-432z" />
    <glyph glyph-name="g" unicode="g" horiz-adv-x="611" 
d="M184 263q0 -26 5.5 -52t18.5 -47.5t34.5 -35t52.5 -13.5q36 0 59 14t36.5 36t18.5 49.5t5 54.5q0 32 -8 60.5t-23 49.5t-37.5 33.5t-51.5 12.5q-20 0 -39.5 -8t-35 -26.5t-25.5 -50t-10 -77.5zM553 532v-504q0 -23 -1.5 -50t-10 -54.5t-25 -52.5t-46.5 -44.5t-75.5 -31.5
t-110.5 -12q-41 0 -81.5 9t-73.5 28.5t-54 50t-23 72.5h152q2 -10 6.5 -20t14.5 -17.5t28.5 -12t48.5 -4.5q57 0 84 28.5t27 93.5v64l-2 2q-9 -15 -20.5 -29.5t-28 -26t-39.5 -18t-54 -6.5q-48 0 -90 17t-72.5 51t-48.5 85.5t-18 121.5q0 69 18 120.5t48.5 85.5t70.5 51
t84 17q37 0 63.5 -9.5t45 -24t30 -30.5t17.5 -29h2v79h134z" />
    <glyph glyph-name="h" unicode="h" horiz-adv-x="611" 
d="M546 0h-140v323q0 15 -1.5 33t-10.5 34t-27.5 27t-51.5 11q-47 0 -78.5 -31t-31.5 -92v-305h-140v718h140v-255h2q7 16 21 31.5t34 26.5t45 18t54 7q39 0 73 -11.5t58.5 -34t39 -55.5t14.5 -77v-368z" />
    <glyph glyph-name="i" unicode="i" horiz-adv-x="278" 
d="M209 595h-140v130h140v-130zM209 532v-532h-140v532h140z" />
    <glyph glyph-name="j" unicode="j" horiz-adv-x="278" 
d="M209 595h-140v130h140v-130zM209 -56q0 -52 -11.5 -83.5t-33.5 -48t-54 -21.5t-72 -5h-35v112h25q5 0 12 1t13.5 5.5t11 14.5t4.5 28v585h140v-588z" />
    <glyph glyph-name="k" unicode="k" 
d="M209 0h-140v718h140v-388l176 202h172l-188 -206l193 -326h-168l-127 228l-58 -60v-168z" />
    <glyph glyph-name="l" unicode="l" horiz-adv-x="278" 
d="M209 0h-140v718h140v-718z" />
    <glyph glyph-name="m" unicode="m" horiz-adv-x="889" 
d="M826 0h-140v323q0 59 -22.5 82t-53.5 23q-53 0 -74 -31t-21 -78v-319h-140v320q0 17 -1.5 36t-9 35t-25 26.5t-48.5 10.5q-25 0 -41.5 -8t-26.5 -22t-14.5 -33t-4.5 -41v-324h-140v532h134v-78h2q7 13 18 29t29 30t43.5 23.5t60.5 9.5q29 0 50.5 -5.5t39 -16t31 -26.5
t27.5 -37q7 10 18 24.5t28 28t40.5 23t55.5 9.5q39 0 73 -11.5t58.5 -34t39 -55.5t14.5 -77v-368z" />
    <glyph glyph-name="n" unicode="n" horiz-adv-x="611" 
d="M546 0h-140v323q0 15 -1.5 33t-10.5 34t-27.5 27t-51.5 11q-47 0 -78.5 -31t-31.5 -92v-305h-140v532h134v-78h2q7 12 18.5 28t30.5 30t46 24t65 10q39 0 73 -11.5t58.5 -34t39 -55.5t14.5 -77v-368z" />
    <glyph glyph-name="o" unicode="o" horiz-adv-x="611" 
d="M434 266q0 25 -5 53.5t-18.5 52.5t-39 40t-65.5 16q-41 0 -66 -16t-38.5 -40t-18.5 -52.5t-5 -53.5q0 -26 5 -54.5t18.5 -52.5t38.5 -39.5t66 -15.5q40 0 65.5 15.5t39 39.5t18.5 52.5t5 54.5zM578 266q0 -72 -22.5 -125t-60 -87.5t-86.5 -51t-103 -16.5t-103 16.5
t-86.5 51t-60 87.5t-22.5 125t22.5 124.5t60 87t86.5 51.5t103 17t103 -17t86.5 -51.5t60 -87t22.5 -124.5z" />
    <glyph glyph-name="p" unicode="p" horiz-adv-x="611" 
d="M196 455h2q10 16 22.5 32t31.5 29t44.5 21.5t60.5 8.5q44 0 84 -17t70.5 -51t48.5 -85.5t18 -120.5q0 -55 -13 -106.5t-40 -91.5t-69.5 -64t-101.5 -24q-37 0 -62.5 8.5t-43 21.5t-28 27t-16.5 25h-2v-275h-140v739h134v-77zM196 254q0 -30 6.5 -57.5t21.5 -48.5
t38.5 -34t56.5 -13q34 0 56 16.5t35 40.5t18.5 52t5.5 52q0 31 -6 60.5t-20 52.5t-37 36.5t-56 13.5q-36 0 -59 -15t-36.5 -39t-18.5 -54.5t-5 -62.5z" />
    <glyph glyph-name="q" unicode="q" horiz-adv-x="611" 
d="M178 256q0 -72 28.5 -112t91.5 -40q50 0 83.5 38.5t33.5 120.5q0 55 -14.5 87.5t-34.5 49t-40 21t-31 4.5q-20 0 -41 -7.5t-38 -26.5t-27.5 -51.5t-10.5 -83.5zM552 532v-739h-140v273h-2q-22 -41 -60 -60.5t-91 -19.5q-63 0 -106 26t-69.5 66t-38 87.5t-11.5 89.5
q0 55 13 107.5t41.5 93.5t72.5 65.5t106 24.5q34 0 59 -9.5t42.5 -24t28.5 -30.5t19 -29h2v79h134z" />
    <glyph glyph-name="r" unicode="r" horiz-adv-x="389" 
d="M64 532h134v-92h2q11 20 23 39t29 34t39.5 24t54.5 9q7 0 13.5 -0.5t13.5 -1.5v-142q-9 2 -20 2h-20q-41 0 -66 -11.5t-39 -30t-19 -41t-5 -44.5v-277h-140v532z" />
    <glyph glyph-name="s" unicode="s" 
d="M366 370q-2 13 -6.5 25.5t-14.5 22.5t-27.5 16t-45.5 6q-29 0 -46 -5t-26 -12.5t-11.5 -16.5t-2.5 -18q0 -21 24.5 -32t61.5 -19t80.5 -16.5t80.5 -26t61.5 -47t24.5 -78.5q0 -58 -24.5 -94t-60.5 -55.5t-76.5 -26.5t-71.5 -7q-45 0 -90.5 9t-81.5 30t-59.5 56.5
t-24.5 88.5h144q0 -34 25 -56t91 -22q27 0 44.5 6t27 14t13.5 17.5t4 17.5q0 22 -24.5 33.5t-61 19.5t-79.5 16.5t-79.5 25.5t-61 46.5t-24.5 79.5q0 29 10 60.5t35 57.5t66.5 43t103.5 17q39 0 79.5 -6.5t74.5 -25.5t57.5 -53.5t27.5 -90.5h-137z" />
    <glyph glyph-name="t" unicode="t" horiz-adv-x="333" 
d="M222 532h87v-100h-87v-289q0 -12 1 -20t6.5 -13t17.5 -7.5t33 -2.5q7 0 14 0.5t15 1.5v-106q-17 -1 -33 -1.5t-33 -0.5h-18q-45 0 -73 8.5t-43.5 23.5t-21 36t-5.5 47v323h-72v100h72v144h140v-144z" />
    <glyph glyph-name="u" unicode="u" horiz-adv-x="611" 
d="M545 0h-134v75h-2q-24 -43 -65 -66t-97 -23q-39 0 -72.5 11.5t-57.5 35.5t-37.5 61t-13.5 88v350h140v-330q0 -31 8 -50t21 -29.5t29.5 -14.5t32.5 -4q17 0 36 5.5t35 19.5t26.5 37t10.5 59v307h140v-532z" />
    <glyph glyph-name="v" unicode="v" 
d="M351 0h-147l-191 532h156l110 -392h2l113 392h149z" />
    <glyph glyph-name="w" unicode="w" horiz-adv-x="778" 
d="M616 0h-144l-83 388h-2l-83 -388h-144l-150 532h149l83 -382h2l75 382h141l80 -382h2l83 382h144z" />
    <glyph glyph-name="x" unicode="x" 
d="M541 0h-173l-92 160l-92 -160h-169l181 271l-174 261h170l90 -155l88 155h165l-175 -261z" />
    <glyph glyph-name="y" unicode="y" 
d="M10 532h156l114 -392h2l109 392h148l-187 -539q-21 -58 -39 -102t-39 -67.5t-49.5 -30.5t-74.5 -7q-14 0 -31 0.5t-32 1.5v112q5 -1 11.5 -1.5t15.5 -0.5q19 0 34 2t26 10.5t19 24.5t13 43z" />
    <glyph glyph-name="z" unicode="z" horiz-adv-x="500" 
d="M201 115h279v-115h-460v109l273 311h-254v112h431v-115z" />
    <glyph glyph-name="braceleft" unicode="{" horiz-adv-x="389" 
d="M365 -196h-83q-24 0 -48.5 8t-45 25t-33.5 43t-13 61v200q0 23 -11 38t-26 23.5t-31 11.5t-26 3v92q10 0 26 3t31 11.5t26 23.5t11 38v200q0 35 13 61t33.5 43t45 25t48.5 8h83v-88h-45q-19 0 -30 -6t-17 -15.5t-7.5 -21.5t-1.5 -23v-196q-4 -32 -17.5 -52.5t-31 -32.5
t-35.5 -17t-30 -6v-2q12 -1 30 -6t35.5 -17t31 -32.5t17.5 -52.5v-196q0 -11 1.5 -23t7.5 -21.5t17 -15.5t30 -6h45v-88z" />
    <glyph glyph-name="bar" unicode="|" horiz-adv-x="280" 
d="M196 775v-1000h-112v1000h112z" />
    <glyph glyph-name="braceright" unicode="}" horiz-adv-x="389" 
d="M341 217q-11 0 -27 -3t-31 -11.5t-25.5 -23.5t-10.5 -38v-200q0 -35 -13 -61t-33.5 -43t-45 -25t-48.5 -8h-83v88h45q19 0 30 6t17 15.5t7.5 21.5t1.5 23v196q4 32 17.5 52.5t31 32.5t35.5 17t30 6v2q-12 1 -30 6t-35.5 17t-31 32.5t-17.5 52.5v196q0 11 -1.5 23
t-7.5 21.5t-17 15.5t-30 6h-45v88h83q24 0 48.5 -8t45 -25t33.5 -43t13 -61v-200q0 -23 10.5 -38t25.5 -23.5t31 -11.5t27 -3v-92z" />
    <glyph glyph-name="asciitilde" unicode="~" horiz-adv-x="584" 
d="M523 253q-11 -16 -23.5 -31.5t-27 -27.5t-33 -19.5t-41.5 -7.5q-28 0 -52.5 9.5t-49.5 23.5q-24 14 -52 25t-63 11q-17 0 -29.5 -6.5t-23 -17t-18 -23.5t-13.5 -26l-36 90q8 16 19.5 31.5t26.5 27.5t34.5 19.5t44.5 7.5q26 0 54 -9.5t57 -22.5q28 -12 55 -24.5t47 -12.5
q15 0 27.5 6.5t23 17t19.5 23.5l18 26z" />
    <glyph glyph-name="uni00A0" unicode="&#xa0;" horiz-adv-x="278" 
 />
    <glyph glyph-name="exclamdown" unicode="&#xa1;" horiz-adv-x="333" 
d="M130 333h74l40 -336v-183h-154v183zM94 532h146v-141h-146v141z" />
    <glyph glyph-name="cent" unicode="&#xa2;" 
d="M382 342q-3 16 -10.5 35t-23.5 33l-87 -305q9 -4 25 -4q27 0 45 11t29 26t16 31t5 25h142q-1 -14 -6 -34.5t-16 -43.5t-28.5 -46.5t-44 -42t-63 -30t-85.5 -11.5q-14 0 -26.5 1t-24.5 3l-31 -108h-52l34 120q-44 16 -72 44.5t-44.5 62.5t-23 71t-6.5 71q0 64 14.5 118.5
t45.5 93.5t79 61t116 22q21 0 45 -3l24 85h52l-28 -98q25 -9 49.5 -23.5t44 -37.5t32.5 -54t16 -73h-142zM301 428h-12q-33 0 -54.5 -15t-34 -37.5t-17.5 -49.5t-5 -52q0 -15 0.5 -34.5t4.5 -39.5t11.5 -38.5t21.5 -32.5z" />
    <glyph glyph-name="sterling" unicode="&#xa3;" 
d="M376 321h-119q2 -14 3.5 -26.5t1.5 -26.5q0 -5 -0.5 -16t-4.5 -26t-13 -32.5t-25 -36.5q-6 -8 -22.5 -23t-36.5 -31l2 -2q32 13 59 19.5t54 6.5q22 0 38 -3t33 -8q14 -5 29 -9.5t24 -4.5q26 0 54.5 12t46.5 24l41 -109q-27 -17 -65 -31t-87 -14q-10 0 -23 1.5t-26.5 4
t-26 6t-21.5 6.5q-32 11 -53 16.5t-44 5.5q-10 0 -19 -1.5t-21 -5t-28.5 -10.5t-40.5 -18l-54 97q6 2 24 15t37.5 33t34.5 45.5t15 52.5q0 22 -7.5 48.5t-15.5 40.5h-92v60h58q-12 26 -20 44.5t-12.5 34t-6.5 30t-2 33.5q0 27 12 61t40 63.5t74 50t113 20.5q39 0 81 -10
t77 -36t58 -71t25 -114h-131q-4 25 -9.5 47t-17 38t-31.5 25t-53 9q-29 0 -48 -10t-30 -24.5t-15.5 -30t-4.5 -27.5q0 -7 1 -14.5t5.5 -21t14.5 -36.5t27 -61h143v-60z" />
    <glyph glyph-name="currency" unicode="&#xa4;" 
d="M95 240q-14 23 -22.5 52.5t-8.5 64.5q0 33 9 64t22 51l-98 98l66 66l98 -98q23 14 53.5 23.5t63.5 9.5q35 0 65 -9.5t52 -23.5l98 98l66 -66l-98 -98q14 -22 23.5 -52t9.5 -63q0 -35 -9.5 -65t-23.5 -52l98 -98l-66 -66l-98 98q-22 -14 -52 -23.5t-65 -9.5
q-33 0 -63.5 9.5t-53.5 23.5l-98 -98l-66 66zM278 244q47 0 75.5 32.5t28.5 80.5t-28.5 79.5t-75.5 31.5t-74.5 -31.5t-27.5 -79.5t27.5 -80.5t74.5 -32.5z" />
    <glyph glyph-name="yen" unicode="&#xa5;" 
d="M549 345h-165l-38 -75h203v-60h-204v-210h-127v210h-203v60h203l-40 75h-163v60h131l-155 293h150l144 -294l138 294h142l-150 -293h134v-60z" />
    <glyph glyph-name="brokenbar" unicode="&#xa6;" horiz-adv-x="280" 
d="M84 200h112v-350h-112v350zM84 700h112v-350h-112v350z" />
    <glyph glyph-name="section" unicode="&#xa7;" 
d="M195 383q-12 -4 -20 -12t-13 -16.5t-7.5 -16.5t-2.5 -13q0 -23 13 -37t33 -25l157 -84q20 11 31.5 27t11.5 39t-17.5 38t-39.5 26zM402 431q25 -12 46.5 -26.5t38 -33.5t26 -44t9.5 -59q0 -9 -5 -26.5t-16 -37.5t-29 -39t-45 -31q9 -7 19.5 -18.5t20 -27.5t16 -36.5
t6.5 -45.5q0 -48 -18.5 -83.5t-48.5 -59t-69 -35.5t-80 -12q-67 0 -108 22.5t-63.5 53t-30.5 62t-8 49.5h132q1 -14 6 -28.5t14.5 -26t26 -19t41.5 -7.5q23 0 37 8.5t22 19.5t10.5 23t2.5 20q0 26 -15.5 40t-43.5 28l-153 78q-27 13 -47 28t-34 33.5t-21 42.5t-7 57
q0 47 27 78.5t66 53.5q-17 16 -34.5 44.5t-17.5 71.5q0 34 13.5 66.5t39 57.5t63 40t86.5 15q35 0 70 -8.5t63.5 -29.5t47.5 -56t21 -89h-127q-2 35 -21 56t-57 21q-35 0 -53.5 -18t-18.5 -38q0 -17 8.5 -29.5t29.5 -23.5z" />
    <glyph glyph-name="dieresis" unicode="&#xa8;" horiz-adv-x="333" 
d="M327 614h-126v115h126v-115zM132 614h-126v115h126v-115z" />
    <glyph glyph-name="copyright" unicode="&#xa9;" horiz-adv-x="737" 
d="M563 303q-6 -38 -22.5 -67t-40.5 -49t-53.5 -30.5t-62.5 -10.5q-47 0 -85.5 16.5t-65.5 46t-42 69t-15 85.5t14 86t41 68.5t65 45t86 16.5q68 0 116.5 -38.5t60.5 -114.5h-86q-7 35 -33 50.5t-58 15.5q-49 0 -76 -34.5t-27 -92.5q0 -28 7.5 -52t21.5 -42t33.5 -28
t42.5 -10q37 0 61.5 17.5t27.5 52.5h90zM640 360q0 65 -21.5 118.5t-58.5 91.5t-86.5 59t-104.5 21q-56 0 -105.5 -21t-86.5 -59t-58 -91.5t-21 -118.5t21 -119t57.5 -92t85.5 -59t105 -21h2v-1q55 0 104.5 21t86.5 59.5t58.5 92t21.5 119.5zM749 360q0 -90 -31.5 -160
t-84 -119t-121 -74.5t-143.5 -25.5t-144 25.5t-121.5 74.5t-83.5 119t-31 160t31 160t83.5 118t121.5 73.5t144 25.5t143.5 -25.5t121 -73.5t84 -118t31.5 -160z" />
    <glyph glyph-name="ordfeminine" unicode="&#xaa;" horiz-adv-x="370" 
d="M238 565q-7 -5 -20 -9t-42 -8q-26 -4 -43 -13.5t-17 -35.5q0 -21 13.5 -29t27.5 -8q30 0 55.5 17t25.5 46v40zM326 471q0 -28 6.5 -37.5t14.5 -11.5v-13h-98q-4 11 -5 17.5t-3 20.5q-8 -8 -17.5 -16t-23 -14.5t-31 -11t-40.5 -4.5q-20 0 -39 5t-34 16.5t-24.5 29
t-9.5 42.5q0 47 29 72.5t73 31.5l82 11q11 2 21.5 5.5t10.5 17.5q0 12 -6 19t-15 10.5t-19.5 4t-19.5 0.5q-17 0 -27.5 -4t-16.5 -10t-8.5 -13t-3.5 -14h-87q4 37 18.5 59t35.5 34t47 15.5t53 3.5q18 0 42 -3.5t45 -13.5t35.5 -28t14.5 -48v-173z" />
    <glyph glyph-name="guillemotleft" unicode="&#xab;" 
d="M368 280l100 -88v-116l-167 144v120l167 144v-116zM155 280l100 -88v-116l-167 144v120l167 144v-116z" />
    <glyph glyph-name="logicalnot" unicode="&#xac;" horiz-adv-x="584" 
d="M432 307h-392v112h504v-311h-112v199z" />
    <glyph glyph-name="uni00AD" unicode="&#xad;" horiz-adv-x="333" 
d="M306 215h-279v130h279v-130z" />
    <glyph glyph-name="registered" unicode="&#xae;" horiz-adv-x="737" 
d="M639 359q0 65 -21.5 118.5t-58.5 91.5t-86 59t-104 21q-56 0 -105.5 -21t-86.5 -59t-58 -91.5t-21 -118.5t21 -118.5t57.5 -91.5t85.5 -59t105 -21h2v-1q55 0 104 21t86 59t58.5 92t21.5 119zM748 359q0 -90 -31 -160t-83.5 -118.5t-121 -74t-143.5 -25.5t-144 25.5
t-121.5 74t-83.5 118.5t-31 160t31 160t83.5 118.5t121.5 74t144 25.5t143.5 -25.5t121 -74t83.5 -118.5t31 -160zM383 396q29 0 45.5 9.5t16.5 43.5q0 16 -7.5 25t-19 13.5t-25.5 5.5t-26 1h-61v-98h77zM306 156h-87v407h152q79 0 123 -26.5t44 -96.5q0 -28 -7.5 -47.5
t-21 -32t-31.5 -19t-38 -7.5l104 -178h-103l-94 171h-41v-171z" />
    <glyph glyph-name="macron" unicode="&#xaf;" horiz-adv-x="333" 
d="M339 604h-345v74h345v-74z" />
    <glyph glyph-name="degree" unicode="&#xb0;" horiz-adv-x="400" 
d="M113 569q0 -36 25.5 -61.5t61.5 -25.5t61.5 25.5t25.5 61.5t-25.5 61.5t-61.5 25.5t-61.5 -25.5t-25.5 -61.5zM57 569q0 30 11 56t30.5 45.5t45.5 30.5t56 11t56 -11t45.5 -30.5t30.5 -45.5t11 -56t-11 -56t-30.5 -45.5t-45.5 -30.5t-56 -11t-56 11t-45.5 30.5
t-30.5 45.5t-11 56z" />
    <glyph glyph-name="plusminus" unicode="&#xb1;" horiz-adv-x="584" 
d="M40 112h504v-112h-504v112zM236 506h112v-125h196v-112h-196v-126h-112v126h-196v112h196v125z" />
    <glyph glyph-name="twosuperior" unicode="&#xb2;" horiz-adv-x="333" 
d="M14 558q0 52 18 82.5t42.5 46t50 19.5t40.5 4q33 0 62 -9t50 -26.5t33.5 -42.5t12.5 -57q0 -28 -8 -49.5t-21 -38.5t-28.5 -29.5t-30.5 -21.5q-45 -27 -67 -44.5t-30 -26.5h186v-82h-315q1 19 4.5 39t14 41t30.5 43.5t54 45.5q31 21 53 36.5t36 29.5t20.5 28t6.5 32
q0 2 0.5 3t0.5 2q0 15 -15 31.5t-45 16.5q-24 0 -37.5 -8t-20 -19.5t-8 -24t-1.5 -21.5h-88z" />
    <glyph glyph-name="threesuperior" unicode="&#xb3;" horiz-adv-x="333" 
d="M16 573q0 60 37.5 98.5t115.5 38.5q23 0 48.5 -6t46.5 -20t34.5 -36.5t13.5 -56.5t-17.5 -54t-37.5 -28v-2q6 -2 17.5 -7t23 -16.5t20 -30t8.5 -45.5q0 -30 -11.5 -55t-32 -43.5t-49.5 -28.5t-64 -10q-17 0 -44 3.5t-53 17.5t-45 42.5t-19 78.5h89q0 -9 2 -20.5t8.5 -22
t20 -17.5t36.5 -7q28 0 46 13.5t18 48.5q0 21 -9.5 33t-24 18t-32 7t-33.5 1v64h15q10 0 22.5 1t24 6t19 15.5t7.5 30.5q0 6 -1.5 14.5t-7 16.5t-16 14t-29.5 6q-23 0 -35.5 -8t-18.5 -18.5t-7 -21t-1 -14.5h-85z" />
    <glyph glyph-name="acute" unicode="&#xb4;" horiz-adv-x="333" 
d="M209 604h-101l94 146h154z" />
    <glyph glyph-name="mu" unicode="&#xb5;" horiz-adv-x="611" 
d="M412 0v75h-2q-19 -43 -46 -66t-67 -23q-28 0 -52 12.5t-40 44.5v-250h-140v739h140v-310q0 -37 8.5 -60t21.5 -36t29.5 -17.5t32.5 -4.5q17 0 36.5 6.5t35.5 22t26.5 43t10.5 69.5v287h140v-532h-134z" />
    <glyph glyph-name="paragraph" unicode="&#xb6;" 
d="M214 347q-107 0 -164.5 46t-57.5 127q0 53 18.5 88t51.5 55.5t77.5 28.5t96.5 8h303v-891h-112v806h-101v-806h-112v538z" />
    <glyph glyph-name="periodcentered" unicode="&#xb7;" horiz-adv-x="278" 
d="M58 253q0 34 23.5 57.5t57.5 23.5t57.5 -23.5t23.5 -57.5q0 -33 -23 -57t-58 -24t-58 24t-23 57z" />
    <glyph glyph-name="cedilla" unicode="&#xb8;" horiz-adv-x="333" 
d="M109 0h57l-38 -55q9 2 15 3t15 1q10 0 25 -3.5t29 -12t23.5 -23.5t9.5 -39q0 -44 -34.5 -71.5t-89.5 -27.5q-14 0 -26 1t-25 4t-28 7.5t-36 12.5l22 48q20 -6 40.5 -11t36.5 -5t31.5 10t15.5 29q0 17 -12 26.5t-27 9.5q-8 0 -19 -2.5t-21 -5.5l-21 20z" />
    <glyph glyph-name="onesuperior" unicode="&#xb9;" horiz-adv-x="333" 
d="M26 636h13q33 0 54.5 7t34 18t18 24t6.5 25h85v-427h-101v291h-110v62z" />
    <glyph glyph-name="ordmasculine" unicode="&#xba;" horiz-adv-x="365" 
d="M262 569q0 39 -20.5 67.5t-58.5 28.5t-58.5 -28.5t-20.5 -67.5t20.5 -67.5t58.5 -28.5t58.5 28.5t20.5 67.5zM360 569q0 -29 -10 -59t-31 -54t-54.5 -39.5t-81.5 -15.5t-81.5 15.5t-54.5 39.5t-31 54t-10 59t10 59t31 54t54.5 39.5t81.5 15.5t81.5 -15.5t54.5 -39.5
t31 -54t10 -59z" />
    <glyph glyph-name="guillemotright" unicode="&#xbb;" 
d="M88 368v116l167 -144v-120l-167 -144v116l100 88zM301 368v116l167 -144v-120l-167 -144v116l100 88z" />
    <glyph glyph-name="onequarter" unicode="&#xbc;" horiz-adv-x="834" 
d="M26 636h13q33 0 54.5 7t34 18t18 24t6.5 25h85v-427h-101v291h-110v62zM564 710h78l-427 -729h-79zM716 159h50v-69h-50v-90h-95v90h-183v74l170 260h108v-265zM625 157q0 78 1 125.5t1 57.5h-2l-115 -183h115z" />
    <glyph glyph-name="onehalf" unicode="&#xbd;" horiz-adv-x="834" 
d="M484 275q0 52 18 82.5t42.5 46t50 19.5t40.5 4q33 0 62 -9t50 -26.5t33.5 -42.5t12.5 -57q0 -28 -8 -49.5t-21 -38.5t-28.5 -29.5t-30.5 -21.5q-45 -27 -67 -44.5t-30 -26.5h186v-82h-315q1 19 4.5 39t14 41t30.5 43.5t54 45.5q31 21 53 36.5t36 29.5t20.5 28t6.5 32
q0 2 0.5 3t0.5 2q0 15 -15 31.5t-45 16.5q-24 0 -37.5 -8t-20 -19.5t-8 -24t-1.5 -21.5h-88zM26 636h13q33 0 54.5 7t34 18t18 24t6.5 25h85v-427h-101v291h-110v62zM564 710h78l-427 -729h-79z" />
    <glyph glyph-name="threequarters" unicode="&#xbe;" horiz-adv-x="834" 
d="M654 159q0 76 1 123t1 54h-2l-112 -177h112zM749 424v-265h50v-69h-50v-90h-95v90h-183v74l170 260h108zM24 573q0 60 37.5 98.5t115.5 38.5q23 0 48.5 -6t46.5 -20t34.5 -36.5t13.5 -56.5t-17.5 -54t-37.5 -28v-2q6 -2 17.5 -7t23 -16.5t20 -30t8.5 -45.5
q0 -30 -11.5 -55t-32 -43.5t-49.5 -28.5t-64 -10q-17 0 -44 3.5t-53 17.5t-45 42.5t-19 78.5h89q0 -9 2 -20.5t8.5 -22t20 -17.5t36.5 -7q28 0 46 13.5t18 48.5q0 21 -9.5 33t-24 18t-32 7t-33.5 1v64h15q10 0 22.5 1t24 6t19 15.5t7.5 30.5q0 6 -1.5 14.5t-7 16.5t-16 14
t-29.5 6q-23 0 -35.5 -8t-18.5 -18.5t-7 -21t-1 -14.5h-85zM686 710l-427 -729h-79l428 729h78z" />
    <glyph glyph-name="questiondown" unicode="&#xbf;" horiz-adv-x="611" 
d="M227 532h146v-141h-146v141zM369 324q0 -36 -3 -63t-13.5 -50t-31 -44.5t-54.5 -45.5q-29 -20 -45.5 -44t-16.5 -55q0 -29 9 -48.5t23.5 -30.5t31.5 -15.5t33 -4.5q34 0 54.5 11.5t31.5 28.5t15.5 37t6.5 38v1h141q0 -65 -22 -110t-57 -72.5t-77.5 -39.5t-83.5 -12
q-15 0 -40 2t-53 9.5t-57.5 21.5t-52.5 37.5t-38 58.5t-15 84q0 30 8 55t23.5 46.5t38 41.5t51.5 41q16 12 27.5 22t19 23.5t11 31.5t3.5 45h132z" />
    <glyph glyph-name="Agrave" unicode="&#xc0;" horiz-adv-x="722" 
d="M268 272h183l-89 284h-2zM178 0h-158l256 718h173l253 -718h-163l-46 148h-265zM172 936h154l94 -146h-101z" />
    <glyph glyph-name="Aacute" unicode="&#xc1;" horiz-adv-x="722" 
d="M268 272h183l-89 284h-2zM178 0h-158l256 718h173l253 -718h-163l-46 148h-265zM404 790h-101l94 146h154z" />
    <glyph glyph-name="Acircumflex" unicode="&#xc2;" horiz-adv-x="722" 
d="M268 272h183l-89 284h-2zM178 0h-158l256 718h173l253 -718h-163l-46 148h-265zM538 790h-113l-64 82l-63 -82h-113l114 146h125z" />
    <glyph glyph-name="Atilde" unicode="&#xc3;" horiz-adv-x="722" 
d="M268 272h183l-89 284h-2zM178 0h-158l256 718h173l253 -718h-163l-46 148h-265zM545 923q-2 -11 -7.5 -31.5t-17.5 -40t-32.5 -34t-51.5 -14.5q-17 0 -39.5 5.5t-36.5 10.5q-24 8 -41 14t-30 6t-22 -5t-14 -12t-7.5 -14.5t-3.5 -11.5h-64q3 15 9 35.5t20 40.5t36 33.5
t56 13.5q17 0 31.5 -4.5t40.5 -14.5t38.5 -13.5t23.5 -3.5q25 0 34.5 13.5t12.5 26.5h65z" />
    <glyph glyph-name="Adieresis" unicode="&#xc4;" horiz-adv-x="722" 
d="M268 272h183l-89 284h-2zM178 0h-158l256 718h173l253 -718h-163l-46 148h-265zM522 800h-126v115h126v-115zM327 800h-126v115h126v-115z" />
    <glyph glyph-name="Aring" unicode="&#xc5;" horiz-adv-x="722" 
d="M268 272h183l-89 284h-2zM178 0h-158l256 718h173l253 -718h-163l-46 148h-265zM414 858q0 22 -15 37t-37 15t-37 -15t-15 -37t15 -37t37 -15t37 15t15 37zM470 858q0 -24 -10 -43t-25.5 -32.5t-34.5 -21t-38 -7.5t-38 7.5t-34.5 21t-25.5 32.5t-10 43t10 43t25.5 32.5
t34.5 21t38 7.5t38 -7.5t34.5 -21t25.5 -32.5t10 -43z" />
    <glyph glyph-name="AE" unicode="&#xc6;" horiz-adv-x="1000" 
d="M429 271v320h-65l-111 -320h176zM576 127h378v-127h-525v153h-215l-52 -153h-157l262 718h680v-127h-371v-151h334v-127h-334v-186z" />
    <glyph glyph-name="Ccedilla" unicode="&#xc7;" horiz-adv-x="722" 
d="M684 246q-11 -57 -34.5 -104t-60 -82t-86.5 -55t-113 -23l-26 -37q9 2 15 3t15 1q10 0 25 -3.5t29 -12t23.5 -23.5t9.5 -39q0 -44 -34.5 -71.5t-89.5 -27.5q-14 0 -26 1t-25 4t-28 7.5t-36 12.5l22 48q20 -6 40.5 -11t36.5 -5t31.5 10t15.5 29q0 17 -12 26.5t-27 9.5
q-8 0 -19 -2.5t-21 -5.5l-21 20l44 67q-63 6 -116 33t-91.5 74t-59.5 114t-21 154q0 94 25.5 165t70 118.5t105 71.5t129.5 24q81 0 138 -25t94.5 -62.5t56 -82t21.5 -84.5h-150q-5 16 -12.5 37.5t-25 40.5t-46.5 32.5t-75 13.5q-27 0 -58 -10.5t-58 -38.5t-44.5 -77
t-17.5 -125q0 -48 10 -92.5t31.5 -78.5t55 -54t81.5 -20q63 0 104 34.5t55 100.5h150z" />
    <glyph glyph-name="Egrave" unicode="&#xc8;" horiz-adv-x="667" 
d="M604 591h-381v-151h350v-127h-350v-186h398v-127h-545v718h528v-127zM144 936h154l94 -146h-101z" />
    <glyph glyph-name="Eacute" unicode="&#xc9;" horiz-adv-x="667" 
d="M604 591h-381v-151h350v-127h-350v-186h398v-127h-545v718h528v-127zM376 790h-101l94 146h154z" />
    <glyph glyph-name="Ecircumflex" unicode="&#xca;" horiz-adv-x="667" 
d="M604 591h-381v-151h350v-127h-350v-186h398v-127h-545v718h528v-127zM510 790h-113l-64 82l-63 -82h-113l114 146h125z" />
    <glyph glyph-name="Edieresis" unicode="&#xcb;" horiz-adv-x="667" 
d="M604 591h-381v-151h350v-127h-350v-186h398v-127h-545v718h528v-127zM494 800h-126v115h126v-115zM299 800h-126v115h126v-115z" />
    <glyph glyph-name="Igrave" unicode="&#xcc;" horiz-adv-x="278" 
d="M214 0h-150v718h150v-718zM-49 936h154l94 -146h-101z" />
    <glyph glyph-name="Iacute" unicode="&#xcd;" horiz-adv-x="278" 
d="M214 0h-150v718h150v-718zM183 790h-101l94 146h154z" />
    <glyph glyph-name="Icircumflex" unicode="&#xce;" horiz-adv-x="278" 
d="M214 0h-150v718h150v-718zM317 790h-113l-64 82l-63 -82h-113l114 146h125z" />
    <glyph glyph-name="Idieresis" unicode="&#xcf;" horiz-adv-x="278" 
d="M214 0h-150v718h150v-718zM301 800h-126v115h126v-115zM106 800h-126v115h126v-115z" />
    <glyph glyph-name="Eth" unicode="&#xd0;" horiz-adv-x="722" 
d="M-5 440h81v278h317q60 0 105.5 -16t78 -42.5t53.5 -61.5t33 -73t17 -76.5t5 -72.5q0 -38 -5.5 -81t-19 -85t-35.5 -80t-55.5 -67t-78.5 -46t-104 -17h-311v353h-81v87zM223 440h166v-87h-166v-229h146q46 0 77 21t50 55t27.5 77.5t8.5 87.5q0 79 -17 125t-41.5 69
t-53.5 29t-53 6h-144v-154z" />
    <glyph glyph-name="Ntilde" unicode="&#xd1;" horiz-adv-x="722" 
d="M514 718h140v-718h-150l-293 512h-2v-512h-140v718h158l285 -500h2v500zM545 923q-2 -11 -7.5 -31.5t-17.5 -40t-32.5 -34t-51.5 -14.5q-17 0 -39.5 5.5t-36.5 10.5q-24 8 -41 14t-30 6t-22 -5t-14 -12t-7.5 -14.5t-3.5 -11.5h-64q3 15 9 35.5t20 40.5t36 33.5t56 13.5
q17 0 31.5 -4.5t40.5 -14.5t38.5 -13.5t23.5 -3.5q25 0 34.5 13.5t12.5 26.5h65z" />
    <glyph glyph-name="Ograve" unicode="&#xd2;" horiz-adv-x="778" 
d="M194 359q0 -75 19 -124t48 -77t63.5 -39t64.5 -11t64.5 11t63.5 39t48 77t19 124t-19 124t-48 77t-63.5 39t-64.5 11t-64.5 -11t-63.5 -39t-48 -77t-19 -124zM44 359q0 84 19 145t49.5 103t68.5 67.5t76.5 39.5t73 18.5t58.5 4.5t58.5 -4.5t73 -18.5t76.5 -39.5
t68.5 -67.5t49.5 -103t19 -145t-19 -145t-49.5 -103t-68.5 -67.5t-76.5 -39.5t-73 -18.5t-58.5 -4.5t-58.5 4.5t-73 18.5t-76.5 39.5t-68.5 67.5t-49.5 103t-19 145zM200 936h154l94 -146h-101z" />
    <glyph glyph-name="Oacute" unicode="&#xd3;" horiz-adv-x="778" 
d="M194 359q0 -75 19 -124t48 -77t63.5 -39t64.5 -11t64.5 11t63.5 39t48 77t19 124t-19 124t-48 77t-63.5 39t-64.5 11t-64.5 -11t-63.5 -39t-48 -77t-19 -124zM44 359q0 84 19 145t49.5 103t68.5 67.5t76.5 39.5t73 18.5t58.5 4.5t58.5 -4.5t73 -18.5t76.5 -39.5
t68.5 -67.5t49.5 -103t19 -145t-19 -145t-49.5 -103t-68.5 -67.5t-76.5 -39.5t-73 -18.5t-58.5 -4.5t-58.5 4.5t-73 18.5t-76.5 39.5t-68.5 67.5t-49.5 103t-19 145zM432 790h-101l94 146h154z" />
    <glyph glyph-name="Ocircumflex" unicode="&#xd4;" horiz-adv-x="778" 
d="M194 359q0 -75 19 -124t48 -77t63.5 -39t64.5 -11t64.5 11t63.5 39t48 77t19 124t-19 124t-48 77t-63.5 39t-64.5 11t-64.5 -11t-63.5 -39t-48 -77t-19 -124zM44 359q0 84 19 145t49.5 103t68.5 67.5t76.5 39.5t73 18.5t58.5 4.5t58.5 -4.5t73 -18.5t76.5 -39.5
t68.5 -67.5t49.5 -103t19 -145t-19 -145t-49.5 -103t-68.5 -67.5t-76.5 -39.5t-73 -18.5t-58.5 -4.5t-58.5 4.5t-73 18.5t-76.5 39.5t-68.5 67.5t-49.5 103t-19 145zM566 790h-113l-64 82l-63 -82h-113l114 146h125z" />
    <glyph glyph-name="Otilde" unicode="&#xd5;" horiz-adv-x="778" 
d="M194 359q0 -75 19 -124t48 -77t63.5 -39t64.5 -11t64.5 11t63.5 39t48 77t19 124t-19 124t-48 77t-63.5 39t-64.5 11t-64.5 -11t-63.5 -39t-48 -77t-19 -124zM44 359q0 84 19 145t49.5 103t68.5 67.5t76.5 39.5t73 18.5t58.5 4.5t58.5 -4.5t73 -18.5t76.5 -39.5
t68.5 -67.5t49.5 -103t19 -145t-19 -145t-49.5 -103t-68.5 -67.5t-76.5 -39.5t-73 -18.5t-58.5 -4.5t-58.5 4.5t-73 18.5t-76.5 39.5t-68.5 67.5t-49.5 103t-19 145zM573 923q-2 -11 -7.5 -31.5t-17.5 -40t-32.5 -34t-51.5 -14.5q-17 0 -39.5 5.5t-36.5 10.5q-24 8 -41 14
t-30 6t-22 -5t-14 -12t-7.5 -14.5t-3.5 -11.5h-64q3 15 9 35.5t20 40.5t36 33.5t56 13.5q17 0 31.5 -4.5t40.5 -14.5t38.5 -13.5t23.5 -3.5q25 0 34.5 13.5t12.5 26.5h65z" />
    <glyph glyph-name="Odieresis" unicode="&#xd6;" horiz-adv-x="778" 
d="M194 359q0 -75 19 -124t48 -77t63.5 -39t64.5 -11t64.5 11t63.5 39t48 77t19 124t-19 124t-48 77t-63.5 39t-64.5 11t-64.5 -11t-63.5 -39t-48 -77t-19 -124zM44 359q0 84 19 145t49.5 103t68.5 67.5t76.5 39.5t73 18.5t58.5 4.5t58.5 -4.5t73 -18.5t76.5 -39.5
t68.5 -67.5t49.5 -103t19 -145t-19 -145t-49.5 -103t-68.5 -67.5t-76.5 -39.5t-73 -18.5t-58.5 -4.5t-58.5 4.5t-73 18.5t-76.5 39.5t-68.5 67.5t-49.5 103t-19 145zM550 800h-126v115h126v-115zM355 800h-126v115h126v-115z" />
    <glyph glyph-name="multiply" unicode="&#xd7;" horiz-adv-x="584" 
d="M40 426l79 79l173 -173l173 173l79 -79l-173 -173l174 -173l-80 -79l-173 173l-172 -173l-80 79l173 173z" />
    <glyph glyph-name="Oslash" unicode="&#xd8;" horiz-adv-x="778" 
d="M252 168q30 -34 67 -47t70 -13q30 0 64.5 11t63.5 39t48 77t19 124q0 89 -28 142zM525 551q-31 34 -67.5 46.5t-68.5 12.5q-30 0 -64.5 -11t-63.5 -39t-48 -77t-19 -124q0 -45 7 -80t20 -61zM660 615q33 -43 53.5 -105t20.5 -151q0 -84 -19 -145t-49.5 -103t-68.5 -67.5
t-76.5 -39.5t-73 -18.5t-58.5 -4.5q-20 0 -47.5 3t-58.5 12t-63.5 25t-62.5 42l-82 -90l-42 38l85 93q-32 42 -53 104t-21 151q0 84 19 145t49.5 103t68.5 67.5t76.5 39.5t73 18.5t58.5 4.5q20 0 47.5 -3t58.5 -12t63.5 -25t62.5 -41l81 89l42 -38z" />
    <glyph glyph-name="Ugrave" unicode="&#xd9;" horiz-adv-x="722" 
d="M651 251q0 -71 -20.5 -122t-59 -84t-93 -48.5t-122.5 -15.5q-25 0 -54.5 3.5t-60 13.5t-60 26.5t-53.5 43.5q-29 33 -41.5 76.5t-14.5 97.5v476h153v-466q0 -38 10 -65t27.5 -44.5t41 -26t49.5 -8.5q78 0 111.5 35.5t33.5 101.5v473h153v-467zM172 936h154l94 -146h-101z
" />
    <glyph glyph-name="Uacute" unicode="&#xda;" horiz-adv-x="722" 
d="M651 251q0 -71 -20.5 -122t-59 -84t-93 -48.5t-122.5 -15.5q-25 0 -54.5 3.5t-60 13.5t-60 26.5t-53.5 43.5q-29 33 -41.5 76.5t-14.5 97.5v476h153v-466q0 -38 10 -65t27.5 -44.5t41 -26t49.5 -8.5q78 0 111.5 35.5t33.5 101.5v473h153v-467zM404 790h-101l94 146h154z
" />
    <glyph glyph-name="Ucircumflex" unicode="&#xdb;" horiz-adv-x="722" 
d="M651 251q0 -71 -20.5 -122t-59 -84t-93 -48.5t-122.5 -15.5q-25 0 -54.5 3.5t-60 13.5t-60 26.5t-53.5 43.5q-29 33 -41.5 76.5t-14.5 97.5v476h153v-466q0 -38 10 -65t27.5 -44.5t41 -26t49.5 -8.5q78 0 111.5 35.5t33.5 101.5v473h153v-467zM538 790h-113l-64 82
l-63 -82h-113l114 146h125z" />
    <glyph glyph-name="Udieresis" unicode="&#xdc;" horiz-adv-x="722" 
d="M651 251q0 -71 -20.5 -122t-59 -84t-93 -48.5t-122.5 -15.5q-25 0 -54.5 3.5t-60 13.5t-60 26.5t-53.5 43.5q-29 33 -41.5 76.5t-14.5 97.5v476h153v-466q0 -38 10 -65t27.5 -44.5t41 -26t49.5 -8.5q78 0 111.5 35.5t33.5 101.5v473h153v-467zM522 800h-126v115h126v-115
zM327 800h-126v115h126v-115z" />
    <glyph glyph-name="Yacute" unicode="&#xdd;" horiz-adv-x="667" 
d="M413 0h-150v271l-248 447h177l149 -312l142 312h170l-240 -449v-269zM376 790h-101l94 146h154z" />
    <glyph glyph-name="Thorn" unicode="&#xde;" horiz-adv-x="667" 
d="M365 283q42 0 64.5 13t33 31t12.5 37t2 31q0 53 -31 77t-101 24h-119v-213h139zM76 718h150v-98h178q52 0 93.5 -16.5t70 -46.5t44 -73t15.5 -96q0 -24 -8.5 -63t-33.5 -76t-70 -63.5t-117 -26.5h-172v-159h-150v718z" />
    <glyph glyph-name="germandbls" unicode="&#xdf;" horiz-adv-x="611" 
d="M279 102q8 -1 14 -1h15q64 0 97.5 30.5t33.5 93.5q0 42 -15 65.5t-38 35.5t-49.5 15.5t-50.5 5.5v97q20 1 40 3t36 10t26 25.5t10 48.5q0 33 -13 51t-30.5 26t-34 9.5t-23.5 1.5q-14 0 -29.5 -4t-28.5 -14.5t-21.5 -27.5t-8.5 -43v-530h-140v539q0 37 14 72t42.5 61.5
t72.5 42.5t104 16q17 0 41 -2t50.5 -8.5t52 -19.5t46 -34.5t33.5 -54t13 -77.5t-22 -77.5t-51 -46.5q40 -18 62.5 -41t34 -48t14.5 -49t3 -44q0 -43 -12.5 -86t-41 -78t-75.5 -57t-116 -22q-13 0 -25 1.5t-30 4.5v110z" />
    <glyph glyph-name="agrave" unicode="&#xe0;" 
d="M359 259q-11 -8 -31 -15t-64 -14q-20 -3 -37 -8t-30 -13.5t-20.5 -22.5t-7.5 -36q0 -18 6.5 -30.5t16 -20t21 -10.5t21.5 -3q23 0 45.5 7.5t40 21t28.5 33t11 43.5v68zM496 104q0 -47 9 -63t22 -20v-21h-151q-3 9 -5 16t-3.5 13.5t-2.5 14.5t-2 19q-12 -12 -27 -26
t-35.5 -25t-47 -18.5t-62.5 -7.5q-30 0 -59 8.5t-52 27.5t-37 48.5t-14 70.5q0 39 11.5 68.5t32.5 50.5t49.5 33.5t61.5 17.5l126 19q16 2 32.5 10.5t16.5 31.5q0 22 -9.5 34.5t-23 18.5t-30 7.5t-29.5 1.5q-26 0 -42.5 -7t-25.5 -18t-13 -24t-5 -25h-135q6 61 28.5 98
t55.5 56.5t73 25.5t81 6q28 0 64.5 -5.5t69.5 -22t55.5 -47t22.5 -79.5v-288zM89 750h154l94 -146h-101z" />
    <glyph glyph-name="aacute" unicode="&#xe1;" 
d="M359 259q-11 -8 -31 -15t-64 -14q-20 -3 -37 -8t-30 -13.5t-20.5 -22.5t-7.5 -36q0 -18 6.5 -30.5t16 -20t21 -10.5t21.5 -3q23 0 45.5 7.5t40 21t28.5 33t11 43.5v68zM496 104q0 -47 9 -63t22 -20v-21h-151q-3 9 -5 16t-3.5 13.5t-2.5 14.5t-2 19q-12 -12 -27 -26
t-35.5 -25t-47 -18.5t-62.5 -7.5q-30 0 -59 8.5t-52 27.5t-37 48.5t-14 70.5q0 39 11.5 68.5t32.5 50.5t49.5 33.5t61.5 17.5l126 19q16 2 32.5 10.5t16.5 31.5q0 22 -9.5 34.5t-23 18.5t-30 7.5t-29.5 1.5q-26 0 -42.5 -7t-25.5 -18t-13 -24t-5 -25h-135q6 61 28.5 98
t55.5 56.5t73 25.5t81 6q28 0 64.5 -5.5t69.5 -22t55.5 -47t22.5 -79.5v-288zM321 604h-101l94 146h154z" />
    <glyph glyph-name="acircumflex" unicode="&#xe2;" 
d="M359 259q-11 -8 -31 -15t-64 -14q-20 -3 -37 -8t-30 -13.5t-20.5 -22.5t-7.5 -36q0 -18 6.5 -30.5t16 -20t21 -10.5t21.5 -3q23 0 45.5 7.5t40 21t28.5 33t11 43.5v68zM496 104q0 -47 9 -63t22 -20v-21h-151q-3 9 -5 16t-3.5 13.5t-2.5 14.5t-2 19q-12 -12 -27 -26
t-35.5 -25t-47 -18.5t-62.5 -7.5q-30 0 -59 8.5t-52 27.5t-37 48.5t-14 70.5q0 39 11.5 68.5t32.5 50.5t49.5 33.5t61.5 17.5l126 19q16 2 32.5 10.5t16.5 31.5q0 22 -9.5 34.5t-23 18.5t-30 7.5t-29.5 1.5q-26 0 -42.5 -7t-25.5 -18t-13 -24t-5 -25h-135q6 61 28.5 98
t55.5 56.5t73 25.5t81 6q28 0 64.5 -5.5t69.5 -22t55.5 -47t22.5 -79.5v-288zM455 604h-113l-64 82l-63 -82h-113l114 146h125z" />
    <glyph glyph-name="atilde" unicode="&#xe3;" 
d="M359 259q-11 -8 -31 -15t-64 -14q-20 -3 -37 -8t-30 -13.5t-20.5 -22.5t-7.5 -36q0 -18 6.5 -30.5t16 -20t21 -10.5t21.5 -3q23 0 45.5 7.5t40 21t28.5 33t11 43.5v68zM496 104q0 -47 9 -63t22 -20v-21h-151q-3 9 -5 16t-3.5 13.5t-2.5 14.5t-2 19q-12 -12 -27 -26
t-35.5 -25t-47 -18.5t-62.5 -7.5q-30 0 -59 8.5t-52 27.5t-37 48.5t-14 70.5q0 39 11.5 68.5t32.5 50.5t49.5 33.5t61.5 17.5l126 19q16 2 32.5 10.5t16.5 31.5q0 22 -9.5 34.5t-23 18.5t-30 7.5t-29.5 1.5q-26 0 -42.5 -7t-25.5 -18t-13 -24t-5 -25h-135q6 61 28.5 98
t55.5 56.5t73 25.5t81 6q28 0 64.5 -5.5t69.5 -22t55.5 -47t22.5 -79.5v-288zM462 737q-2 -11 -7.5 -31.5t-17.5 -40t-32.5 -34t-51.5 -14.5q-17 0 -39.5 5.5t-36.5 10.5q-24 8 -41 14t-30 6t-22 -5t-14 -12t-7.5 -14.5t-3.5 -11.5h-64q3 15 9 35.5t20 40.5t36 33.5t56 13.5
q17 0 31.5 -4.5t40.5 -14.5t38.5 -13.5t23.5 -3.5q25 0 34.5 13.5t12.5 26.5h65z" />
    <glyph glyph-name="adieresis" unicode="&#xe4;" 
d="M359 259q-11 -8 -31 -15t-64 -14q-20 -3 -37 -8t-30 -13.5t-20.5 -22.5t-7.5 -36q0 -18 6.5 -30.5t16 -20t21 -10.5t21.5 -3q23 0 45.5 7.5t40 21t28.5 33t11 43.5v68zM496 104q0 -47 9 -63t22 -20v-21h-151q-3 9 -5 16t-3.5 13.5t-2.5 14.5t-2 19q-12 -12 -27 -26
t-35.5 -25t-47 -18.5t-62.5 -7.5q-30 0 -59 8.5t-52 27.5t-37 48.5t-14 70.5q0 39 11.5 68.5t32.5 50.5t49.5 33.5t61.5 17.5l126 19q16 2 32.5 10.5t16.5 31.5q0 22 -9.5 34.5t-23 18.5t-30 7.5t-29.5 1.5q-26 0 -42.5 -7t-25.5 -18t-13 -24t-5 -25h-135q6 61 28.5 98
t55.5 56.5t73 25.5t81 6q28 0 64.5 -5.5t69.5 -22t55.5 -47t22.5 -79.5v-288zM439 614h-126v115h126v-115zM244 614h-126v115h126v-115z" />
    <glyph glyph-name="aring" unicode="&#xe5;" 
d="M359 259q-11 -8 -31 -15t-64 -14q-20 -3 -37 -8t-30 -13.5t-20.5 -22.5t-7.5 -36q0 -18 6.5 -30.5t16 -20t21 -10.5t21.5 -3q23 0 45.5 7.5t40 21t28.5 33t11 43.5v68zM496 104q0 -47 9 -63t22 -20v-21h-151q-3 9 -5 16t-3.5 13.5t-2.5 14.5t-2 19q-12 -12 -27 -26
t-35.5 -25t-47 -18.5t-62.5 -7.5q-30 0 -59 8.5t-52 27.5t-37 48.5t-14 70.5q0 39 11.5 68.5t32.5 50.5t49.5 33.5t61.5 17.5l126 19q16 2 32.5 10.5t16.5 31.5q0 22 -9.5 34.5t-23 18.5t-30 7.5t-29.5 1.5q-26 0 -42.5 -7t-25.5 -18t-13 -24t-5 -25h-135q6 61 28.5 98
t55.5 56.5t73 25.5t81 6q28 0 64.5 -5.5t69.5 -22t55.5 -47t22.5 -79.5v-288zM331 672q0 22 -15 37t-37 15t-37 -15t-15 -37t15 -37t37 -15t37 15t15 37zM387 672q0 -24 -10 -43t-25.5 -32.5t-34.5 -21t-38 -7.5t-38 7.5t-34.5 21t-25.5 32.5t-10 43t10 43t25.5 32.5
t34.5 21t38 7.5t38 -7.5t34.5 -21t25.5 -32.5t10 -43z" />
    <glyph glyph-name="ae" unicode="&#xe6;" horiz-adv-x="889" 
d="M714 319q-3 32 -14 53.5t-26 34.5t-33 18.5t-35 5.5q-50 0 -76.5 -29.5t-32.5 -82.5h217zM364 255q-5 -4 -11 -7.5t-17.5 -7.5t-29.5 -7.5t-46 -7.5q-21 -3 -37.5 -7t-28.5 -12.5t-18.5 -22t-6.5 -35.5q0 -31 21.5 -46.5t57.5 -15.5q20 0 41 8t37.5 21.5t27 32.5t10.5 40
v67zM852 156q-14 -48 -39.5 -80.5t-57.5 -52.5t-67.5 -28.5t-69.5 -8.5h-7q-47 0 -78.5 8t-53.5 21t-35.5 28t-24.5 29q-26 -41 -80 -63.5t-121 -22.5q-29 0 -62 6t-61.5 23t-47 49t-18.5 85q0 24 6.5 48t22.5 45t41.5 36.5t64.5 22.5l131 22q24 4 38.5 8t22 9.5t9.5 13.5
t2 21q0 7 -1.5 17.5t-10.5 19.5t-29 15.5t-57 6.5q-29 0 -45.5 -8.5t-25 -20t-11 -24.5t-2.5 -22h-137q4 59 27 95.5t57 57t74.5 27.5t81.5 7q32 0 58 -6t46.5 -15t35 -19t24.5 -19q12 9 26 19t32.5 18.5t42.5 14.5t55 7q39 0 83 -11.5t81 -44t61.5 -89.5t24.5 -148v-25
h-365q1 -15 5 -37t16.5 -43t37 -35.5t66.5 -14.5q29 0 55.5 14.5t34.5 43.5h144z" />
    <glyph glyph-name="ccedilla" unicode="&#xe7;" 
d="M183 -155q20 -6 40.5 -11t36.5 -5t31.5 10t15.5 29q0 17 -12 26.5t-27 9.5q-8 0 -19 -2.5t-21 -5.5l-21 20l47 71q-67 5 -109.5 31.5t-67 65t-34 83t-9.5 84.5q0 64 14.5 118.5t45.5 93.5t79 61t116 22q31 0 70 -8.5t74 -31t60.5 -62.5t30.5 -102h-142q-2 13 -7.5 28
t-15.5 28t-25.5 21.5t-37.5 8.5h-7q-33 0 -54.5 -15t-34 -37.5t-17.5 -49.5t-5 -52q0 -22 2 -51.5t12.5 -56.5t32 -46t61.5 -19q27 0 45 11t29 26t16 31t5 25h142q-2 -20 -11.5 -52t-33 -64.5t-63 -58t-102.5 -31.5l-30 -43q9 2 15 3t15 1q10 0 25 -3.5t29 -12t23.5 -23.5
t9.5 -39q0 -44 -34.5 -71.5t-89.5 -27.5q-14 0 -26 1t-25 4t-28 7.5t-36 12.5z" />
    <glyph glyph-name="egrave" unicode="&#xe8;" 
d="M384 319q-3 32 -14 53.5t-26 34.5t-33 18.5t-35 5.5q-50 0 -76.5 -29.5t-32.5 -82.5h217zM522 156q-14 -48 -39.5 -80.5t-57.5 -52.5t-67.5 -28.5t-69.5 -8.5q-56 0 -104.5 14.5t-84 48.5t-56 90t-20.5 138q0 16 2.5 42t11.5 56t26 60.5t45.5 55t70 40t99.5 15.5
q39 0 83 -11.5t81 -44t61.5 -89.5t24.5 -148v-25h-365q1 -15 5 -37t16.5 -43t37 -35.5t66.5 -14.5q29 0 55.5 14.5t34.5 43.5h144zM89 750h154l94 -146h-101z" />
    <glyph glyph-name="eacute" unicode="&#xe9;" 
d="M384 319q-3 32 -14 53.5t-26 34.5t-33 18.5t-35 5.5q-50 0 -76.5 -29.5t-32.5 -82.5h217zM522 156q-14 -48 -39.5 -80.5t-57.5 -52.5t-67.5 -28.5t-69.5 -8.5q-56 0 -104.5 14.5t-84 48.5t-56 90t-20.5 138q0 16 2.5 42t11.5 56t26 60.5t45.5 55t70 40t99.5 15.5
q39 0 83 -11.5t81 -44t61.5 -89.5t24.5 -148v-25h-365q1 -15 5 -37t16.5 -43t37 -35.5t66.5 -14.5q29 0 55.5 14.5t34.5 43.5h144zM321 604h-101l94 146h154z" />
    <glyph glyph-name="ecircumflex" unicode="&#xea;" 
d="M384 319q-3 32 -14 53.5t-26 34.5t-33 18.5t-35 5.5q-50 0 -76.5 -29.5t-32.5 -82.5h217zM522 156q-14 -48 -39.5 -80.5t-57.5 -52.5t-67.5 -28.5t-69.5 -8.5q-56 0 -104.5 14.5t-84 48.5t-56 90t-20.5 138q0 16 2.5 42t11.5 56t26 60.5t45.5 55t70 40t99.5 15.5
q39 0 83 -11.5t81 -44t61.5 -89.5t24.5 -148v-25h-365q1 -15 5 -37t16.5 -43t37 -35.5t66.5 -14.5q29 0 55.5 14.5t34.5 43.5h144zM455 604h-113l-64 82l-63 -82h-113l114 146h125z" />
    <glyph glyph-name="edieresis" unicode="&#xeb;" 
d="M384 319q-3 32 -14 53.5t-26 34.5t-33 18.5t-35 5.5q-50 0 -76.5 -29.5t-32.5 -82.5h217zM522 156q-14 -48 -39.5 -80.5t-57.5 -52.5t-67.5 -28.5t-69.5 -8.5q-56 0 -104.5 14.5t-84 48.5t-56 90t-20.5 138q0 16 2.5 42t11.5 56t26 60.5t45.5 55t70 40t99.5 15.5
q39 0 83 -11.5t81 -44t61.5 -89.5t24.5 -148v-25h-365q1 -15 5 -37t16.5 -43t37 -35.5t66.5 -14.5q29 0 55.5 14.5t34.5 43.5h144zM439 614h-126v115h126v-115zM244 614h-126v115h126v-115z" />
    <glyph glyph-name="igrave" unicode="&#xec;" horiz-adv-x="278" 
d="M209 532v-532h-140v532h140zM-49 750h154l94 -146h-101z" />
    <glyph glyph-name="iacute" unicode="&#xed;" horiz-adv-x="278" 
d="M209 532v-532h-140v532h140zM183 604h-101l94 146h154z" />
    <glyph glyph-name="icircumflex" unicode="&#xee;" horiz-adv-x="278" 
d="M209 532v-532h-140v532h140zM317 604h-113l-64 82l-63 -82h-113l114 146h125z" />
    <glyph glyph-name="idieresis" unicode="&#xef;" horiz-adv-x="278" 
d="M209 532v-532h-140v532h140zM301 614h-126v115h126v-115zM106 614h-126v115h126v-115z" />
    <glyph glyph-name="eth" unicode="&#xf0;" horiz-adv-x="611" 
d="M423 641q31 -29 59 -66t49.5 -80.5t34 -94t12.5 -105.5q0 -85 -24.5 -144t-63 -95.5t-86.5 -53t-95 -16.5q-50 0 -99 14.5t-88 47.5t-63.5 86.5t-24.5 130.5q0 55 18 102.5t50.5 82t78 54t100.5 19.5q9 0 23.5 -1.5t32 -7.5t35 -17t32.5 -29l2 2q-15 32 -41 63.5
t-56 57.5l-108 -47l-63 52l108 47q-23 17 -42.5 28.5t-30.5 16.5l108 49q18 -8 38 -18.5t41 -25.5l102 44l62 -52zM306 405q-40 0 -65 -17t-39 -40.5t-19 -48t-5 -38.5q0 -78 35 -117.5t94 -39.5q45 0 70 20t38 46.5t16 53.5t3 41t-4.5 38t-18.5 46.5t-39 39t-66 16.5z" />
    <glyph glyph-name="ntilde" unicode="&#xf1;" horiz-adv-x="611" 
d="M546 0h-140v323q0 15 -1.5 33t-10.5 34t-27.5 27t-51.5 11q-47 0 -78.5 -31t-31.5 -92v-305h-140v532h134v-78h2q7 12 18.5 28t30.5 30t46 24t65 10q39 0 73 -11.5t58.5 -34t39 -55.5t14.5 -77v-368zM489 737q-2 -11 -7.5 -31.5t-17.5 -40t-32.5 -34t-51.5 -14.5
q-17 0 -39.5 5.5t-36.5 10.5q-24 8 -41 14t-30 6t-22 -5t-14 -12t-7.5 -14.5t-3.5 -11.5h-64q3 15 9 35.5t20 40.5t36 33.5t56 13.5q17 0 31.5 -4.5t40.5 -14.5t38.5 -13.5t23.5 -3.5q25 0 34.5 13.5t12.5 26.5h65z" />
    <glyph glyph-name="ograve" unicode="&#xf2;" horiz-adv-x="611" 
d="M434 266q0 25 -5 53.5t-18.5 52.5t-39 40t-65.5 16q-41 0 -66 -16t-38.5 -40t-18.5 -52.5t-5 -53.5q0 -26 5 -54.5t18.5 -52.5t38.5 -39.5t66 -15.5q40 0 65.5 15.5t39 39.5t18.5 52.5t5 54.5zM578 266q0 -72 -22.5 -125t-60 -87.5t-86.5 -51t-103 -16.5t-103 16.5
t-86.5 51t-60 87.5t-22.5 125t22.5 124.5t60 87t86.5 51.5t103 17t103 -17t86.5 -51.5t60 -87t22.5 -124.5zM116 750h154l94 -146h-101z" />
    <glyph glyph-name="oacute" unicode="&#xf3;" horiz-adv-x="611" 
d="M434 266q0 25 -5 53.5t-18.5 52.5t-39 40t-65.5 16q-41 0 -66 -16t-38.5 -40t-18.5 -52.5t-5 -53.5q0 -26 5 -54.5t18.5 -52.5t38.5 -39.5t66 -15.5q40 0 65.5 15.5t39 39.5t18.5 52.5t5 54.5zM578 266q0 -72 -22.5 -125t-60 -87.5t-86.5 -51t-103 -16.5t-103 16.5
t-86.5 51t-60 87.5t-22.5 125t22.5 124.5t60 87t86.5 51.5t103 17t103 -17t86.5 -51.5t60 -87t22.5 -124.5zM348 604h-101l94 146h154z" />
    <glyph glyph-name="ocircumflex" unicode="&#xf4;" horiz-adv-x="611" 
d="M434 266q0 25 -5 53.5t-18.5 52.5t-39 40t-65.5 16q-41 0 -66 -16t-38.5 -40t-18.5 -52.5t-5 -53.5q0 -26 5 -54.5t18.5 -52.5t38.5 -39.5t66 -15.5q40 0 65.5 15.5t39 39.5t18.5 52.5t5 54.5zM578 266q0 -72 -22.5 -125t-60 -87.5t-86.5 -51t-103 -16.5t-103 16.5
t-86.5 51t-60 87.5t-22.5 125t22.5 124.5t60 87t86.5 51.5t103 17t103 -17t86.5 -51.5t60 -87t22.5 -124.5zM482 604h-113l-64 82l-63 -82h-113l114 146h125z" />
    <glyph glyph-name="otilde" unicode="&#xf5;" horiz-adv-x="611" 
d="M434 266q0 25 -5 53.5t-18.5 52.5t-39 40t-65.5 16q-41 0 -66 -16t-38.5 -40t-18.5 -52.5t-5 -53.5q0 -26 5 -54.5t18.5 -52.5t38.5 -39.5t66 -15.5q40 0 65.5 15.5t39 39.5t18.5 52.5t5 54.5zM578 266q0 -72 -22.5 -125t-60 -87.5t-86.5 -51t-103 -16.5t-103 16.5
t-86.5 51t-60 87.5t-22.5 125t22.5 124.5t60 87t86.5 51.5t103 17t103 -17t86.5 -51.5t60 -87t22.5 -124.5zM489 737q-2 -11 -7.5 -31.5t-17.5 -40t-32.5 -34t-51.5 -14.5q-17 0 -39.5 5.5t-36.5 10.5q-24 8 -41 14t-30 6t-22 -5t-14 -12t-7.5 -14.5t-3.5 -11.5h-64
q3 15 9 35.5t20 40.5t36 33.5t56 13.5q17 0 31.5 -4.5t40.5 -14.5t38.5 -13.5t23.5 -3.5q25 0 34.5 13.5t12.5 26.5h65z" />
    <glyph glyph-name="odieresis" unicode="&#xf6;" horiz-adv-x="611" 
d="M434 266q0 25 -5 53.5t-18.5 52.5t-39 40t-65.5 16q-41 0 -66 -16t-38.5 -40t-18.5 -52.5t-5 -53.5q0 -26 5 -54.5t18.5 -52.5t38.5 -39.5t66 -15.5q40 0 65.5 15.5t39 39.5t18.5 52.5t5 54.5zM578 266q0 -72 -22.5 -125t-60 -87.5t-86.5 -51t-103 -16.5t-103 16.5
t-86.5 51t-60 87.5t-22.5 125t22.5 124.5t60 87t86.5 51.5t103 17t103 -17t86.5 -51.5t60 -87t22.5 -124.5zM466 614h-126v115h126v-115zM271 614h-126v115h126v-115z" />
    <glyph glyph-name="divide" unicode="&#xf7;" horiz-adv-x="584" 
d="M204 46q0 18 7 34.5t19.5 28.5t28.5 19t34 7t34 -7t28 -19.5t19 -28.5t7 -34q0 -17 -7 -32.5t-19 -28t-28 -20t-33 -7.5q-18 0 -34.5 7t-29 19t-19.5 28t-7 34zM204 459q0 18 7 34.5t19.5 28.5t28.5 19t34 7t34 -7t28 -19.5t19 -28.5t7 -34q0 -17 -7 -32.5t-19 -28
t-28 -20t-33 -7.5q-18 0 -34.5 7t-29 19t-19.5 28t-7 34zM40 197v112h504v-112h-504z" />
    <glyph glyph-name="oslash" unicode="&#xf8;" horiz-adv-x="611" 
d="M518 454q28 -34 44 -80.5t16 -107.5q0 -72 -22.5 -125t-60 -87.5t-86.5 -51t-103 -16.5q-50 0 -95.5 14.5t-81.5 43.5l-69 -73l-38 29l73 77q-29 35 -45 81.5t-16 107.5q0 72 22.5 124.5t60 87t86.5 51.5t103 17q50 0 95.5 -14.5t83.5 -44.5l69 73l35 -32zM396 393
q-16 17 -37.5 26t-52.5 9q-41 0 -66 -16t-38.5 -40t-18.5 -52.5t-5 -53.5q0 -20 3 -42.5t12 -44.5zM218 138q14 -16 35.5 -25t52.5 -9q40 0 65.5 15.5t39 39.5t18.5 52.5t5 54.5q0 21 -3 43t-11 42z" />
    <glyph glyph-name="ugrave" unicode="&#xf9;" horiz-adv-x="611" 
d="M545 0h-134v75h-2q-24 -43 -65 -66t-97 -23q-39 0 -72.5 11.5t-57.5 35.5t-37.5 61t-13.5 88v350h140v-330q0 -31 8 -50t21 -29.5t29.5 -14.5t32.5 -4q17 0 36 5.5t35 19.5t26.5 37t10.5 59v307h140v-532zM116 750h154l94 -146h-101z" />
    <glyph glyph-name="uacute" unicode="&#xfa;" horiz-adv-x="611" 
d="M545 0h-134v75h-2q-24 -43 -65 -66t-97 -23q-39 0 -72.5 11.5t-57.5 35.5t-37.5 61t-13.5 88v350h140v-330q0 -31 8 -50t21 -29.5t29.5 -14.5t32.5 -4q17 0 36 5.5t35 19.5t26.5 37t10.5 59v307h140v-532zM348 604h-101l94 146h154z" />
    <glyph glyph-name="ucircumflex" unicode="&#xfb;" horiz-adv-x="611" 
d="M545 0h-134v75h-2q-24 -43 -65 -66t-97 -23q-39 0 -72.5 11.5t-57.5 35.5t-37.5 61t-13.5 88v350h140v-330q0 -31 8 -50t21 -29.5t29.5 -14.5t32.5 -4q17 0 36 5.5t35 19.5t26.5 37t10.5 59v307h140v-532zM482 604h-113l-64 82l-63 -82h-113l114 146h125z" />
    <glyph glyph-name="udieresis" unicode="&#xfc;" horiz-adv-x="611" 
d="M545 0h-134v75h-2q-24 -43 -65 -66t-97 -23q-39 0 -72.5 11.5t-57.5 35.5t-37.5 61t-13.5 88v350h140v-330q0 -31 8 -50t21 -29.5t29.5 -14.5t32.5 -4q17 0 36 5.5t35 19.5t26.5 37t10.5 59v307h140v-532zM466 614h-126v115h126v-115zM271 614h-126v115h126v-115z" />
    <glyph glyph-name="yacute" unicode="&#xfd;" 
d="M10 532h156l114 -392h2l109 392h148l-187 -539q-21 -58 -39 -102t-39 -67.5t-49.5 -30.5t-74.5 -7q-14 0 -31 0.5t-32 1.5v112q5 -1 11.5 -1.5t15.5 -0.5q19 0 34 2t26 10.5t19 24.5t13 43zM321 604h-101l94 146h154z" />
    <glyph glyph-name="thorn" unicode="&#xfe;" horiz-adv-x="611" 
d="M202 -208h-140v926h140v-254h2q7 12 19 26t30.5 26.5t43.5 21t60 8.5q44 0 84 -17t70.5 -51t48.5 -85.5t18 -120.5q0 -55 -13 -106.5t-40 -91.5t-69.5 -64t-101.5 -24q-37 0 -62.5 8.5t-43 21.5t-28 27t-16.5 25h-2v-276zM196 254q0 -30 6.5 -57.5t21.5 -48.5t38.5 -34
t56.5 -13q34 0 56 16.5t35 40.5t18.5 52t5.5 52q0 31 -6 60.5t-20 52.5t-37 36.5t-56 13.5q-36 0 -59 -15t-36.5 -39t-18.5 -54.5t-5 -62.5z" />
    <glyph glyph-name="ydieresis" unicode="&#xff;" 
d="M10 532h156l114 -392h2l109 392h148l-187 -539q-21 -58 -39 -102t-39 -67.5t-49.5 -30.5t-74.5 -7q-14 0 -31 0.5t-32 1.5v112q5 -1 11.5 -1.5t15.5 -0.5q19 0 34 2t26 10.5t19 24.5t13 43zM439 614h-126v115h126v-115zM244 614h-126v115h126v-115z" />
    <glyph glyph-name="Amacron" unicode="&#x100;" horiz-adv-x="722" 
d="M268 272h183l-89 284h-2zM178 0h-158l256 718h173l253 -718h-163l-46 148h-265zM534 817h-345v74h345v-74z" />
    <glyph glyph-name="amacron" unicode="&#x101;" 
d="M359 259q-11 -8 -31 -15t-64 -14q-20 -3 -37 -8t-30 -13.5t-20.5 -22.5t-7.5 -36q0 -18 6.5 -30.5t16 -20t21 -10.5t21.5 -3q23 0 45.5 7.5t40 21t28.5 33t11 43.5v68zM496 104q0 -47 9 -63t22 -20v-21h-151q-3 9 -5 16t-3.5 13.5t-2.5 14.5t-2 19q-12 -12 -27 -26
t-35.5 -25t-47 -18.5t-62.5 -7.5q-30 0 -59 8.5t-52 27.5t-37 48.5t-14 70.5q0 39 11.5 68.5t32.5 50.5t49.5 33.5t61.5 17.5l126 19q16 2 32.5 10.5t16.5 31.5q0 22 -9.5 34.5t-23 18.5t-30 7.5t-29.5 1.5q-26 0 -42.5 -7t-25.5 -18t-13 -24t-5 -25h-135q6 61 28.5 98
t55.5 56.5t73 25.5t81 6q28 0 64.5 -5.5t69.5 -22t55.5 -47t22.5 -79.5v-288zM454 604h-345v74h345v-74z" />
    <glyph glyph-name="Abreve" unicode="&#x102;" horiz-adv-x="722" 
d="M268 272h183l-89 284h-2zM178 0h-158l256 718h173l253 -718h-163l-46 148h-265zM534 936q-2 -17 -9 -42t-26 -48t-53 -39.5t-90 -16.5q-50 0 -81 17t-48 41t-23 48.5t-7 39.5h66q2 -10 6 -22t14 -22.5t28.5 -18t50.5 -7.5q17 0 34 2t32 9t26 21t15 38h65z" />
    <glyph glyph-name="abreve" unicode="&#x103;" 
d="M359 259q-11 -8 -31 -15t-64 -14q-20 -3 -37 -8t-30 -13.5t-20.5 -22.5t-7.5 -36q0 -18 6.5 -30.5t16 -20t21 -10.5t21.5 -3q23 0 45.5 7.5t40 21t28.5 33t11 43.5v68zM496 104q0 -47 9 -63t22 -20v-21h-151q-3 9 -5 16t-3.5 13.5t-2.5 14.5t-2 19q-12 -12 -27 -26
t-35.5 -25t-47 -18.5t-62.5 -7.5q-30 0 -59 8.5t-52 27.5t-37 48.5t-14 70.5q0 39 11.5 68.5t32.5 50.5t49.5 33.5t61.5 17.5l126 19q16 2 32.5 10.5t16.5 31.5q0 22 -9.5 34.5t-23 18.5t-30 7.5t-29.5 1.5q-26 0 -42.5 -7t-25.5 -18t-13 -24t-5 -25h-135q6 61 28.5 98
t55.5 56.5t73 25.5t81 6q28 0 64.5 -5.5t69.5 -22t55.5 -47t22.5 -79.5v-288zM453 750q-2 -17 -9 -42t-26 -48t-53 -39.5t-90 -16.5q-50 0 -81 17t-48 41t-23 48.5t-7 39.5h66q2 -10 6 -22t14 -22.5t28.5 -18t50.5 -7.5q17 0 34 2t32 9t26 21t15 38h65z" />
    <glyph glyph-name="Aogonek" unicode="&#x104;" horiz-adv-x="722" 
d="M532 -161q8 -7 20 -9.5t24 -2.5q18 0 36 5t29 10l18 -45q-24 -11 -52 -18t-57 -7q-24 0 -47 6t-40 18t-27.5 30t-10.5 41q0 36 17.5 61.5t39.5 41.5q25 18 57 30l-46 148h-265l-50 -148h-158l256 718h173l253 -718h-76q-20 -9 -36.5 -20.5t-24.5 -18.5q-31 -28 -40 -50.5
t-9 -37.5q0 -21 16 -34zM268 272h183l-89 284h-2z" />
    <glyph glyph-name="aogonek" unicode="&#x105;" 
d="M369 -161q8 -7 20 -9.5t24 -2.5q18 0 36 5t29 10l18 -45q-24 -11 -52 -18t-57 -7q-24 0 -47 6t-40 18t-27.5 30t-10.5 41q0 36 17.5 61.5t39.5 41.5q25 18 57 30q-3 9 -5 15.5t-3.5 13.5t-2.5 15t-2 19q-12 -12 -27 -26t-35.5 -25t-47 -18.5t-62.5 -7.5q-30 0 -59 8.5
t-52 27.5t-37 48.5t-14 70.5q0 39 11.5 68.5t32.5 50.5t49.5 33.5t61.5 17.5l126 19q16 2 32.5 10.5t16.5 31.5q0 22 -9.5 34.5t-23 18.5t-30 7.5t-29.5 1.5q-26 0 -42 -7t-25.5 -18t-13.5 -24t-5 -25h-135q6 61 28.5 98t55.5 56.5t73 25.5t81 6q28 0 64.5 -5.5t69.5 -22
t55.5 -47t22.5 -79.5v-288q0 -24 2.5 -39t6.5 -24t10 -13.5t12 -6.5v-21h-63q-20 -9 -37 -20.5t-25 -18.5q-31 -28 -40 -50.5t-9 -37.5q0 -21 16 -34zM359 259q-11 -8 -31 -15t-64 -14q-20 -3 -37 -7.5t-30 -13.5t-20.5 -23t-7.5 -36q0 -18 6.5 -30.5t16 -20t21 -10.5
t21.5 -3q23 0 45.5 7.5t40 21t28.5 33t11 43.5v68z" />
    <glyph glyph-name="Cacute" unicode="&#x106;" horiz-adv-x="722" 
d="M534 483q-5 16 -12.5 37.5t-25 40.5t-46.5 32.5t-75 13.5q-27 0 -58 -10.5t-58 -38.5t-44.5 -77t-17.5 -125q0 -48 10 -92.5t31.5 -78.5t55 -54t81.5 -20q63 0 104 34.5t55 100.5h150q-11 -59 -36 -107.5t-64 -83.5t-92 -54.5t-120 -19.5q-72 0 -132 24t-103.5 71.5
t-68 118t-24.5 163.5q0 94 25.5 165t70 118.5t105 71.5t129.5 24q81 0 138 -25t94.5 -62.5t56 -82t21.5 -84.5h-150zM416 790h-101l94 146h154z" />
    <glyph glyph-name="cacute" unicode="&#x107;" 
d="M523 194q-1 -14 -6 -34.5t-16 -43.5t-28.5 -46.5t-44 -42t-63 -30t-85.5 -11.5q-75 0 -123 25.5t-75 65t-37.5 86t-10.5 88.5q0 64 14.5 118.5t45.5 93.5t79 61t116 22q31 0 70 -8.5t74 -31t60.5 -62.5t30.5 -102h-142q-2 13 -7.5 28t-15.5 28t-25.5 21.5t-37.5 8.5h-7
q-33 0 -54.5 -15t-34 -37.5t-17.5 -49.5t-5 -52q0 -22 2 -51.5t12.5 -56.5t32 -46t61.5 -19q27 0 45 11t29 26t16 31t5 25h142zM328 604h-101l94 146h154z" />
    <glyph glyph-name="Ccircumflex" unicode="&#x108;" horiz-adv-x="722" 
d="M534 483q-5 16 -12.5 37.5t-25 40.5t-46.5 32.5t-75 13.5q-27 0 -58 -10.5t-58 -38.5t-44.5 -77t-17.5 -125q0 -48 10 -92.5t31.5 -78.5t55 -54t81.5 -20q63 0 104 34.5t55 100.5h150q-11 -59 -36 -107.5t-64 -83.5t-92 -54.5t-120 -19.5q-72 0 -132 24t-103.5 71.5
t-68 118t-24.5 163.5q0 94 25.5 165t70 118.5t105 71.5t129.5 24q81 0 138 -25t94.5 -62.5t56 -82t21.5 -84.5h-150zM556 790h-113l-64 82l-63 -82h-113l114 146h125z" />
    <glyph glyph-name="ccircumflex" unicode="&#x109;" 
d="M523 194q-1 -14 -6 -34.5t-16 -43.5t-28.5 -46.5t-44 -42t-63 -30t-85.5 -11.5q-75 0 -123 25.5t-75 65t-37.5 86t-10.5 88.5q0 64 14.5 118.5t45.5 93.5t79 61t116 22q31 0 70 -8.5t74 -31t60.5 -62.5t30.5 -102h-142q-2 13 -7.5 28t-15.5 28t-25.5 21.5t-37.5 8.5h-7
q-33 0 -54.5 -15t-34 -37.5t-17.5 -49.5t-5 -52q0 -22 2 -51.5t12.5 -56.5t32 -46t61.5 -19q27 0 45 11t29 26t16 31t5 25h142zM472 604h-113l-64 82l-63 -82h-113l114 146h125z" />
    <glyph glyph-name="Cdotaccent" unicode="&#x10a;" horiz-adv-x="722" 
d="M534 483q-5 16 -12.5 37.5t-25 40.5t-46.5 32.5t-75 13.5q-27 0 -58 -10.5t-58 -38.5t-44.5 -77t-17.5 -125q0 -48 10 -92.5t31.5 -78.5t55 -54t81.5 -20q63 0 104 34.5t55 100.5h150q-11 -59 -36 -107.5t-64 -83.5t-92 -54.5t-120 -19.5q-72 0 -132 24t-103.5 71.5
t-68 118t-24.5 163.5q0 94 25.5 165t70 118.5t105 71.5t129.5 24q81 0 138 -25t94.5 -62.5t56 -82t21.5 -84.5h-150zM440 800h-126v115h126v-115z" />
    <glyph glyph-name="cdotaccent" unicode="&#x10b;" 
d="M523 194q-1 -14 -6 -34.5t-16 -43.5t-28.5 -46.5t-44 -42t-63 -30t-85.5 -11.5q-75 0 -123 25.5t-75 65t-37.5 86t-10.5 88.5q0 64 14.5 118.5t45.5 93.5t79 61t116 22q31 0 70 -8.5t74 -31t60.5 -62.5t30.5 -102h-142q-2 13 -7.5 28t-15.5 28t-25.5 21.5t-37.5 8.5h-7
q-33 0 -54.5 -15t-34 -37.5t-17.5 -49.5t-5 -52q0 -22 2 -51.5t12.5 -56.5t32 -46t61.5 -19q27 0 45 11t29 26t16 31t5 25h142zM352 614h-126v115h126v-115z" />
    <glyph glyph-name="Ccaron" unicode="&#x10c;" horiz-adv-x="722" 
d="M534 483q-5 16 -12.5 37.5t-25 40.5t-46.5 32.5t-75 13.5q-27 0 -58 -10.5t-58 -38.5t-44.5 -77t-17.5 -125q0 -48 10 -92.5t31.5 -78.5t55 -54t81.5 -20q63 0 104 34.5t55 100.5h150q-11 -59 -36 -107.5t-64 -83.5t-92 -54.5t-120 -19.5q-72 0 -132 24t-103.5 71.5
t-68 118t-24.5 163.5q0 94 25.5 165t70 118.5t105 71.5t129.5 24q81 0 138 -25t94.5 -62.5t56 -82t21.5 -84.5h-150zM449 790h-125l-114 146h113l63 -82l64 82h113z" />
    <glyph glyph-name="ccaron" unicode="&#x10d;" 
d="M523 194q-1 -14 -6 -34.5t-16 -43.5t-28.5 -46.5t-44 -42t-63 -30t-85.5 -11.5q-75 0 -123 25.5t-75 65t-37.5 86t-10.5 88.5q0 64 14.5 118.5t45.5 93.5t79 61t116 22q31 0 70 -8.5t74 -31t60.5 -62.5t30.5 -102h-142q-2 13 -7.5 28t-15.5 28t-25.5 21.5t-37.5 8.5h-7
q-33 0 -54.5 -15t-34 -37.5t-17.5 -49.5t-5 -52q0 -22 2 -51.5t12.5 -56.5t32 -46t61.5 -19q27 0 45 11t29 26t16 31t5 25h142zM361 604h-125l-114 146h113l63 -82l64 82h113z" />
    <glyph glyph-name="Dcaron" unicode="&#x10e;" horiz-adv-x="722" 
d="M223 124h146q46 0 77 21t50 55t27.5 77.5t8.5 87.5q0 79 -17 125t-41.5 69t-53.5 29t-53 6h-144v-470zM76 718h317q60 0 105.5 -16t78 -42.5t53.5 -61.5t33 -73t17 -76.5t5 -72.5q0 -38 -5.5 -81t-19 -85t-35.5 -80t-55.5 -67t-78.5 -46t-104 -17h-311v718zM389 790h-125
l-114 146h113l63 -82l64 82h113z" />
    <glyph glyph-name="dcaron" unicode="&#x10f;" horiz-adv-x="611" 
d="M178 262q0 -24 5.5 -52t18.5 -52t35 -40.5t56 -16.5q33 0 56.5 13t38.5 34t22 48.5t7 57.5q0 32 -5.5 62.5t-19 54.5t-36.5 39t-59 15q-33 0 -56 -13.5t-37 -36.5t-20 -52.5t-6 -60.5zM551 0h-137v67h-2q-26 -45 -68 -63t-86 -18q-59 0 -101.5 24t-69.5 64t-40 91.5
t-13 106.5q0 69 18 120.5t48.5 85.5t70.5 51t84 17q34 0 59 -8t43.5 -20.5t31 -27t20.5 -27.5h2v255h140v-718zM714 692q0 -32 -8 -54.5t-22 -38t-32.5 -25t-41.5 -13.5h-1v37q10 3 19.5 7.5t18 13t14.5 23t7 36.5h-59v102h105v-88z" />
    <glyph glyph-name="Dcroat" unicode="&#x110;" horiz-adv-x="722" 
d="M-5 440h81v278h317q60 0 105.5 -16t78 -42.5t53.5 -61.5t33 -73t17 -76.5t5 -72.5q0 -38 -5.5 -81t-19 -85t-35.5 -80t-55.5 -67t-78.5 -46t-104 -17h-311v353h-81v87zM223 440h166v-87h-166v-229h146q46 0 77 21t50 55t27.5 77.5t8.5 87.5q0 79 -17 125t-41.5 69
t-53.5 29t-53 6h-144v-154z" />
    <glyph glyph-name="dcroat" unicode="&#x111;" horiz-adv-x="611" 
d="M607 590h-56v-590h-137v67h-2q-26 -45 -67.5 -63t-86.5 -18q-59 0 -101.5 24t-69.5 64t-40 91.5t-13 106.5q0 69 18 120.5t48.5 85.5t70.5 51t84 17q34 0 59 -8t43.5 -20.5t31 -27t20.5 -27.5h2v127h-171v77h171v51h140v-51h56v-77zM178 262q0 -24 5.5 -52t18.5 -52
t35 -40.5t56 -16.5q33 0 56.5 13t38.5 34t22 48.5t7 57.5q0 31 -5.5 62t-19 55t-36.5 39t-59 15q-33 0 -56 -13.5t-37 -36.5t-20 -52.5t-6 -60.5z" />
    <glyph glyph-name="Emacron" unicode="&#x112;" horiz-adv-x="667" 
d="M604 591h-381v-151h350v-127h-350v-186h398v-127h-545v718h528v-127zM524 817h-345v74h345v-74z" />
    <glyph glyph-name="emacron" unicode="&#x113;" 
d="M384 319q-3 32 -14 53.5t-26 34.5t-33 18.5t-35 5.5q-50 0 -76.5 -29.5t-32.5 -82.5h217zM522 156q-14 -48 -39.5 -80.5t-57.5 -52.5t-67.5 -28.5t-69.5 -8.5q-56 0 -104.5 14.5t-84 48.5t-56 90t-20.5 138q0 16 2.5 42t11.5 56t26 60.5t45.5 55t70 40t99.5 15.5
q39 0 83 -11.5t81 -44t61.5 -89.5t24.5 -148v-25h-365q1 -15 5 -37t16.5 -43t37 -35.5t66.5 -14.5q29 0 55.5 14.5t34.5 43.5h144zM453 604h-345v74h345v-74z" />
    <glyph glyph-name="Ebreve" unicode="&#x114;" horiz-adv-x="667" 
d="M604 591h-381v-151h350v-127h-350v-186h398v-127h-545v718h528v-127zM521 936q-2 -17 -9 -42t-26 -48t-53 -39.5t-90 -16.5q-50 0 -81 17t-48 41t-23 48.5t-7 39.5h66q2 -10 6 -22t14 -22.5t28.5 -18t50.5 -7.5q17 0 34 2t32 9t26 21t15 38h65z" />
    <glyph glyph-name="ebreve" unicode="&#x115;" 
d="M384 319q-3 32 -14 53.5t-26 34.5t-33 18.5t-35 5.5q-50 0 -76.5 -29.5t-32.5 -82.5h217zM522 156q-14 -48 -39.5 -80.5t-57.5 -52.5t-67.5 -28.5t-69.5 -8.5q-56 0 -104.5 14.5t-84 48.5t-56 90t-20.5 138q0 16 2.5 42t11.5 56t26 60.5t45.5 55t70 40t99.5 15.5
q39 0 83 -11.5t81 -44t61.5 -89.5t24.5 -148v-25h-365q1 -15 5 -37t16.5 -43t37 -35.5t66.5 -14.5q29 0 55.5 14.5t34.5 43.5h144zM457 750q-2 -17 -9 -42t-26 -48t-53 -39.5t-90 -16.5q-50 0 -81 17t-48 41t-23 48.5t-7 39.5h66q2 -10 6 -22t14 -22.5t28.5 -18t50.5 -7.5
q17 0 34 2t32 9t26 21t15 38h65z" />
    <glyph glyph-name="Edotaccent" unicode="&#x116;" horiz-adv-x="667" 
d="M604 591h-381v-151h350v-127h-350v-186h398v-127h-545v718h528v-127zM417 800h-126v115h126v-115z" />
    <glyph glyph-name="edotaccent" unicode="&#x117;" 
d="M384 319q-3 32 -14 53.5t-26 34.5t-33 18.5t-35 5.5q-50 0 -76.5 -29.5t-32.5 -82.5h217zM522 156q-14 -48 -39.5 -80.5t-57.5 -52.5t-67.5 -28.5t-69.5 -8.5q-56 0 -104.5 14.5t-84 48.5t-56 90t-20.5 138q0 16 2.5 42t11.5 56t26 60.5t45.5 55t70 40t99.5 15.5
q39 0 83 -11.5t81 -44t61.5 -89.5t24.5 -148v-25h-365q1 -15 5 -37t16.5 -43t37 -35.5t66.5 -14.5q29 0 55.5 14.5t34.5 43.5h144zM347 614h-126v115h126v-115z" />
    <glyph glyph-name="Eogonek" unicode="&#x118;" horiz-adv-x="667" 
d="M459 -161q8 -7 20 -9.5t24 -2.5q18 0 36 5t29 10l18 -45q-24 -11 -52 -18t-57 -7q-24 0 -47 6t-40 18t-27.5 30t-10.5 41q0 36 17.5 61.5t39.5 41.5q25 18 57 30h-390v718h528v-127h-381v-151h350v-127h-350v-186h398v-127h-69q-19 -9 -35.5 -20.5t-24.5 -18.5
q-31 -28 -40 -50.5t-9 -37.5q0 -21 16 -34z" />
    <glyph glyph-name="eogonek" unicode="&#x119;" 
d="M258 -161q8 -7 20 -9.5t24 -2.5q18 0 36 5t29 10l18 -45q-24 -11 -52 -18t-57 -7q-24 0 -47 6t-40 18t-27.5 30t-10.5 41q0 25 9 45t22.5 35t28.5 25.5t28 16.5q-47 6 -86.5 24t-68.5 52.5t-45 86.5t-16 125q0 16 2.5 42t11.5 56t26 60.5t45.5 55t70 40t99.5 15.5
q39 0 83 -11.5t81 -44t61.5 -89.5t24.5 -148v-25h-365q1 -15 5 -37t16.5 -43t37 -35.5t66.5 -14.5q29 0 55.5 14.5t34.5 43.5h144q-12 -41 -32.5 -70.5t-46 -49.5t-54.5 -31.5t-59 -15.5q-11 -7 -22.5 -15t-16.5 -13q-31 -28 -40 -50.5t-9 -37.5q0 -21 16 -34zM384 319
q-3 32 -14 53.5t-26 34.5t-33 18.5t-35 5.5q-51 0 -77 -29t-32 -83h217z" />
    <glyph glyph-name="Ecaron" unicode="&#x11a;" horiz-adv-x="667" 
d="M604 591h-381v-151h350v-127h-350v-186h398v-127h-545v718h528v-127zM423 790h-125l-114 146h113l63 -82l64 82h113z" />
    <glyph glyph-name="ecaron" unicode="&#x11b;" 
d="M384 319q-3 32 -14 53.5t-26 34.5t-33 18.5t-35 5.5q-50 0 -76.5 -29.5t-32.5 -82.5h217zM522 156q-14 -48 -39.5 -80.5t-57.5 -52.5t-67.5 -28.5t-69.5 -8.5q-56 0 -104.5 14.5t-84 48.5t-56 90t-20.5 138q0 16 2.5 42t11.5 56t26 60.5t45.5 55t70 40t99.5 15.5
q39 0 83 -11.5t81 -44t61.5 -89.5t24.5 -148v-25h-365q1 -15 5 -37t16.5 -43t37 -35.5t66.5 -14.5q29 0 55.5 14.5t34.5 43.5h144zM344 604h-125l-114 146h113l63 -82l64 82h113z" />
    <glyph glyph-name="Gcircumflex" unicode="&#x11c;" horiz-adv-x="778" 
d="M413 387h300v-387h-100l-15 90q-14 -17 -32.5 -36t-44.5 -35t-62 -27t-85 -11q-65 0 -124.5 23.5t-105.5 70t-73 117t-27 165.5q0 73 20.5 141.5t63.5 121.5t109 85t156 32h2q82 0 140.5 -24t96.5 -60t56.5 -78.5t21.5 -79.5h-150q0 10 -9.5 30t-29 39.5t-49 34
t-69.5 14.5t-77.5 -14.5t-66 -45.5t-45.5 -80t-17 -118q0 -74 18.5 -121.5t48 -75.5t67 -39t75.5 -11q12 0 36.5 4.5t51 20.5t50.5 47.5t36 85.5h-167v121zM589 790h-113l-64 82l-63 -82h-113l114 146h125z" />
    <glyph glyph-name="gcircumflex" unicode="&#x11d;" horiz-adv-x="611" 
d="M184 263q0 -26 5.5 -52t18.5 -47.5t34.5 -35t52.5 -13.5q36 0 59 14t36.5 36t18.5 49.5t5 54.5q0 32 -8 60.5t-23 49.5t-37.5 33.5t-51.5 12.5q-20 0 -39.5 -8t-35 -26.5t-25.5 -50t-10 -77.5zM553 532v-504q0 -23 -1.5 -50t-10 -54.5t-25 -52.5t-46.5 -44.5t-75.5 -31.5
t-110.5 -12q-41 0 -81.5 9t-73.5 28.5t-54 50t-23 72.5h152q2 -10 6.5 -20t14.5 -17.5t28.5 -12t48.5 -4.5q57 0 84 28.5t27 93.5v64l-2 2q-9 -15 -20.5 -29.5t-28 -26t-39.5 -18t-54 -6.5q-48 0 -90 17t-72.5 51t-48.5 85.5t-18 121.5q0 69 18 120.5t48.5 85.5t70.5 51
t84 17q37 0 63.5 -9.5t45 -24t30 -30.5t17.5 -29h2v79h134zM511 604h-113l-64 82l-63 -82h-113l114 146h125z" />
    <glyph glyph-name="Gbreve" unicode="&#x11e;" horiz-adv-x="778" 
d="M413 387h300v-387h-100l-15 90q-14 -17 -32.5 -36t-44.5 -35t-62 -27t-85 -11q-65 0 -124.5 23.5t-105.5 70t-73 117t-27 165.5q0 73 20.5 141.5t63.5 121.5t109 85t156 32h2q82 0 140.5 -24t96.5 -60t56.5 -78.5t21.5 -79.5h-150q0 10 -9.5 30t-29 39.5t-49 34
t-69.5 14.5t-77.5 -14.5t-66 -45.5t-45.5 -80t-17 -118q0 -74 18.5 -121.5t48 -75.5t67 -39t75.5 -11q12 0 36.5 4.5t51 20.5t50.5 47.5t36 85.5h-167v121zM582 936q-2 -17 -9 -42t-26 -48t-53 -39.5t-90 -16.5q-50 0 -81 17t-48 41t-23 48.5t-7 39.5h66q2 -10 6 -22
t14 -22.5t28.5 -18t50.5 -7.5q17 0 34 2t32 9t26 21t15 38h65z" />
    <glyph glyph-name="gbreve" unicode="&#x11f;" horiz-adv-x="611" 
d="M184 263q0 -26 5.5 -52t18.5 -47.5t34.5 -35t52.5 -13.5q36 0 59 14t36.5 36t18.5 49.5t5 54.5q0 32 -8 60.5t-23 49.5t-37.5 33.5t-51.5 12.5q-20 0 -39.5 -8t-35 -26.5t-25.5 -50t-10 -77.5zM553 532v-504q0 -23 -1.5 -50t-10 -54.5t-25 -52.5t-46.5 -44.5t-75.5 -31.5
t-110.5 -12q-41 0 -81.5 9t-73.5 28.5t-54 50t-23 72.5h152q2 -10 6.5 -20t14.5 -17.5t28.5 -12t48.5 -4.5q57 0 84 28.5t27 93.5v64l-2 2q-9 -15 -20.5 -29.5t-28 -26t-39.5 -18t-54 -6.5q-48 0 -90 17t-72.5 51t-48.5 85.5t-18 121.5q0 69 18 120.5t48.5 85.5t70.5 51
t84 17q37 0 63.5 -9.5t45 -24t30 -30.5t17.5 -29h2v79h134zM500 750q-2 -17 -9 -42t-26 -48t-53 -39.5t-90 -16.5q-50 0 -81 17t-48 41t-23 48.5t-7 39.5h66q2 -10 6 -22t14 -22.5t28.5 -18t50.5 -7.5q17 0 34 2t32 9t26 21t15 38h65z" />
    <glyph glyph-name="Gdotaccent" unicode="&#x120;" horiz-adv-x="778" 
d="M413 387h300v-387h-100l-15 90q-14 -17 -32.5 -36t-44.5 -35t-62 -27t-85 -11q-65 0 -124.5 23.5t-105.5 70t-73 117t-27 165.5q0 73 20.5 141.5t63.5 121.5t109 85t156 32h2q82 0 140.5 -24t96.5 -60t56.5 -78.5t21.5 -79.5h-150q0 10 -9.5 30t-29 39.5t-49 34
t-69.5 14.5t-77.5 -14.5t-66 -45.5t-45.5 -80t-17 -118q0 -74 18.5 -121.5t48 -75.5t67 -39t75.5 -11q12 0 36.5 4.5t51 20.5t50.5 47.5t36 85.5h-167v121zM478 800h-126v115h126v-115z" />
    <glyph glyph-name="gdotaccent" unicode="&#x121;" horiz-adv-x="611" 
d="M184 263q0 -26 5.5 -52t18.5 -47.5t34.5 -35t52.5 -13.5q36 0 59 14t36.5 36t18.5 49.5t5 54.5q0 32 -8 60.5t-23 49.5t-37.5 33.5t-51.5 12.5q-20 0 -39.5 -8t-35 -26.5t-25.5 -50t-10 -77.5zM553 532v-504q0 -23 -1.5 -50t-10 -54.5t-25 -52.5t-46.5 -44.5t-75.5 -31.5
t-110.5 -12q-41 0 -81.5 9t-73.5 28.5t-54 50t-23 72.5h152q2 -10 6.5 -20t14.5 -17.5t28.5 -12t48.5 -4.5q57 0 84 28.5t27 93.5v64l-2 2q-9 -15 -20.5 -29.5t-28 -26t-39.5 -18t-54 -6.5q-48 0 -90 17t-72.5 51t-48.5 85.5t-18 121.5q0 69 18 120.5t48.5 85.5t70.5 51
t84 17q37 0 63.5 -9.5t45 -24t30 -30.5t17.5 -29h2v79h134zM392 614h-126v115h126v-115z" />
    <glyph glyph-name="Gcommaaccent" unicode="&#x122;" horiz-adv-x="778" 
d="M413 387h300v-387h-100l-15 90q-14 -17 -32.5 -36t-44.5 -35t-62 -27t-85 -11q-65 0 -124.5 23.5t-105.5 70t-73 117t-27 165.5q0 73 20.5 141.5t63.5 121.5t109 85t156 32h2q82 0 140.5 -24t96.5 -60t56.5 -78.5t21.5 -79.5h-150q0 10 -9.5 30t-29 39.5t-49 34
t-69.5 14.5t-77.5 -14.5t-66 -45.5t-45.5 -80t-17 -118q0 -74 18.5 -121.5t48 -75.5t67 -39t75.5 -11q12 0 36.5 4.5t51 20.5t50.5 47.5t36 85.5h-167v121zM425 -132q0 -32 -8 -54.5t-22 -38t-32.5 -25t-41.5 -13.5h-1v37q10 3 19.5 7.5t18 13t14.5 23t7 36.5h-59v102h105
v-88z" />
    <glyph glyph-name="gcommaaccent" unicode="&#x123;" horiz-adv-x="611" 
d="M184 263q0 -26 5.5 -52t18.5 -47.5t34.5 -35t52.5 -13.5q36 0 59 14t36.5 36t18.5 49.5t5 54.5q0 32 -8 60.5t-23 49.5t-37.5 33.5t-51.5 12.5q-20 0 -39.5 -8t-35 -26.5t-25.5 -50t-10 -77.5zM553 532v-504q0 -23 -1.5 -50t-10 -54.5t-25 -52.5t-46.5 -44.5t-75.5 -31.5
t-110.5 -12q-41 0 -81.5 9t-73.5 28.5t-54 50t-23 72.5h152q2 -10 6.5 -20t14.5 -17.5t28.5 -12t48.5 -4.5q57 0 84 28.5t27 93.5v64l-2 2q-9 -15 -20.5 -29.5t-28 -26t-39.5 -18t-54 -6.5q-48 0 -90 17t-72.5 51t-48.5 85.5t-18 121.5q0 69 18 120.5t48.5 85.5t70.5 51
t84 17q37 0 63.5 -9.5t45 -24t30 -30.5t17.5 -29h2v79h134zM276 692q0 32 8 54.5t22 38t32.5 25t41.5 13.5h1v-37q-10 -3 -19.5 -7.5t-18 -13t-14.5 -23t-7 -36.5h59v-102h-105v88z" />
    <glyph glyph-name="Hcircumflex" unicode="&#x124;" horiz-adv-x="722" 
d="M221 322v-322h-150v718h150v-272h280v272h150v-718h-150v322h-280zM534 790h-113l-64 82l-63 -82h-113l114 146h125z" />
    <glyph glyph-name="hcircumflex" unicode="&#x125;" horiz-adv-x="611" 
d="M546 0h-140v323q0 15 -1.5 33t-10.5 34t-27.5 27t-51.5 11q-47 0 -78.5 -31t-31.5 -92v-305h-140v718h140v-255h2q7 16 21 31.5t34 26.5t45 18t54 7q39 0 73 -11.5t58.5 -34t39 -55.5t14.5 -77v-368zM448 758h-113l-64 82l-63 -82h-113l114 146h125z" />
    <glyph glyph-name="Hbar" unicode="&#x126;" horiz-adv-x="722" 
d="M501 718h150v-718h-150v322h-280v-322h-150v718h150v-92h280v92zM221 446h280v100h-280v-100z" />
    <glyph glyph-name="hbar" unicode="&#x127;" horiz-adv-x="611" 
d="M345 590h-140v-127h2q14 33 54.5 58t99.5 25q39 0 73 -11.5t58.5 -34t39 -56t14.5 -76.5v-368h-140v323q0 15 -1.5 33t-10.5 34t-27.5 27t-51.5 11q-48 0 -79 -31t-31 -92v-305h-140v590h-56v77h56v51h140v-51h140v-77z" />
    <glyph glyph-name="Itilde" unicode="&#x128;" horiz-adv-x="278" 
d="M214 0h-150v718h150v-718zM324 923q-2 -11 -7.5 -31.5t-17.5 -40t-32.5 -34t-51.5 -14.5q-17 0 -39.5 5.5t-36.5 10.5q-24 8 -41 14t-30 6t-22 -5t-14 -12t-7.5 -14.5t-3.5 -11.5h-64q3 15 9 35.5t20 40.5t36 33.5t56 13.5q17 0 31.5 -4.5t40.5 -14.5t38.5 -13.5
t23.5 -3.5q25 0 34.5 13.5t12.5 26.5h65z" />
    <glyph glyph-name="itilde" unicode="&#x129;" horiz-adv-x="278" 
d="M209 532v-532h-140v532h140zM325 737q-2 -11 -7.5 -31.5t-17.5 -40t-32.5 -34t-51.5 -14.5q-17 0 -39.5 5.5t-36.5 10.5q-24 8 -41 14t-30 6t-22 -5t-14 -12t-7.5 -14.5t-3.5 -11.5h-64q3 15 9 35.5t20 40.5t36 33.5t56 13.5q17 0 31.5 -4.5t40.5 -14.5t38.5 -13.5
t23.5 -3.5q25 0 34.5 13.5t12.5 26.5h65z" />
    <glyph glyph-name="Imacron" unicode="&#x12a;" horiz-adv-x="278" 
d="M214 0h-150v718h150v-718zM312 817h-345v74h345v-74z" />
    <glyph glyph-name="imacron" unicode="&#x12b;" horiz-adv-x="278" 
d="M209 532v-532h-140v532h140zM314 604h-345v74h345v-74z" />
    <glyph glyph-name="Iogonek" unicode="&#x12e;" horiz-adv-x="278" 
d="M57 -161q8 -7 20 -9.5t24 -2.5q18 0 36 5t29 10l18 -45q-24 -11 -52 -18t-57 -7q-24 0 -47 6t-40 18t-27.5 30t-10.5 41q0 36 17.5 61.5t39.5 41.5q25 18 57 30v718h150v-718h-64q-19 -9 -35.5 -20.5t-24.5 -18.5q-31 -28 -40 -50.5t-9 -37.5q0 -21 16 -34z" />
    <glyph glyph-name="iogonek" unicode="&#x12f;" horiz-adv-x="278" 
d="M62 -161q8 -7 20 -9.5t24 -2.5q18 0 36 5t29 10l18 -45q-24 -11 -52 -18t-57 -7q-24 0 -47 6t-40 18t-27.5 30t-10.5 41q0 36 17.5 61.5t39.5 41.5q25 18 57 30v532h140v-532h-53q-20 -9 -36.5 -20.5t-24.5 -18.5q-31 -28 -40 -50.5t-9 -37.5q0 -21 16 -34zM209 595h-140
v130h140v-130z" />
    <glyph glyph-name="Idotaccent" unicode="&#x130;" horiz-adv-x="278" 
d="M214 0h-150v718h150v-718zM201 800h-126v115h126v-115z" />
    <glyph glyph-name="dotlessi" unicode="&#x131;" horiz-adv-x="278" 
d="M209 532v-532h-140v532h140z" />
    <glyph glyph-name="Jcircumflex" unicode="&#x134;" 
d="M484 208q0 -115 -57 -170.5t-166 -55.5q-60 0 -101 12t-67.5 32.5t-41 48.5t-21 60t-7.5 67t-1 69h140q0 -42 2.5 -73.5t11.5 -52.5t26.5 -31.5t47.5 -10.5q29 0 46 8.5t25.5 23t10.5 33.5t2 40v510h150v-510zM582 790h-113l-64 82l-63 -82h-113l114 146h125z" />
    <glyph glyph-name="jcircumflex" unicode="&#x135;" horiz-adv-x="278" 
d="M209 -56q0 -52 -11.5 -83.5t-33.5 -48t-54 -21.5t-72 -5h-35v112h25q5 0 12 1t13.5 5.5t11 14.5t4.5 28v585h140v-588zM319 604h-113l-64 82l-63 -82h-113l114 146h125z" />
    <glyph glyph-name="Kcommaaccent" unicode="&#x136;" horiz-adv-x="722" 
d="M237 0h-150v718h150v-292l274 292h194l-293 -294l310 -424h-193l-222 315l-70 -72v-243zM437 -132q0 -32 -8 -54.5t-22 -38t-32.5 -25t-41.5 -13.5h-1v37q10 3 19.5 7.5t18 13t14.5 23t7 36.5h-59v102h105v-88z" />
    <glyph glyph-name="kcommaaccent" unicode="&#x137;" 
d="M209 0h-140v718h140v-388l176 202h172l-188 -206l193 -326h-168l-127 228l-58 -60v-168zM359 -132q0 -32 -8 -54.5t-22 -38t-32.5 -25t-41.5 -13.5h-1v37q10 3 19.5 7.5t18 13t14.5 23t7 36.5h-59v102h105v-88z" />
    <glyph glyph-name="Lacute" unicode="&#x139;" horiz-adv-x="611" 
d="M226 130h357v-130h-507v718h150v-588zM183 790h-101l94 146h154z" />
    <glyph glyph-name="lacute" unicode="&#x13a;" horiz-adv-x="278" 
d="M209 0h-140v718h140v-718zM171 789h-101l94 146h154z" />
    <glyph glyph-name="Lcommaaccent" unicode="&#x13b;" horiz-adv-x="611" 
d="M226 130h357v-130h-507v718h150v-588zM379 -132q0 -32 -8 -54.5t-22 -38t-32.5 -25t-41.5 -13.5h-1v37q10 3 19.5 7.5t18 13t14.5 23t7 36.5h-59v102h105v-88z" />
    <glyph glyph-name="lcommaaccent" unicode="&#x13c;" horiz-adv-x="278" 
d="M209 0h-140v718h140v-718zM193 -132q0 -32 -8 -54.5t-22 -38t-32.5 -25t-41.5 -13.5h-1v37q10 3 19.5 7.5t18 13t14.5 23t7 36.5h-59v102h105v-88z" />
    <glyph glyph-name="Lcaron" unicode="&#x13d;" horiz-adv-x="611" 
d="M226 130h357v-130h-507v718h150v-588zM426 692q0 -32 -8 -54.5t-22 -38t-32.5 -25t-41.5 -13.5h-1v37q10 3 19.5 7.5t18 13t14.5 23t7 36.5h-59v102h105v-88z" />
    <glyph glyph-name="lcaron" unicode="&#x13e;" horiz-adv-x="278" 
d="M209 0h-140v718h140v-718zM377 692q0 -32 -8 -54.5t-22 -38t-32.5 -25t-41.5 -13.5h-1v37q10 3 19.5 7.5t18 13t14.5 23t7 36.5h-59v102h105v-88z" />
    <glyph glyph-name="Ldot" unicode="&#x13f;" horiz-adv-x="611" 
d="M226 130h357v-130h-507v718h150v-588zM517 361h-126v115h126v-115z" />
    <glyph glyph-name="ldot" unicode="&#x140;" horiz-adv-x="420" 
d="M209 0h-140v718h140v-718zM411 322h-126v115h126v-115z" />
    <glyph glyph-name="Lslash" unicode="&#x141;" horiz-adv-x="611" 
d="M355 445l-129 -74v-241h357v-130h-507v286l-83 -47v86l83 47v346h150v-260l129 74v-87z" />
    <glyph glyph-name="lslash" unicode="&#x142;" horiz-adv-x="278" 
d="M209 477l82 47v-85l-82 -47v-392h-140v313l-72 -40v85l72 40v320h140v-241z" />
    <glyph glyph-name="Nacute" unicode="&#x143;" horiz-adv-x="722" 
d="M514 718h140v-718h-150l-293 512h-2v-512h-140v718h158l285 -500h2v500zM426 790h-101l94 146h154z" />
    <glyph glyph-name="nacute" unicode="&#x144;" horiz-adv-x="611" 
d="M546 0h-140v323q0 15 -1.5 33t-10.5 34t-27.5 27t-51.5 11q-47 0 -78.5 -31t-31.5 -92v-305h-140v532h134v-78h2q7 12 18.5 28t30.5 30t46 24t65 10q39 0 73 -11.5t58.5 -34t39 -55.5t14.5 -77v-368zM357 604h-101l94 146h154z" />
    <glyph glyph-name="Ncommaaccent" unicode="&#x145;" horiz-adv-x="722" 
d="M514 718h140v-718h-150l-293 512h-2v-512h-140v718h158l285 -500h2v500zM415 -132q0 -32 -8 -54.5t-22 -38t-32.5 -25t-41.5 -13.5h-1v37q10 3 19.5 7.5t18 13t14.5 23t7 36.5h-59v102h105v-88z" />
    <glyph glyph-name="ncommaaccent" unicode="&#x146;" horiz-adv-x="611" 
d="M546 0h-140v323q0 15 -1.5 33t-10.5 34t-27.5 27t-51.5 11q-47 0 -78.5 -31t-31.5 -92v-305h-140v532h134v-78h2q7 12 18.5 28t30.5 30t46 24t65 10q39 0 73 -11.5t58.5 -34t39 -55.5t14.5 -77v-368zM362 -132q0 -32 -8 -54.5t-22 -38t-32.5 -25t-41.5 -13.5h-1v37
q10 3 19.5 7.5t18 13t14.5 23t7 36.5h-59v102h105v-88z" />
    <glyph glyph-name="Ncaron" unicode="&#x147;" horiz-adv-x="722" 
d="M514 718h140v-718h-150l-293 512h-2v-512h-140v718h158l285 -500h2v500zM426 790h-125l-114 146h113l63 -82l64 82h113z" />
    <glyph glyph-name="ncaron" unicode="&#x148;" horiz-adv-x="611" 
d="M546 0h-140v323q0 15 -1.5 33t-10.5 34t-27.5 27t-51.5 11q-47 0 -78.5 -31t-31.5 -92v-305h-140v532h134v-78h2q7 12 18.5 28t30.5 30t46 24t65 10q39 0 73 -11.5t58.5 -34t39 -55.5t14.5 -77v-368zM382 604h-125l-114 146h113l63 -82l64 82h113z" />
    <glyph glyph-name="Omacron" unicode="&#x14c;" horiz-adv-x="778" 
d="M194 359q0 -75 19 -124t48 -77t63.5 -39t64.5 -11t64.5 11t63.5 39t48 77t19 124t-19 124t-48 77t-63.5 39t-64.5 11t-64.5 -11t-63.5 -39t-48 -77t-19 -124zM44 359q0 84 19 145t49.5 103t68.5 67.5t76.5 39.5t73 18.5t58.5 4.5t58.5 -4.5t73 -18.5t76.5 -39.5
t68.5 -67.5t49.5 -103t19 -145t-19 -145t-49.5 -103t-68.5 -67.5t-76.5 -39.5t-73 -18.5t-58.5 -4.5t-58.5 4.5t-73 18.5t-76.5 39.5t-68.5 67.5t-49.5 103t-19 145zM562 817h-345v74h345v-74z" />
    <glyph glyph-name="omacron" unicode="&#x14d;" horiz-adv-x="611" 
d="M434 266q0 25 -5 53.5t-18.5 52.5t-39 40t-65.5 16q-41 0 -66 -16t-38.5 -40t-18.5 -52.5t-5 -53.5q0 -26 5 -54.5t18.5 -52.5t38.5 -39.5t66 -15.5q40 0 65.5 15.5t39 39.5t18.5 52.5t5 54.5zM578 266q0 -72 -22.5 -125t-60 -87.5t-86.5 -51t-103 -16.5t-103 16.5
t-86.5 51t-60 87.5t-22.5 125t22.5 124.5t60 87t86.5 51.5t103 17t103 -17t86.5 -51.5t60 -87t22.5 -124.5zM480 604h-345v74h345v-74z" />
    <glyph glyph-name="Obreve" unicode="&#x14e;" horiz-adv-x="778" 
d="M194 359q0 -75 19 -124t48 -77t63.5 -39t64.5 -11t64.5 11t63.5 39t48 77t19 124t-19 124t-48 77t-63.5 39t-64.5 11t-64.5 -11t-63.5 -39t-48 -77t-19 -124zM44 359q0 84 19 145t49.5 103t68.5 67.5t76.5 39.5t73 18.5t58.5 4.5t58.5 -4.5t73 -18.5t76.5 -39.5
t68.5 -67.5t49.5 -103t19 -145t-19 -145t-49.5 -103t-68.5 -67.5t-76.5 -39.5t-73 -18.5t-58.5 -4.5t-58.5 4.5t-73 18.5t-76.5 39.5t-68.5 67.5t-49.5 103t-19 145zM557 936q-2 -17 -9 -42t-26 -48t-53 -39.5t-90 -16.5q-50 0 -81 17t-48 41t-23 48.5t-7 39.5h66
q2 -10 6 -22t14 -22.5t28.5 -18t50.5 -7.5q17 0 34 2t32 9t26 21t15 38h65z" />
    <glyph glyph-name="obreve" unicode="&#x14f;" horiz-adv-x="611" 
d="M434 266q0 25 -5 53.5t-18.5 52.5t-39 40t-65.5 16q-41 0 -66 -16t-38.5 -40t-18.5 -52.5t-5 -53.5q0 -26 5 -54.5t18.5 -52.5t38.5 -39.5t66 -15.5q40 0 65.5 15.5t39 39.5t18.5 52.5t5 54.5zM578 266q0 -72 -22.5 -125t-60 -87.5t-86.5 -51t-103 -16.5t-103 16.5
t-86.5 51t-60 87.5t-22.5 125t22.5 124.5t60 87t86.5 51.5t103 17t103 -17t86.5 -51.5t60 -87t22.5 -124.5zM480 750q-2 -17 -9 -42t-26 -48t-53 -39.5t-90 -16.5q-50 0 -81 17t-48 41t-23 48.5t-7 39.5h66q2 -10 6 -22t14 -22.5t28.5 -18t50.5 -7.5q17 0 34 2t32 9t26 21
t15 38h65z" />
    <glyph glyph-name="Ohungarumlaut" unicode="&#x150;" horiz-adv-x="778" 
d="M194 359q0 -75 19 -124t48 -77t63.5 -39t64.5 -11t64.5 11t63.5 39t48 77t19 124t-19 124t-48 77t-63.5 39t-64.5 11t-64.5 -11t-63.5 -39t-48 -77t-19 -124zM44 359q0 84 19 145t49.5 103t68.5 67.5t76.5 39.5t73 18.5t58.5 4.5t58.5 -4.5t73 -18.5t76.5 -39.5
t68.5 -67.5t49.5 -103t19 -145t-19 -145t-49.5 -103t-68.5 -67.5t-76.5 -39.5t-73 -18.5t-58.5 -4.5t-58.5 4.5t-73 18.5t-76.5 39.5t-68.5 67.5t-49.5 103t-19 145zM575 790h-101l94 146h154zM346 790h-101l94 146h154z" />
    <glyph glyph-name="ohungarumlaut" unicode="&#x151;" horiz-adv-x="611" 
d="M434 266q0 25 -5 53.5t-18.5 52.5t-39 40t-65.5 16q-41 0 -66 -16t-38.5 -40t-18.5 -52.5t-5 -53.5q0 -26 5 -54.5t18.5 -52.5t38.5 -39.5t66 -15.5q40 0 65.5 15.5t39 39.5t18.5 52.5t5 54.5zM578 266q0 -72 -22.5 -125t-60 -87.5t-86.5 -51t-103 -16.5t-103 16.5
t-86.5 51t-60 87.5t-22.5 125t22.5 124.5t60 87t86.5 51.5t103 17t103 -17t86.5 -51.5t60 -87t22.5 -124.5zM460 604h-101l94 146h154zM231 604h-101l94 146h154z" />
    <glyph glyph-name="OE" unicode="&#x152;" horiz-adv-x="1000" 
d="M481 521q0 27 -13 44.5t-32 28t-40.5 15t-38.5 4.5q-47 0 -79.5 -20.5t-53.5 -56t-30.5 -83.5t-9.5 -102q0 -40 9 -83.5t29 -79.5t51.5 -59.5t77.5 -23.5q31 0 55.5 8.5t41 21.5t25 29.5t8.5 31.5v325zM628 440h310v-127h-310v-186h333v-127h-470v50q-15 -17 -30 -30
t-33 -21.5t-41.5 -13t-54.5 -4.5q-45 0 -96.5 17t-95.5 59.5t-73.5 115.5t-29.5 186q0 66 15 133.5t50.5 122t92.5 88.5t141 34q34 0 59.5 -6t43.5 -15.5t30.5 -20t21.5 -19.5v42h470v-127h-333v-151z" />
    <glyph glyph-name="oe" unicode="&#x153;" horiz-adv-x="944" 
d="M768 319q-3 32 -14 53.5t-26 34.5t-33 18.5t-35 5.5q-50 0 -76.5 -29.5t-32.5 -82.5h217zM434 266q0 25 -5 53.5t-18.5 52.5t-39 40t-65.5 16q-41 0 -66 -16t-38.5 -40t-18.5 -52.5t-5 -53.5q0 -26 5 -54.5t18.5 -52.5t38.5 -39.5t66 -15.5q40 0 65.5 15.5t39 39.5
t18.5 52.5t5 54.5zM906 156q-14 -48 -39.5 -80.5t-57.5 -52.5t-67.5 -28.5t-69.5 -8.5q-45 0 -76 7t-53 18t-37 24t-26 25q-9 -12 -23.5 -25t-35.5 -24t-49.5 -18t-65.5 -7q-54 0 -103 16.5t-86.5 51t-60 87.5t-22.5 125t22.5 124.5t60 87t86.5 51.5t103 17
q55 0 104.5 -22.5t78.5 -57.5q14 14 30 28.5t36 26t46 18.5t61 7q39 0 83 -11.5t81 -44t61.5 -89.5t24.5 -148v-25h-365q1 -15 5 -37t16.5 -43t37 -35.5t66.5 -14.5q29 0 55.5 14.5t34.5 43.5h144z" />
    <glyph glyph-name="Racute" unicode="&#x154;" horiz-adv-x="722" 
d="M399 402q59 0 87.5 22t28.5 76q0 14 -4 30.5t-15.5 30.5t-32 23.5t-53.5 9.5h-187v-192h176zM76 718h363q72 0 116 -23t68.5 -55.5t33 -67t8.5 -57.5q0 -60 -28.5 -106.5t-82.5 -64.5q22 -10 39 -20.5t28.5 -30t17.5 -50.5t6 -81q0 -39 0.5 -65t3.5 -41.5t9.5 -24
t18.5 -12.5v-19h-166q-8 26 -12 57.5t-4 87.5q0 37 -2.5 62.5t-14 42t-35 24t-65.5 7.5h-155v-281h-147v718zM377 790h-101l94 146h154z" />
    <glyph glyph-name="racute" unicode="&#x155;" horiz-adv-x="389" 
d="M64 532h134v-92h2q11 20 23 39t29 34t39.5 24t54.5 9q7 0 13.5 -0.5t13.5 -1.5v-142q-9 2 -20 2h-20q-41 0 -66 -11.5t-39 -30t-19 -41t-5 -44.5v-277h-140v532zM226 604h-101l94 146h154z" />
    <glyph glyph-name="Rcommaaccent" unicode="&#x156;" horiz-adv-x="722" 
d="M399 402q59 0 87.5 22t28.5 76q0 14 -4 30.5t-15.5 30.5t-32 23.5t-53.5 9.5h-187v-192h176zM76 718h363q72 0 116 -23t68.5 -55.5t33 -67t8.5 -57.5q0 -60 -28.5 -106.5t-82.5 -64.5q22 -10 39 -20.5t28.5 -30t17.5 -50.5t6 -81q0 -39 0.5 -65t3.5 -41.5t9.5 -24
t18.5 -12.5v-19h-166q-8 26 -12 57.5t-4 87.5q0 37 -2.5 62.5t-14 42t-35 24t-65.5 7.5h-155v-281h-147v718zM424 -132q0 -32 -8 -54.5t-22 -38t-32.5 -25t-41.5 -13.5h-1v37q10 3 19.5 7.5t18 13t14.5 23t7 36.5h-59v102h105v-88z" />
    <glyph glyph-name="rcommaaccent" unicode="&#x157;" horiz-adv-x="389" 
d="M64 532h134v-92h2q11 20 23 39t29 34t39.5 24t54.5 9q7 0 13.5 -0.5t13.5 -1.5v-142q-9 2 -20 2h-20q-41 0 -66 -11.5t-39 -30t-19 -41t-5 -44.5v-277h-140v532zM196 -132q0 -32 -8 -54.5t-22 -38t-32.5 -25t-41.5 -13.5h-1v37q10 3 19.5 7.5t18 13t14.5 23t7 36.5h-59
v102h105v-88z" />
    <glyph glyph-name="Rcaron" unicode="&#x158;" horiz-adv-x="722" 
d="M399 402q59 0 87.5 22t28.5 76q0 14 -4 30.5t-15.5 30.5t-32 23.5t-53.5 9.5h-187v-192h176zM76 718h363q72 0 116 -23t68.5 -55.5t33 -67t8.5 -57.5q0 -60 -28.5 -106.5t-82.5 -64.5q22 -10 39 -20.5t28.5 -30t17.5 -50.5t6 -81q0 -39 0.5 -65t3.5 -41.5t9.5 -24
t18.5 -12.5v-19h-166q-8 26 -12 57.5t-4 87.5q0 37 -2.5 62.5t-14 42t-35 24t-65.5 7.5h-155v-281h-147v718zM406 790h-125l-114 146h113l63 -82l64 82h113z" />
    <glyph glyph-name="rcaron" unicode="&#x159;" horiz-adv-x="389" 
d="M64 532h134v-92h2q11 20 23 39t29 34t39.5 24t54.5 9q7 0 13.5 -0.5t13.5 -1.5v-142q-9 2 -20 2h-20q-41 0 -66 -11.5t-39 -30t-19 -41t-5 -44.5v-277h-140v532zM266 604h-125l-114 146h113l63 -82l64 82h113z" />
    <glyph glyph-name="Sacute" unicode="&#x15a;" horiz-adv-x="667" 
d="M183 221q0 -15 5.5 -35t21.5 -38t46 -30.5t79 -12.5q27 0 53.5 4t48 14t35 28t13.5 47q0 21 -9.5 35t-27 23.5t-41.5 16.5t-52 14l-77 18q-44 10 -85 22t-72.5 34.5t-51 59t-19.5 95.5q0 20 4.5 44t15.5 48.5t30.5 48t50.5 41t74 28.5t101 11q82 0 136 -24t86 -59
t45 -75.5t13 -73.5h-144q-2 12 -6.5 30.5t-19.5 35.5t-43.5 29.5t-77.5 12.5q-21 0 -43.5 -4.5t-40.5 -14.5t-29.5 -26.5t-11.5 -40.5q0 -21 7.5 -34.5t19 -21.5t25 -12t24.5 -7l175 -43q37 -9 71 -22t60 -35t41.5 -55t15.5 -81q0 -54 -16.5 -92.5t-43 -64.5t-58.5 -41.5
t-63.5 -23.5t-58.5 -10.5t-43 -2.5q-98 0 -158.5 25t-93.5 61.5t-44 78.5t-11 75h144zM375 790h-101l94 146h154z" />
    <glyph glyph-name="sacute" unicode="&#x15b;" 
d="M366 370q-2 13 -6.5 25.5t-14.5 22.5t-27.5 16t-45.5 6q-29 0 -46 -5t-26 -12.5t-11.5 -16.5t-2.5 -18q0 -21 24.5 -32t61.5 -19t80.5 -16.5t80.5 -26t61.5 -47t24.5 -78.5q0 -58 -24.5 -94t-60.5 -55.5t-76.5 -26.5t-71.5 -7q-45 0 -90.5 9t-81.5 30t-59.5 56.5
t-24.5 88.5h144q0 -34 25 -56t91 -22q27 0 44.5 6t27 14t13.5 17.5t4 17.5q0 22 -24.5 33.5t-61 19.5t-79.5 16.5t-79.5 25.5t-61 46.5t-24.5 79.5q0 29 10 60.5t35 57.5t66.5 43t103.5 17q39 0 79.5 -6.5t74.5 -25.5t57.5 -53.5t27.5 -90.5h-137zM325 604h-101l94 146h154z
" />
    <glyph glyph-name="Scircumflex" unicode="&#x15c;" horiz-adv-x="667" 
d="M183 221q0 -15 5.5 -35t21.5 -38t46 -30.5t79 -12.5q27 0 53.5 4t48 14t35 28t13.5 47q0 21 -9.5 35t-27 23.5t-41.5 16.5t-52 14l-77 18q-44 10 -85 22t-72.5 34.5t-51 59t-19.5 95.5q0 20 4.5 44t15.5 48.5t30.5 48t50.5 41t74 28.5t101 11q82 0 136 -24t86 -59
t45 -75.5t13 -73.5h-144q-2 12 -6.5 30.5t-19.5 35.5t-43.5 29.5t-77.5 12.5q-21 0 -43.5 -4.5t-40.5 -14.5t-29.5 -26.5t-11.5 -40.5q0 -21 7.5 -34.5t19 -21.5t25 -12t24.5 -7l175 -43q37 -9 71 -22t60 -35t41.5 -55t15.5 -81q0 -54 -16.5 -92.5t-43 -64.5t-58.5 -41.5
t-63.5 -23.5t-58.5 -10.5t-43 -2.5q-98 0 -158.5 25t-93.5 61.5t-44 78.5t-11 75h144zM499 790h-113l-64 82l-63 -82h-113l114 146h125z" />
    <glyph glyph-name="scircumflex" unicode="&#x15d;" 
d="M366 370q-2 13 -6.5 25.5t-14.5 22.5t-27.5 16t-45.5 6q-29 0 -46 -5t-26 -12.5t-11.5 -16.5t-2.5 -18q0 -21 24.5 -32t61.5 -19t80.5 -16.5t80.5 -26t61.5 -47t24.5 -78.5q0 -58 -24.5 -94t-60.5 -55.5t-76.5 -26.5t-71.5 -7q-45 0 -90.5 9t-81.5 30t-59.5 56.5
t-24.5 88.5h144q0 -34 25 -56t91 -22q27 0 44.5 6t27 14t13.5 17.5t4 17.5q0 22 -24.5 33.5t-61 19.5t-79.5 16.5t-79.5 25.5t-61 46.5t-24.5 79.5q0 29 10 60.5t35 57.5t66.5 43t103.5 17q39 0 79.5 -6.5t74.5 -25.5t57.5 -53.5t27.5 -90.5h-137zM454 604h-113l-64 82
l-63 -82h-113l114 146h125z" />
    <glyph glyph-name="Scedilla" unicode="&#x15e;" horiz-adv-x="667" 
d="M183 221q0 -15 5.5 -35t21.5 -38t46 -30.5t79 -12.5q27 0 53.5 4t48 14t35 28t13.5 47q0 21 -9.5 35t-27 23.5t-41.5 16.5t-52 14l-77 18q-44 10 -85 22t-72.5 34.5t-51 59t-19.5 95.5q0 20 4.5 44t15.5 48.5t30.5 48t50.5 41t74 28.5t101 11q82 0 136 -24t86 -59
t45 -75.5t13 -73.5h-144q-2 12 -6.5 30.5t-19.5 35.5t-43.5 29.5t-77.5 12.5q-21 0 -43.5 -4.5t-40.5 -14.5t-29.5 -26.5t-11.5 -40.5q0 -21 7.5 -34.5t19 -21.5t25 -12t24.5 -7l175 -43q37 -9 71 -22t60 -35t41.5 -55t15.5 -81q0 -73 -28.5 -118t-70 -70.5t-88.5 -35
t-84 -11.5l-25 -36q9 2 15 3t15 1q10 0 25 -3.5t29 -12t23.5 -23.5t9.5 -39q0 -45 -34.5 -72t-89.5 -27q-14 0 -26 1t-25 3.5t-28 7.5t-36 13l22 48q20 -6 40.5 -11t36.5 -5t31.5 10t15.5 29q0 17 -12 26.5t-27 9.5q-8 0 -19 -2.5t-21 -5.5l-21 20l45 67q-70 5 -115 22
q-46 18 -75 44.5t-45 56.5t-22 60t-6 55h144z" />
    <glyph glyph-name="scedilla" unicode="&#x15f;" 
d="M252 -13q-41 3 -80.5 14t-71 32.5t-50.5 55t-20 81.5h144q0 -34 25 -56t91 -22q27 0 44.5 6t27 14t13.5 17.5t4 17.5q0 22 -24.5 33.5t-61 19.5t-79.5 16.5t-79.5 25.5t-61 46.5t-24.5 79.5q0 29 10 60.5t35 57.5t66.5 43t103.5 17q39 0 79.5 -6.5t74.5 -25.5t57.5 -53.5
t27.5 -90.5h-137q-2 13 -6.5 25.5t-14.5 22.5t-27.5 16t-45.5 6q-29 0 -46 -5t-26 -12.5t-11.5 -16.5t-2.5 -18q0 -21 24.5 -32t61.5 -19t80.5 -16.5t80.5 -26t61.5 -47t24.5 -78.5q0 -53 -21 -87.5t-52.5 -55t-68 -29t-68.5 -10.5l-29 -42q9 2 15 3t15 1q10 0 25 -3.5
t29 -12t23.5 -23.5t9.5 -39q0 -45 -34.5 -72t-89.5 -27q-14 0 -26 1t-25 3.5t-28 7.5t-36 13l22 48q20 -6 40.5 -11t36.5 -5t31.5 10t15.5 29q0 17 -12 26.5t-27 9.5q-8 0 -19 -2.5t-21 -5.5l-21 20z" />
    <glyph glyph-name="Scaron" unicode="&#x160;" horiz-adv-x="667" 
d="M183 221q0 -15 5.5 -35t21.5 -38t46 -30.5t79 -12.5q27 0 53.5 4t48 14t35 28t13.5 47q0 21 -9.5 35t-27 23.5t-41.5 16.5t-52 14l-77 18q-44 10 -85 22t-72.5 34.5t-51 59t-19.5 95.5q0 20 4.5 44t15.5 48.5t30.5 48t50.5 41t74 28.5t101 11q82 0 136 -24t86 -59
t45 -75.5t13 -73.5h-144q-2 12 -6.5 30.5t-19.5 35.5t-43.5 29.5t-77.5 12.5q-21 0 -43.5 -4.5t-40.5 -14.5t-29.5 -26.5t-11.5 -40.5q0 -21 7.5 -34.5t19 -21.5t25 -12t24.5 -7l175 -43q37 -9 71 -22t60 -35t41.5 -55t15.5 -81q0 -54 -16.5 -92.5t-43 -64.5t-58.5 -41.5
t-63.5 -23.5t-58.5 -10.5t-43 -2.5q-98 0 -158.5 25t-93.5 61.5t-44 78.5t-11 75h144zM396 790h-125l-114 146h113l63 -82l64 82h113z" />
    <glyph glyph-name="scaron" unicode="&#x161;" 
d="M366 370q-2 13 -6.5 25.5t-14.5 22.5t-27.5 16t-45.5 6q-29 0 -46 -5t-26 -12.5t-11.5 -16.5t-2.5 -18q0 -21 24.5 -32t61.5 -19t80.5 -16.5t80.5 -26t61.5 -47t24.5 -78.5q0 -58 -24.5 -94t-60.5 -55.5t-76.5 -26.5t-71.5 -7q-45 0 -90.5 9t-81.5 30t-59.5 56.5
t-24.5 88.5h144q0 -34 25 -56t91 -22q27 0 44.5 6t27 14t13.5 17.5t4 17.5q0 22 -24.5 33.5t-61 19.5t-79.5 16.5t-79.5 25.5t-61 46.5t-24.5 79.5q0 29 10 60.5t35 57.5t66.5 43t103.5 17q39 0 79.5 -6.5t74.5 -25.5t57.5 -53.5t27.5 -90.5h-137zM341 604h-125l-114 146
h113l63 -82l64 82h113z" />
    <glyph glyph-name="Tcommaaccent" unicode="&#x162;" horiz-adv-x="611" 
d="M381 0h-150v591h-217v127h584v-127h-217v-591zM360 -132q0 -32 -8 -54.5t-22 -38t-32.5 -25t-41.5 -13.5h-1v37q10 3 19.5 7.5t18 13t14.5 23t7 36.5h-59v102h105v-88z" />
    <glyph glyph-name="tcommaaccent" unicode="&#x163;" horiz-adv-x="333" 
d="M222 532h87v-100h-87v-289q0 -12 1 -20t6.5 -13t17.5 -7.5t33 -2.5q7 0 14 0.5t15 1.5v-106q-17 -1 -33 -1.5t-33 -0.5h-18q-45 0 -73 8.5t-43.5 23.5t-21 36t-5.5 47v323h-72v100h72v144h140v-144zM239 -132q0 -32 -8 -54.5t-22 -38t-32.5 -25t-41.5 -13.5h-1v37
q10 3 19.5 7.5t18 13t14.5 23t7 36.5h-59v102h105v-88z" />
    <glyph glyph-name="Tcaron" unicode="&#x164;" horiz-adv-x="611" 
d="M381 0h-150v591h-217v127h584v-127h-217v-591zM369 790h-125l-114 146h113l63 -82l64 82h113z" />
    <glyph glyph-name="tcaron" unicode="&#x165;" horiz-adv-x="333" 
d="M222 532h87v-100h-87v-289q0 -12 1 -20t6.5 -13t17.5 -7.5t33 -2.5q7 0 14 0.5t15 1.5v-106q-17 -1 -33 -1.5t-33 -0.5h-18q-45 0 -73 8.5t-43.5 23.5t-21 36t-5.5 47v323h-72v100h72v144h140v-144zM387 692q0 -32 -8 -54.5t-22 -38t-32.5 -25t-41.5 -13.5h-1v37
q10 3 19.5 7.5t18 13t14.5 23t7 36.5h-59v102h105v-88z" />
    <glyph glyph-name="Tbar" unicode="&#x166;" horiz-adv-x="611" 
d="M85 455h146v136h-217v127h584v-127h-217v-136h145v-87h-145v-368h-150v368h-146v87z" />
    <glyph glyph-name="tbar" unicode="&#x167;" horiz-adv-x="333" 
d="M292 269h-70v-126q0 -12 1 -20t6.5 -13t17.5 -7.5t33 -2.5q7 0 14 0.5t15 1.5v-106q-17 -1 -33 -1.5t-33 -0.5h-18q-45 0 -73 8.5t-43.5 23.5t-21 36t-5.5 47v160h-60v77h60v86h-72v100h72v144h140v-144h87v-100h-87v-86h70v-77z" />
    <glyph glyph-name="Utilde" unicode="&#x168;" horiz-adv-x="722" 
d="M651 251q0 -71 -20.5 -122t-59 -84t-93 -48.5t-122.5 -15.5q-25 0 -54.5 3.5t-60 13.5t-60 26.5t-53.5 43.5q-29 33 -41.5 76.5t-14.5 97.5v476h153v-466q0 -38 10 -65t27.5 -44.5t41 -26t49.5 -8.5q78 0 111.5 35.5t33.5 101.5v473h153v-467zM567 923q-2 -11 -7.5 -31.5
t-17.5 -40t-32.5 -34t-51.5 -14.5q-17 0 -39.5 5.5t-36.5 10.5q-24 8 -41 14t-30 6t-22 -5t-14 -12t-7.5 -14.5t-3.5 -11.5h-64q3 15 9 35.5t20 40.5t36 33.5t56 13.5q17 0 31.5 -4.5t40.5 -14.5t38.5 -13.5t23.5 -3.5q25 0 34.5 13.5t12.5 26.5h65z" />
    <glyph glyph-name="utilde" unicode="&#x169;" horiz-adv-x="611" 
d="M545 0h-134v75h-2q-24 -43 -65 -66t-97 -23q-39 0 -72.5 11.5t-57.5 35.5t-37.5 61t-13.5 88v350h140v-330q0 -31 8 -50t21 -29.5t29.5 -14.5t32.5 -4q17 0 36 5.5t35 19.5t26.5 37t10.5 59v307h140v-532zM501 737q-2 -11 -7.5 -31.5t-17.5 -40t-32.5 -34t-51.5 -14.5
q-17 0 -39.5 5.5t-36.5 10.5q-24 8 -41 14t-30 6t-22 -5t-14 -12t-7.5 -14.5t-3.5 -11.5h-64q3 15 9 35.5t20 40.5t36 33.5t56 13.5q17 0 31.5 -4.5t40.5 -14.5t38.5 -13.5t23.5 -3.5q25 0 34.5 13.5t12.5 26.5h65z" />
    <glyph glyph-name="Umacron" unicode="&#x16a;" horiz-adv-x="722" 
d="M651 251q0 -71 -20.5 -122t-59 -84t-93 -48.5t-122.5 -15.5q-25 0 -54.5 3.5t-60 13.5t-60 26.5t-53.5 43.5q-29 33 -41.5 76.5t-14.5 97.5v476h153v-466q0 -38 10 -65t27.5 -44.5t41 -26t49.5 -8.5q78 0 111.5 35.5t33.5 101.5v473h153v-467zM534 817h-345v74h345v-74z
" />
    <glyph glyph-name="umacron" unicode="&#x16b;" horiz-adv-x="611" 
d="M545 0h-134v75h-2q-24 -43 -65 -66t-97 -23q-39 0 -72.5 11.5t-57.5 35.5t-37.5 61t-13.5 88v350h140v-330q0 -31 8 -50t21 -29.5t29.5 -14.5t32.5 -4q17 0 36 5.5t35 19.5t26.5 37t10.5 59v307h140v-532zM481 604h-345v74h345v-74z" />
    <glyph glyph-name="Ubreve" unicode="&#x16c;" horiz-adv-x="722" 
d="M651 251q0 -71 -20.5 -122t-59 -84t-93 -48.5t-122.5 -15.5q-25 0 -54.5 3.5t-60 13.5t-60 26.5t-53.5 43.5q-29 33 -41.5 76.5t-14.5 97.5v476h153v-466q0 -38 10 -65t27.5 -44.5t41 -26t49.5 -8.5q78 0 111.5 35.5t33.5 101.5v473h153v-467zM540 936q-2 -17 -9 -42
t-26 -48t-53 -39.5t-90 -16.5q-50 0 -81 17t-48 41t-23 48.5t-7 39.5h66q2 -10 6 -22t14 -22.5t28.5 -18t50.5 -7.5q17 0 34 2t32 9t26 21t15 38h65z" />
    <glyph glyph-name="ubreve" unicode="&#x16d;" horiz-adv-x="611" 
d="M545 0h-134v75h-2q-24 -43 -65 -66t-97 -23q-39 0 -72.5 11.5t-57.5 35.5t-37.5 61t-13.5 88v350h140v-330q0 -31 8 -50t21 -29.5t29.5 -14.5t32.5 -4q17 0 36 5.5t35 19.5t26.5 37t10.5 59v307h140v-532zM479 750q-2 -17 -9 -42t-26 -48t-53 -39.5t-90 -16.5
q-50 0 -81 17t-48 41t-23 48.5t-7 39.5h66q2 -10 6 -22t14 -22.5t28.5 -18t50.5 -7.5q17 0 34 2t32 9t26 21t15 38h65z" />
    <glyph glyph-name="Uring" unicode="&#x16e;" horiz-adv-x="722" 
d="M651 251q0 -71 -20.5 -122t-59 -84t-93 -48.5t-122.5 -15.5q-25 0 -54.5 3.5t-60 13.5t-60 26.5t-53.5 43.5q-29 33 -41.5 76.5t-14.5 97.5v476h153v-466q0 -38 10 -65t27.5 -44.5t41 -26t49.5 -8.5q78 0 111.5 35.5t33.5 101.5v473h153v-467zM419 858q0 22 -15 37
t-37 15t-37 -15t-15 -37t15 -37t37 -15t37 15t15 37zM475 858q0 -24 -10 -43t-25.5 -32.5t-34.5 -21t-38 -7.5t-38 7.5t-34.5 21t-25.5 32.5t-10 43t10 43t25.5 32.5t34.5 21t38 7.5t38 -7.5t34.5 -21t25.5 -32.5t10 -43z" />
    <glyph glyph-name="uring" unicode="&#x16f;" horiz-adv-x="611" 
d="M545 0h-134v75h-2q-24 -43 -65 -66t-97 -23q-39 0 -72.5 11.5t-57.5 35.5t-37.5 61t-13.5 88v350h140v-330q0 -31 8 -50t21 -29.5t29.5 -14.5t32.5 -4q17 0 36 5.5t35 19.5t26.5 37t10.5 59v307h140v-532zM359 672q0 22 -15 37t-37 15t-37 -15t-15 -37t15 -37t37 -15
t37 15t15 37zM415 672q0 -24 -10 -43t-25.5 -32.5t-34.5 -21t-38 -7.5t-38 7.5t-34.5 21t-25.5 32.5t-10 43t10 43t25.5 32.5t34.5 21t38 7.5t38 -7.5t34.5 -21t25.5 -32.5t10 -43z" />
    <glyph glyph-name="Uhungarumlaut" unicode="&#x170;" horiz-adv-x="722" 
d="M651 251q0 -71 -20.5 -122t-59 -84t-93 -48.5t-122.5 -15.5q-25 0 -54.5 3.5t-60 13.5t-60 26.5t-53.5 43.5q-29 33 -41.5 76.5t-14.5 97.5v476h153v-466q0 -38 10 -65t27.5 -44.5t41 -26t49.5 -8.5q78 0 111.5 35.5t33.5 101.5v473h153v-467zM506 790h-101l94 146h154z
M277 790h-101l94 146h154z" />
    <glyph glyph-name="uhungarumlaut" unicode="&#x171;" horiz-adv-x="611" 
d="M545 0h-134v75h-2q-24 -43 -65 -66t-97 -23q-39 0 -72.5 11.5t-57.5 35.5t-37.5 61t-13.5 88v350h140v-330q0 -31 8 -50t21 -29.5t29.5 -14.5t32.5 -4q17 0 36 5.5t35 19.5t26.5 37t10.5 59v307h140v-532zM464 604h-101l94 146h154zM235 604h-101l94 146h154z" />
    <glyph glyph-name="Uogonek" unicode="&#x172;" horiz-adv-x="722" 
d="M356 -161q8 -7 20 -9.5t24 -2.5q18 0 36 5t29 10l18 -45q-24 -11 -52 -18t-57 -7q-24 0 -47 6t-40 18t-27.5 30t-10.5 41t7 41t18 32t24.5 24.5t25.5 17.5q-50 5 -102.5 23t-93.5 63q-29 33 -42.5 76.5t-13.5 97.5v476h153v-466q0 -38 10 -65t27.5 -44.5t41 -26
t49.5 -8.5q78 0 111.5 35.5t33.5 101.5v473h153v-467q0 -106 -45 -168.5t-128 -85.5q-27 -8 -57 -12q-21 -13 -32 -24q-31 -28 -40 -50.5t-9 -37.5q0 -21 16 -34z" />
    <glyph glyph-name="uogonek" unicode="&#x173;" horiz-adv-x="611" 
d="M404 -161q8 -7 20 -9.5t24 -2.5q18 0 36 5t29 10l18 -45q-24 -11 -52 -18t-57 -7q-24 0 -47 6t-40 18t-27.5 30t-10.5 41q0 36 17.5 61.5t39.5 41.5q25 18 57 30v75h-2q-24 -43 -64.5 -66t-97.5 -23q-39 0 -72.5 11.5t-57.5 35.5t-37.5 61t-13.5 88v350h140v-330
q0 -31 8 -50t21 -29.5t29 -14.5t33 -4t36 5.5t35 19.5t26.5 37t10.5 59v307h140v-532h-48q-19 -9 -35.5 -20.5t-24.5 -18.5q-31 -28 -40 -50.5t-9 -37.5q0 -21 16 -34z" />
    <glyph glyph-name="Wcircumflex" unicode="&#x174;" horiz-adv-x="944" 
d="M16 718h160q23 -98 39.5 -169.5t28 -123t19 -86.5t12.5 -60.5t8.5 -45.5t6.5 -40h2q5 28 10.5 60.5t16 88.5t27.5 145.5t46 230.5h159q21 -99 36 -169.5t25.5 -121t17.5 -85t12 -60t8.5 -46t7.5 -43.5h2q3 17 6.5 35t8.5 43.5t13 61.5t20 88.5t29 125t40 171.5h152
l-202 -718h-144q-19 88 -32.5 154t-24 117t-18 89.5t-13.5 71.5t-11.5 63t-11.5 65h-2q-5 -35 -10.5 -64t-11 -60.5t-13 -68.5t-18 -88t-25 -119t-33.5 -160h-140zM653 790h-113l-64 82l-63 -82h-113l114 146h125z" />
    <glyph glyph-name="wcircumflex" unicode="&#x175;" horiz-adv-x="778" 
d="M616 0h-144l-83 388h-2l-83 -388h-144l-150 532h149l83 -382h2l75 382h141l80 -382h2l83 382h144zM574 604h-113l-64 82l-63 -82h-113l114 146h125z" />
    <glyph glyph-name="Ycircumflex" unicode="&#x176;" horiz-adv-x="667" 
d="M413 0h-150v271l-248 447h177l149 -312l142 312h170l-240 -449v-269zM520 790h-113l-64 82l-63 -82h-113l114 146h125z" />
    <glyph glyph-name="ycircumflex" unicode="&#x177;" 
d="M10 532h156l114 -392h2l109 392h148l-187 -539q-21 -58 -39 -102t-39 -67.5t-49.5 -30.5t-74.5 -7q-14 0 -31 0.5t-32 1.5v112q5 -1 11.5 -1.5t15.5 -0.5q19 0 34 2t26 10.5t19 24.5t13 43zM460 604h-113l-64 82l-63 -82h-113l114 146h125z" />
    <glyph glyph-name="Ydieresis" unicode="&#x178;" horiz-adv-x="667" 
d="M413 0h-150v271l-248 447h177l149 -312l142 312h170l-240 -449v-269zM494 800h-126v115h126v-115zM299 800h-126v115h126v-115z" />
    <glyph glyph-name="Zacute" unicode="&#x179;" horiz-adv-x="611" 
d="M586 0h-561v127l371 464h-361v127h549v-118l-376 -473h378v-127zM332 790h-101l94 146h154z" />
    <glyph glyph-name="zacute" unicode="&#x17a;" horiz-adv-x="500" 
d="M201 115h279v-115h-460v109l273 311h-254v112h431v-115zM291 604h-101l94 146h154z" />
    <glyph glyph-name="Zdotaccent" unicode="&#x17b;" horiz-adv-x="611" 
d="M586 0h-561v127l371 464h-361v127h549v-118l-376 -473h378v-127zM382 800h-126v115h126v-115z" />
    <glyph glyph-name="zdotaccent" unicode="&#x17c;" horiz-adv-x="500" 
d="M201 115h279v-115h-460v109l273 311h-254v112h431v-115zM324 614h-126v115h126v-115z" />
    <glyph glyph-name="Zcaron" unicode="&#x17d;" horiz-adv-x="611" 
d="M586 0h-561v127l371 464h-361v127h549v-118l-376 -473h378v-127zM368 790h-125l-114 146h113l63 -82l64 82h113z" />
    <glyph glyph-name="zcaron" unicode="&#x17e;" horiz-adv-x="500" 
d="M201 115h279v-115h-460v109l273 311h-254v112h431v-115zM313 604h-125l-114 146h113l63 -82l64 82h113z" />
    <glyph glyph-name="florin" unicode="&#x192;" 
d="M475 380h-134l-59 -359q-5 -30 -15 -70t-31 -76t-56 -60.5t-89 -24.5q-12 0 -23 1t-22.5 3.5t-24.5 6.5t-31 10l24 111q20 -11 30 -14t24 -3q18 0 29.5 7t19.5 23.5t14 43.5t13 67l57 334h-122v97h137l19 87q4 17 12 46t27 57.5t52 49t87 20.5q20 0 46 -4t57 -15
l-24 -108q-13 7 -28.5 11t-26.5 4q-31 0 -46.5 -18t-20.5 -42l-15 -88h120v-97z" />
    <glyph glyph-name="Scommaaccent" unicode="&#x218;" horiz-adv-x="667" 
d="M183 221q0 -15 5.5 -35t21.5 -38t46 -30.5t79 -12.5q27 0 53.5 4t48 14t35 28t13.5 47q0 21 -9.5 35t-27 23.5t-41.5 16.5t-52 14l-77 18q-44 10 -85 22t-72.5 34.5t-51 59t-19.5 95.5q0 20 4.5 44t15.5 48.5t30.5 48t50.5 41t74 28.5t101 11q82 0 136 -24t86 -59
t45 -75.5t13 -73.5h-144q-2 12 -6.5 30.5t-19.5 35.5t-43.5 29.5t-77.5 12.5q-21 0 -43.5 -4.5t-40.5 -14.5t-29.5 -26.5t-11.5 -40.5q0 -21 7.5 -34.5t19 -21.5t25 -12t24.5 -7l175 -43q37 -9 71 -22t60 -35t41.5 -55t15.5 -81q0 -54 -16.5 -92.5t-43 -64.5t-58.5 -41.5
t-63.5 -23.5t-58.5 -10.5t-43 -2.5q-98 0 -158.5 25t-93.5 61.5t-44 78.5t-11 75h144zM387 -132q0 -32 -8 -54.5t-22 -38t-32.5 -25t-41.5 -13.5h-1v37q10 3 19.5 7.5t18 13t14.5 23t7 36.5h-59v102h105v-88z" />
    <glyph glyph-name="scommaaccent" unicode="&#x219;" 
d="M366 370q-2 13 -6.5 25.5t-14.5 22.5t-27.5 16t-45.5 6q-29 0 -46 -5t-26 -12.5t-11.5 -16.5t-2.5 -18q0 -21 24.5 -32t61.5 -19t80.5 -16.5t80.5 -26t61.5 -47t24.5 -78.5q0 -58 -24.5 -94t-60.5 -55.5t-76.5 -26.5t-71.5 -7q-45 0 -90.5 9t-81.5 30t-59.5 56.5
t-24.5 88.5h144q0 -34 25 -56t91 -22q27 0 44.5 6t27 14t13.5 17.5t4 17.5q0 22 -24.5 33.5t-61 19.5t-79.5 16.5t-79.5 25.5t-61 46.5t-24.5 79.5q0 29 10 60.5t35 57.5t66.5 43t103.5 17q39 0 79.5 -6.5t74.5 -25.5t57.5 -53.5t27.5 -90.5h-137zM334 -132q0 -32 -8 -54.5
t-22 -38t-32.5 -25t-41.5 -13.5h-1v37q10 3 19.5 7.5t18 13t14.5 23t7 36.5h-59v102h105v-88z" />
    <glyph glyph-name="uni021A" unicode="&#x21a;" horiz-adv-x="611" 
d="M381 0h-150v591h-217v127h584v-127h-217v-591zM360 -132q0 -32 -8 -54.5t-22 -38t-32.5 -25t-41.5 -13.5h-1v37q10 3 19.5 7.5t18 13t14.5 23t7 36.5h-59v102h105v-88z" />
    <glyph glyph-name="uni021B" unicode="&#x21b;" horiz-adv-x="333" 
d="M222 532h87v-100h-87v-289q0 -12 1 -20t6.5 -13t17.5 -7.5t33 -2.5q7 0 14 0.5t15 1.5v-106q-17 -1 -33 -1.5t-33 -0.5h-18q-45 0 -73 8.5t-43.5 23.5t-21 36t-5.5 47v323h-72v100h72v144h140v-144zM239 -132q0 -32 -8 -54.5t-22 -38t-32.5 -25t-41.5 -13.5h-1v37
q10 3 19.5 7.5t18 13t14.5 23t7 36.5h-59v102h105v-88z" />
    <glyph glyph-name="dotlessj" unicode="&#x237;" horiz-adv-x="278" 
d="M209 -56q0 -52 -11.5 -83.5t-33.5 -48t-54 -21.5t-72 -5h-35v112h25q5 0 12 1t13.5 5.5t11 14.5t4.5 28v585h140v-588z" />
    <glyph glyph-name="circumflex" unicode="&#x2c6;" horiz-adv-x="333" 
d="M343 604h-113l-64 82l-63 -82h-113l114 146h125z" />
    <glyph glyph-name="caron" unicode="&#x2c7;" horiz-adv-x="333" 
d="M229 604h-125l-114 146h113l63 -82l64 82h113z" />
    <glyph glyph-name="uni02C9" unicode="&#x2c9;" horiz-adv-x="333" 
d="M339 604h-345v74h345v-74z" />
    <glyph glyph-name="breve" unicode="&#x2d8;" horiz-adv-x="333" 
d="M335 750q-2 -17 -9 -42t-26 -48t-53 -39.5t-90 -16.5q-50 0 -81 17t-48 41t-23 48.5t-7 39.5h66q2 -10 6 -22t14 -22.5t28.5 -18t50.5 -7.5q17 0 34 2t32 9t26 21t15 38h65z" />
    <glyph glyph-name="dotaccent" unicode="&#x2d9;" horiz-adv-x="333" 
d="M230 614h-126v115h126v-115z" />
    <glyph glyph-name="ring" unicode="&#x2da;" horiz-adv-x="333" 
d="M219 672q0 22 -15 37t-37 15t-37 -15t-15 -37t15 -37t37 -15t37 15t15 37zM275 672q0 -24 -10 -43t-25.5 -32.5t-34.5 -21t-38 -7.5t-38 7.5t-34.5 21t-25.5 32.5t-10 43t10 43t25.5 32.5t34.5 21t38 7.5t38 -7.5t34.5 -21t25.5 -32.5t10 -43z" />
    <glyph glyph-name="ogonek" unicode="&#x2db;" horiz-adv-x="333" 
d="M168 -161q8 -7 20 -9.5t24 -2.5q18 0 36 5t29 10l18 -45q-24 -11 -52 -18t-57 -7q-24 0 -47 6t-40 18t-27.5 30t-10.5 41q0 36 17.5 61.5t39.5 41.5q25 18 57 30h79v-4q-14 -6 -29.5 -17t-23.5 -18q-31 -28 -40 -50.5t-9 -37.5q0 -21 16 -34z" />
    <glyph glyph-name="tilde" unicode="&#x2dc;" horiz-adv-x="333" 
d="M350 737q-2 -11 -7.5 -31.5t-17.5 -40t-32.5 -34t-51.5 -14.5q-17 0 -39.5 5.5t-36.5 10.5q-24 8 -41 14t-30 6t-22 -5t-14 -12t-7.5 -14.5t-3.5 -11.5h-64q3 15 9 35.5t20 40.5t36 33.5t56 13.5q17 0 31.5 -4.5t40.5 -14.5t38.5 -13.5t23.5 -3.5q25 0 34.5 13.5
t12.5 26.5h65z" />
    <glyph glyph-name="hungarumlaut" unicode="&#x2dd;" horiz-adv-x="333" 
d="M339 604h-101l94 146h154zM110 604h-101l94 146h154z" />
    <glyph glyph-name="uni0394" unicode="&#x394;" horiz-adv-x="702" 
d="M504 124l-162 437l-151 -437h313zM692 0h-682l261 712h143z" />
    <glyph glyph-name="uni03A9" unicode="&#x3a9;" horiz-adv-x="768" 
d="M711 0h-287v204q8 2 13.5 3t8.5 2q47 14 79 55q10 14 18 29t13 32q11 36 11 73q0 46 -15 84t-44 66q-23 23 -58 36q-32 13 -68 13t-69 -13q-32 -12 -58 -36q-29 -26 -45 -67q-16 -39 -16 -86q0 -41 12 -77q6 -18 14.5 -33t19.5 -28q17 -19 41 -34q11 -6 24 -11t30 -8
v-204h-287v118h178v32q-36 9 -62 26q-27 16 -50 44q-16 19 -28.5 40t-20.5 46q-17 49 -17 103q0 64 25 123q20 48 54 85t80 63q76 41 174 41q83 0 151 -30q70 -31 114 -87q66 -81 66 -193q0 -61 -19 -111q-18 -50 -55 -89q-22 -23 -47 -39q-13 -7 -27 -12.5t-31 -9.5v-32
h178v-118z" />
    <glyph glyph-name="uni03BC" unicode="&#x3bc;" horiz-adv-x="611" 
d="M412 0v75h-2q-19 -43 -46 -66t-67 -23q-28 0 -52 12.5t-40 44.5v-250h-140v739h140v-310q0 -37 8.5 -60t21.5 -36t29.5 -17.5t32.5 -4.5q17 0 36.5 6.5t35.5 22t26.5 43t10.5 69.5v287h140v-532h-134z" />
    <glyph glyph-name="pi" unicode="&#x3c0;" horiz-adv-x="609" 
d="M583 371h-80v-202q0 -11 0.5 -20t1.5 -14q0 -6 1 -10t3 -7q2 -5 5 -8t7 -5q8 -4 21 -4q8 0 18.5 2.5t24.5 8.5v-95q-15 -8 -27 -12.5t-23 -7.5t-22 -4t-24 -1q-31 0 -54 10q-26 10 -39 30q-17 20 -20 57q0 10 -0.5 20t-0.5 21v241h-176v-371h-129v371h-70v118h583v-118z
" />
    <glyph glyph-name="endash" unicode="&#x2013;" 
d="M556 227h-556v106h556v-106z" />
    <glyph glyph-name="emdash" unicode="&#x2014;" horiz-adv-x="1000" 
d="M1000 227h-1000v106h1000v-106z" />
    <glyph glyph-name="quoteleft" unicode="&#x2018;" horiz-adv-x="278" 
d="M209 454h-140v102q0 47 13.5 78t33.5 50t44.5 28.5t45.5 14.5v-51q-25 -8 -39.5 -18.5t-22 -22.5t-9.5 -26t-3 -28h77v-127z" />
    <glyph glyph-name="quoteright" unicode="&#x2019;" horiz-adv-x="278" 
d="M69 718h140v-102q0 -47 -13.5 -78t-33.5 -50t-44.5 -29t-45.5 -14v51q25 8 39 18.5t21.5 22.5t10 26t3.5 28h-77v127z" />
    <glyph glyph-name="quotesinglbase" unicode="&#x201a;" horiz-adv-x="278" 
d="M69 127h140v-102q0 -47 -13.5 -78t-33.5 -50t-44.5 -29t-45.5 -14v51q25 8 39 18.5t21.5 22.5t10 26t3.5 28h-77v127z" />
    <glyph glyph-name="quotedblleft" unicode="&#x201c;" horiz-adv-x="500" 
d="M436 454h-140v102q0 47 13.5 78t33.5 50t44.5 28.5t45.5 14.5v-51q-25 -8 -39.5 -18.5t-22 -22.5t-9.5 -26t-3 -28h77v-127zM204 454h-140v102q0 47 13.5 78t33.5 50t44.5 28.5t45.5 14.5v-51q-25 -8 -39.5 -18.5t-22 -22.5t-9.5 -26t-3 -28h77v-127z" />
    <glyph glyph-name="quotedblright" unicode="&#x201d;" horiz-adv-x="500" 
d="M296 718h140v-102q0 -47 -13.5 -78t-33.5 -50t-44.5 -29t-45.5 -14v51q25 8 39 18.5t21.5 22.5t10 26t3.5 28h-77v127zM64 718h140v-102q0 -47 -13.5 -78t-33.5 -50t-44.5 -29t-45.5 -14v51q25 8 39 18.5t21.5 22.5t10 26t3.5 28h-77v127z" />
    <glyph glyph-name="quotedblbase" unicode="&#x201e;" horiz-adv-x="500" 
d="M296 127h140v-102q0 -47 -13.5 -78t-33.5 -50t-44.5 -29t-45.5 -14v51q25 8 39 18.5t21.5 22.5t10 26t3.5 28h-77v127zM64 127h140v-102q0 -47 -13.5 -78t-33.5 -50t-44.5 -29t-45.5 -14v51q25 8 39 18.5t21.5 22.5t10 26t3.5 28h-77v127z" />
    <glyph glyph-name="dagger" unicode="&#x2020;" 
d="M520 387h-175v-558h-134v558h-175v112h175v219h134v-219h175v-112z" />
    <glyph glyph-name="daggerdbl" unicode="&#x2021;" 
d="M520 397h-176v-239h176v-112h-176v-217h-134v217h-174v112h174v239h-174v112h174v209h134v-209h176v-112z" />
    <glyph glyph-name="bullet" unicode="&#x2022;" horiz-adv-x="350" 
d="M10 360q0 34 13 64t35 52.5t52 35t65 12.5q34 0 64 -12.5t52.5 -35t35.5 -52.5t13 -64q0 -35 -13 -65t-35.5 -52.5t-52.5 -35.5t-64 -13q-35 0 -65 12.5t-52 35t-35 53t-13 65.5z" />
    <glyph glyph-name="ellipsis" unicode="&#x2026;" horiz-adv-x="1000" 
d="M908 0h-150v146h150v-146zM575 0h-150v146h150v-146zM242 0h-150v146h150v-146z" />
    <glyph glyph-name="perthousand" unicode="&#x2030;" horiz-adv-x="1000" 
d="M781 149q0 -26 18 -43.5t43 -17.5t43 17.5t18 43.5t-18 43.5t-43 17.5t-43 -17.5t-18 -43.5zM681 149q0 33 12.5 62.5t34.5 51t51.5 34.5t62.5 13t62.5 -13t51 -34.5t34.5 -51t13 -62.5t-12.5 -62.5t-34.5 -51t-51.5 -34.5t-62.5 -13t-62.5 12.5t-51.5 34.5t-34.5 51.5
t-12.5 62.5zM416 149q0 -26 18 -43.5t43 -17.5t43 17.5t18 43.5t-18 43.5t-43 17.5t-43 -17.5t-18 -43.5zM316 149q0 33 12.5 62.5t34.5 51t51.5 34.5t62.5 13t62.5 -13t51 -34.5t34.5 -51t13 -62.5t-12.5 -62.5t-34.5 -51t-51.5 -34.5t-62.5 -13t-62.5 12.5t-51.5 34.5
t-34.5 51.5t-12.5 62.5zM478 710h74l-398 -729h-74zM-3 549q0 33 12.5 62.5t34.5 51t51.5 34.5t62.5 13t62.5 -13t51 -34.5t34.5 -51t13 -62.5t-12.5 -62.5t-34.5 -51t-51.5 -34.5t-62.5 -13t-62.5 12.5t-51.5 34.5t-34.5 51.5t-12.5 62.5zM97 549q0 -26 18 -43.5t43 -17.5
t43 17.5t18 43.5t-18 43.5t-43 17.5t-43 -17.5t-18 -43.5z" />
    <glyph glyph-name="guilsinglleft" unicode="&#x2039;" horiz-adv-x="333" 
d="M250 368l-100 -88l100 -88v-116l-167 144v120l167 144v-116z" />
    <glyph glyph-name="guilsinglright" unicode="&#x203a;" horiz-adv-x="333" 
d="M83 368v116l167 -144v-120l-167 -144v116l100 88z" />
    <glyph glyph-name="fraction" unicode="&#x2044;" horiz-adv-x="167" 
d="M-91 -19h-79l428 729h78z" />
    <glyph glyph-name="Euro" unicode="&#x20ac;" 
d="M517 509q-3 6 -9 14t-22 24q-17 17 -46.5 34t-76.5 17q-96 0 -119 -136h253l-40 -95h-221v-48h202l-40 -95h-152q3 -22 10.5 -45t21 -42t34.5 -31.5t51 -12.5q48 0 87.5 15t66.5 38v-128q-35 -23 -74 -30t-80 -7q-102 0 -170.5 59t-90.5 184h-90l40 95h41q0 7 -0.5 13.5
t-0.5 13.5v21h-80l39 95h50q18 119 84.5 183.5t177.5 64.5q37 0 69.5 -8.5t58 -21.5t44 -29t28.5 -30z" />
    <glyph glyph-name="afii61289" unicode="&#x2113;" horiz-adv-x="500" 
d="M434 46q-68 -60 -149 -60q-66 0 -105 36.5t-39 100.5v80l-57 -55h-2l-37 54l95 85v249q0 42 11.5 76t32 58t48.5 37.5t61 13.5q58 0 93 -37t35 -101q0 -75 -44.5 -151.5t-135.5 -161.5v-131q0 -23 6 -38t16 -24t22 -12.5t24 -3.5q20 0 42.5 9t45.5 29h2zM339 576
q0 33 -13.5 55t-33.5 22t-35.5 -25t-15.5 -74v-197q49 55 73.5 111.5t24.5 107.5z" />
    <glyph glyph-name="trademark" unicode="&#x2122;" horiz-adv-x="1000" 
d="M385 633h-115v-327h-112v327h-114v85h341v-85zM710 468l93 250h153v-412h-106v281h-2l-98 -281h-81l-98 281h-2v-281h-106v412h153z" />
    <glyph glyph-name="Omega" unicode="&#x2126;" horiz-adv-x="768" 
d="M711 0h-287v204q8 2 13.5 3t8.5 2q47 14 79 55q10 14 18 29t13 32q11 36 11 73q0 46 -15 84t-44 66q-23 23 -58 36q-32 13 -68 13t-69 -13q-32 -12 -58 -36q-29 -26 -45 -67q-16 -39 -16 -86q0 -41 12 -77q6 -18 14.5 -33t19.5 -28q17 -19 41 -34q11 -6 24 -11t30 -8
v-204h-287v118h178v32q-36 9 -62 26q-27 16 -50 44q-16 19 -28.5 40t-20.5 46q-17 49 -17 103q0 64 25 123q20 48 54 85t80 63q76 41 174 41q83 0 151 -30q70 -31 114 -87q66 -81 66 -193q0 -61 -19 -111q-18 -50 -55 -89q-22 -23 -47 -39q-13 -7 -27 -12.5t-31 -9.5v-32
h178v-118z" />
    <glyph glyph-name="estimated" unicode="&#x212e;" horiz-adv-x="500" 
d="M157 259v-181q59 -59 145 -59q63 0 109 28.5t84 91.5l35 -21q-23 -36 -46.5 -61.5t-51 -42t-59.5 -24t-71 -7.5q-59 0 -106.5 21.5t-81.5 59t-52 87.5t-18 108t18 108.5t52 87.5t81.5 58.5t106.5 21.5q58 0 105.5 -20.5t81.5 -57t53 -87t19 -111.5h-404zM448 295v145
q-63 60 -147 60t-144 -60v-145h291z" />
    <glyph glyph-name="partialdiff" unicode="&#x2202;" horiz-adv-x="572" 
d="M395 291q-12 13 -21 21q-5 4 -10.5 7.5t-12.5 7.5q-32 19 -68 19q-43 0 -74 -28q-18 -17 -29 -45t-11 -61q0 -27 8 -54q7 -24 23 -41q7 -8 15 -14t18 -10q19 -9 40 -9q62 0 94 62q7 13 11.5 28t8.5 32t6.5 34t1.5 34v17v0zM68 647q32 28 59 42q58 32 126 32q70 0 124 -29
q57 -29 92 -85q60 -90 60 -248q0 -80 -12 -146q-7 -37 -20 -67q-10 -28 -29 -57q-69 -102 -197 -102q-102 0 -165 64q-30 30 -47 75t-17 93q0 52 20 98q19 44 57 76q30 25 65 37q36 13 78 13q35 0 70 -11q16 -6 32 -15t32 -22v15q0 14 -1 28t-3 29q-12 83 -54 122
q-32 31 -79 31q-41 0 -78 -22q-9 -5 -19.5 -12.5t-23.5 -18.5z" />
    <glyph glyph-name="Delta" unicode="&#x2206;" horiz-adv-x="702" 
d="M504 124l-162 437l-151 -437h313zM692 0h-682l261 712h143z" />
    <glyph glyph-name="product" unicode="&#x220f;" horiz-adv-x="749" 
d="M693 -214h-132v874h-373v-874h-133v1000h638v-1000z" />
    <glyph glyph-name="summation" unicode="&#x2211;" horiz-adv-x="673" 
d="M634 660h-418l263 -367l-281 -381h448v-126h-619v110l295 396l-283 384v110h595v-126z" />
    <glyph glyph-name="minus" unicode="&#x2212;" horiz-adv-x="584" 
d="M40 197v112h504v-112h-504z" />
    <glyph glyph-name="uni2215" unicode="&#x2215;" horiz-adv-x="167" 
d="M-91 -19h-79l428 729h78z" />
    <glyph glyph-name="uni2219" unicode="&#x2219;" horiz-adv-x="278" 
d="M58 253q0 34 23.5 57.5t57.5 23.5t57.5 -23.5t23.5 -57.5q0 -33 -23 -57t-58 -24t-58 24t-23 57z" />
    <glyph glyph-name="radical" unicode="&#x221a;" horiz-adv-x="570" 
d="M362 -214h-122l-147 303l-53 -26l-49 105l171 78l117 -255l162 795h139z" />
    <glyph glyph-name="infinity" unicode="&#x221e;" horiz-adv-x="848" 
d="M356 264q-11 14 -23 26t-26 23q-11 10 -21 16t-20 11q-19 8 -37 8q-33 0 -54 -23q-21 -24 -21 -59q0 -37 21 -59t56 -22q41 0 82 35q13 11 23.5 22t19.5 22zM491 264q66 -80 128 -80q14 0 33 7q21 11 31 29q11 18 11 46q0 42 -27 66q-23 17 -51 17q-20 0 -39 -9
q-18 -9 -40 -28q-13 -12 -24 -24zM424 341q42 52 72 77q55 45 124 45q42 0 81 -17q50 -23 75 -69q27 -45 27 -108q0 -47 -15 -84q-13 -38 -41 -66q-52 -50 -128 -50q-33 0 -63 11q-14 5 -29 13.5t-30 19.5q-10 7 -18.5 14.5t-16.5 15.5t-17.5 18t-20.5 24
q-11 -14 -20.5 -24.5t-16.5 -17.5q-16 -16 -31 -27q-16 -12 -30.5 -21t-29.5 -14q-27 -10 -64 -10q-75 0 -126 45q-61 55 -61 152q0 47 15 85t44 64q23 21 56 34q31 12 68 12q35 0 67 -12q31 -11 62 -36q8 -7 15 -14t14 -15q8 -8 17.5 -19t20.5 -26z" />
    <glyph glyph-name="integral" unicode="&#x222b;" horiz-adv-x="628" 
d="M366 155v-41q0 -81 -3 -135q-2 -19 -3.5 -34.5t-4.5 -29.5q-6 -27 -16 -45q-20 -39 -57 -62q-36 -21 -83 -21q-29 0 -59 11q-27 10 -42 30q-9 10 -15 24q-6 13 -6 24q0 8 3 19q3 8 8 15q7 10 22 16q14 7 30 7q11 0 22 -6q10 -5 19 -14q8 -13 15 -44q3 -13 7 -18
q5 -5 12 -5q9 0 14 8q5 10 5 27q0 19 -3 58q-3 46 -3 93v442v60t1 49q5 75 24 115q22 43 59 64q38 22 89 22q13 0 25.5 -1.5t24.5 -6.5q23 -7 40 -21q12 -9 20 -24q8 -16 8 -29q0 -6 -1 -12t-3 -13q-4 -11 -7 -14q-4 -7 -10 -10q-20 -15 -40 -15q-21 0 -34 12q-12 9 -18 25
q-1 2 -3 8t-5 17q-6 25 -19 25q-6 0 -13 -7q-6 -9 -6 -30q0 -5 0.5 -14t1.5 -21q2 -42 3 -73t1 -53v-372z" />
    <glyph glyph-name="approxequal" unicode="&#x2248;" horiz-adv-x="593" 
d="M571 248q-2 -21 -6 -40.5t-10 -37.5q-12 -35 -30 -61q-20 -26 -48 -39q-30 -14 -62 -14q-14 0 -49 8t-74 21l-56 19q-51 16 -72 16q-13 0 -25 -6q-11 -5 -19 -17q-11 -16 -14 -38h-85q3 42 13 73q11 33 30 58q20 28 51 43q29 16 62 16q8 0 16 -1.5t19 -3.5q10 -2 27.5 -7
t42.5 -13l49 -15q21 -6 36 -10.5t25 -6.5q17 -4 36 -4q23 0 40 18q4 4 6.5 8t4.5 9q5 9 6 25h86v0zM572 474q-8 -85 -41 -127q-22 -28 -55 -46q-34 -17 -64 -17q-10 0 -22 1.5t-27 6.5q-15 4 -43.5 12.5t-70.5 22.5q-20 7 -33.5 11t-21.5 6q-15 3 -29 3q-26 0 -44 -24
q-7 -10 -9 -17q-2 -4 -3 -9t-2 -11h-85q3 33 9 58q15 53 45 85q19 19 49 31q30 11 62 11q17 0 35 -3q10 -2 22 -5t27 -8l52 -17q80 -23 105 -23q23 0 40 15q15 17 18 44h86v0z" />
    <glyph glyph-name="notequal" unicode="&#x2260;" horiz-adv-x="593" 
d="M252 318h-222v129h286l79 157l113 -57l-50 -100h105v-129h-169l-52 -103h221v-130h-286l-78 -157l-114 57l51 100h-106v130h170z" />
    <glyph glyph-name="lessequal" unicode="&#x2264;" horiz-adv-x="593" 
d="M563 86v-129h-533v129h533zM30 411l533 165v-135l-354 -94l354 -98v-135l-533 168v129z" />
    <glyph glyph-name="greaterequal" unicode="&#x2265;" horiz-adv-x="593" 
d="M563 -43h-533v129h533v-129zM30 114v135l354 98l-354 94v135l533 -165v-129z" />
    <glyph glyph-name="lozenge" unicode="&#x25ca;" horiz-adv-x="593" 
d="M184 356l112 -262l112 262l-112 261zM541 356l-186 -391h-119l-184 391l185 391h118z" />
    <glyph glyph-name="grave.cap" unicode="&#xe300;" horiz-adv-x="333" 
d="M-23 936h154l94 -146h-101z" />
    <glyph glyph-name="acute.cap" unicode="&#xe301;" horiz-adv-x="333" 
d="M209 790h-101l94 146h154z" />
    <glyph glyph-name="circumflex.cap" unicode="&#xe302;" horiz-adv-x="333" 
d="M343 790h-113l-64 82l-63 -82h-113l114 146h125z" />
    <glyph glyph-name="caron.cap" unicode="&#xe303;" horiz-adv-x="333" 
d="M229 790h-125l-114 146h113l63 -82l64 82h113z" />
    <glyph glyph-name="tilde.cap" unicode="&#xe304;" horiz-adv-x="333" 
d="M350 923q-2 -11 -7.5 -31.5t-17.5 -40t-32.5 -34t-51.5 -14.5q-17 0 -39.5 5.5t-36.5 10.5q-24 8 -41 14t-30 6t-22 -5t-14 -12t-7.5 -14.5t-3.5 -11.5h-64q3 15 9 35.5t20 40.5t36 33.5t56 13.5q17 0 31.5 -4.5t40.5 -14.5t38.5 -13.5t23.5 -3.5q25 0 34.5 13.5
t12.5 26.5h65z" />
    <glyph glyph-name="dieresis.cap" unicode="&#xe305;" horiz-adv-x="333" 
d="M327 800h-126v115h126v-115zM132 800h-126v115h126v-115z" />
    <glyph glyph-name="macron.cap" unicode="&#xe306;" horiz-adv-x="333" 
d="M339 817h-345v74h345v-74z" />
    <glyph glyph-name="breve.cap" unicode="&#xe307;" horiz-adv-x="333" 
d="M335 936q-2 -17 -9 -42t-26 -48t-53 -39.5t-90 -16.5q-50 0 -81 17t-48 41t-23 48.5t-7 39.5h66q2 -10 6 -22t14 -22.5t28.5 -18t50.5 -7.5q17 0 34 2t32 9t26 21t15 38h65z" />
    <glyph glyph-name="ring.cap" unicode="&#xe308;" horiz-adv-x="333" 
d="M219 858q0 22 -15 37t-37 15t-37 -15t-15 -37t15 -37t37 -15t37 15t15 37zM275 858q0 -24 -10 -43t-25.5 -32.5t-34.5 -21t-38 -7.5t-38 7.5t-34.5 21t-25.5 32.5t-10 43t10 43t25.5 32.5t34.5 21t38 7.5t38 -7.5t34.5 -21t25.5 -32.5t10 -43z" />
    <glyph glyph-name="hungarumlaut.cap" unicode="&#xe309;" horiz-adv-x="333" 
d="M339 790h-101l94 146h154zM110 790h-101l94 146h154z" />
    <glyph glyph-name="dotaccent.cap" unicode="&#xe30a;" horiz-adv-x="333" 
d="M230 800h-126v115h126v-115z" />
    <glyph glyph-name="caron.alt" unicode="&#xe30b;" horiz-adv-x="311" 
d="M235 692q0 -32 -8 -54.5t-22 -38t-32.5 -25t-41.5 -13.5h-1v37q10 3 19.5 7.5t18 13t14.5 23t7 36.5h-59v102h105v-88z" />
    <glyph glyph-name="commaaccent" unicode="&#xe30c;" horiz-adv-x="311" 
d="M219 -132q0 -32 -8 -54.5t-22 -38t-32.5 -25t-41.5 -13.5h-1v37q10 3 19.5 7.5t18 13t14.5 23t7 36.5h-59v102h105v-88z" />
    <glyph glyph-name="commaaccent.alt" unicode="&#xe30d;" horiz-adv-x="311" 
d="M114 692q0 32 8 54.5t22 38t32.5 25t41.5 13.5h1v-37q-10 -3 -19.5 -7.5t-18 -13t-14.5 -23t-7 -36.5h59v-102h-105v88z" />
    <glyph glyph-name="uniF8FF" unicode="&#xf8ff;" horiz-adv-x="512" 
d="M222 117v67h56v-67h-56zM225 234l-2 17q0 56 13 81q7 13 18 27.5t28 31.5q16 15 26 26.5t15 21t7 18t2 17.5q0 36 -22.5 60.5t-53.5 24.5t-53.5 -22t-28.5 -73l-50 8q7 72 44 104.5t91 32.5t89 -35.5t35 -95.5q0 -32 -12.5 -58.5t-50.5 -61.5q-37 -33 -43 -52
q-6 -20 -6 -72h-46zM462 50v617h-412v-617h412zM512 718v-718h-512v718h512z" />
    </font>
</defs>
</svg>
